<mxfile host="65bd71144e" pages="3">
    <diagram id="XZ2FNBFQHorzxM068JaM" name="MCD (validÃ©)">
        <mxGraphModel dx="1031" dy="639" grid="1" gridSize="10" guides="1" tooltips="1" connect="1" arrows="1" fold="1" page="1" pageScale="1" pageWidth="827" pageHeight="1169" math="0" shadow="0">
            <root>
                <mxCell id="0"/>
                <mxCell id="1" parent="0"/>
                <mxCell id="SOIeBWDmBt10avhGpR6U-1" value="&lt;span style=&quot;color: rgba(0 , 0 , 0 , 0) ; font-family: monospace ; font-size: 0px&quot;&gt;%3CmxGraphModel%3E%3Croot%3E%3CmxCell%20id%3D%220%22%2F%3E%3CmxCell%20id%3D%221%22%20parent%3D%220%22%2F%3E%3CmxCell%20id%3D%222%22%20value%3D%22PRIX_J_PRENALITER%22%20style%3D%22text%3Balign%3Dleft%3BverticalAlign%3Dtop%3BspacingLeft%3D4%3BspacingRight%3D4%3Boverflow%3Dhidden%3Brotatable%3D0%3Bpoints%3D%5B%5B0%2C0.5%5D%2C%5B1%2C0.5%5D%5D%3BportConstraint%3Deastwest%3B%22%20vertex%3D%221%22%20parent%3D%221%22%3E%3CmxGeometry%20x%3D%22230%22%20y%3D%22362%22%20width%3D%22160%22%20height%3D%2226%22%20as%3D%22geometry%22%2F%3E%3C%2FmxCell%3E%3C%2Froot%3E%3C%2FmxGraphModel%3E&lt;/span&gt;" style="ellipse;whiteSpace=wrap;html=1;" parent="1" vertex="1">
                    <mxGeometry x="460" y="560" width="130" height="60" as="geometry"/>
                </mxCell>
                <mxCell id="SOIeBWDmBt10avhGpR6U-2" value="UTILISATEUR" style="swimlane;fontStyle=2;align=center;verticalAlign=top;childLayout=stackLayout;horizontal=1;startSize=26;horizontalStack=0;resizeParent=1;resizeLast=0;collapsible=1;marginBottom=0;rounded=0;shadow=0;strokeWidth=1;" parent="1" vertex="1">
                    <mxGeometry x="100" y="15" width="160" height="175" as="geometry">
                        <mxRectangle x="230" y="140" width="160" height="26" as="alternateBounds"/>
                    </mxGeometry>
                </mxCell>
                <mxCell id="SOIeBWDmBt10avhGpR6U-3" value="ID_USER (int primary)" style="text;align=left;verticalAlign=top;spacingLeft=4;spacingRight=4;overflow=hidden;rotatable=0;points=[[0,0.5],[1,0.5]];portConstraint=eastwest;rounded=0;shadow=0;html=0;strokeColor=#FF0000;" parent="SOIeBWDmBt10avhGpR6U-2" vertex="1">
                    <mxGeometry y="26" width="160" height="26" as="geometry"/>
                </mxCell>
                <mxCell id="SOIeBWDmBt10avhGpR6U-4" value="NOM" style="text;align=left;verticalAlign=top;spacingLeft=4;spacingRight=4;overflow=hidden;rotatable=0;points=[[0,0.5],[1,0.5]];portConstraint=eastwest;rounded=0;shadow=0;html=0;" parent="SOIeBWDmBt10avhGpR6U-2" vertex="1">
                    <mxGeometry y="52" width="160" height="26" as="geometry"/>
                </mxCell>
                <mxCell id="SOIeBWDmBt10avhGpR6U-5" value="NOM" style="text;align=left;verticalAlign=top;spacingLeft=4;spacingRight=4;overflow=hidden;rotatable=0;points=[[0,0.5],[1,0.5]];portConstraint=eastwest;rounded=0;shadow=0;html=0;" parent="SOIeBWDmBt10avhGpR6U-2" vertex="1">
                    <mxGeometry y="78" width="160" height="26" as="geometry"/>
                </mxCell>
                <mxCell id="SOIeBWDmBt10avhGpR6U-6" value="PRENOM" style="text;align=left;verticalAlign=top;spacingLeft=4;spacingRight=4;overflow=hidden;rotatable=0;points=[[0,0.5],[1,0.5]];portConstraint=eastwest;rounded=0;shadow=0;html=0;" parent="SOIeBWDmBt10avhGpR6U-2" vertex="1">
                    <mxGeometry y="104" width="160" height="26" as="geometry"/>
                </mxCell>
                <mxCell id="SOIeBWDmBt10avhGpR6U-7" value="EMAIL" style="text;align=left;verticalAlign=top;spacingLeft=4;spacingRight=4;overflow=hidden;rotatable=0;points=[[0,0.5],[1,0.5]];portConstraint=eastwest;" parent="SOIeBWDmBt10avhGpR6U-2" vertex="1">
                    <mxGeometry y="130" width="160" height="26" as="geometry"/>
                </mxCell>
                <mxCell id="SOIeBWDmBt10avhGpR6U-8" value="ABONNEMENT" style="swimlane;fontStyle=0;align=center;verticalAlign=top;childLayout=stackLayout;horizontal=1;startSize=26;horizontalStack=0;resizeParent=1;resizeLast=0;collapsible=1;marginBottom=0;rounded=0;shadow=0;strokeWidth=1;" parent="1" vertex="1">
                    <mxGeometry x="550" y="15" width="160" height="105" as="geometry">
                        <mxRectangle x="550" y="140" width="160" height="26" as="alternateBounds"/>
                    </mxGeometry>
                </mxCell>
                <mxCell id="SOIeBWDmBt10avhGpR6U-9" value="ID_ABO" style="text;align=left;verticalAlign=top;spacingLeft=4;spacingRight=4;overflow=hidden;rotatable=0;points=[[0,0.5],[1,0.5]];portConstraint=eastwest;rounded=0;shadow=0;html=0;strokeColor=#FF0000;" parent="SOIeBWDmBt10avhGpR6U-8" vertex="1">
                    <mxGeometry y="26" width="160" height="26" as="geometry"/>
                </mxCell>
                <mxCell id="SOIeBWDmBt10avhGpR6U-10" value="DATE_ADHESION" style="text;align=left;verticalAlign=top;spacingLeft=4;spacingRight=4;overflow=hidden;rotatable=0;points=[[0,0.5],[1,0.5]];portConstraint=eastwest;rounded=0;shadow=0;html=0;" parent="SOIeBWDmBt10avhGpR6U-8" vertex="1">
                    <mxGeometry y="52" width="160" height="26" as="geometry"/>
                </mxCell>
                <mxCell id="SOIeBWDmBt10avhGpR6U-11" value="FIN_ADHESION" style="text;align=left;verticalAlign=top;spacingLeft=4;spacingRight=4;overflow=hidden;rotatable=0;points=[[0,0.5],[1,0.5]];portConstraint=eastwest;rounded=0;shadow=0;html=0;" parent="SOIeBWDmBt10avhGpR6U-8" vertex="1">
                    <mxGeometry y="78" width="160" height="26" as="geometry"/>
                </mxCell>
                <mxCell id="SOIeBWDmBt10avhGpR6U-12" value="&lt;span style=&quot;color: rgba(0 , 0 , 0 , 0) ; font-family: monospace ; font-size: 0px&quot;&gt;%3CmxGraphModel%3E%3Croot%3E%3CmxCell%20id%3D%220%22%2F%3E%3CmxCell%20id%3D%221%22%20parent%3D%220%22%2F%3E%3CmxCell%20id%3D%222%22%20value%3D%22PRIX_J_PRENALITER%22%20style%3D%22text%3Balign%3Dleft%3BverticalAlign%3Dtop%3BspacingLeft%3D4%3BspacingRight%3D4%3Boverflow%3Dhidden%3Brotatable%3D0%3Bpoints%3D%5B%5B0%2C0.5%5D%2C%5B1%2C0.5%5D%5D%3BportConstraint%3Deastwest%3B%22%20vertex%3D%221%22%20parent%3D%221%22%3E%3CmxGeometry%20x%3D%22230%22%20y%3D%22362%22%20width%3D%22160%22%20height%3D%2226%22%20as%3D%22geometry%22%2F%3E%3C%2FmxCell%3E%3C%2Froot%3E%3C%2FmxGraphModel%3E&lt;/span&gt;" style="ellipse;whiteSpace=wrap;html=1;" parent="1" vertex="1">
                    <mxGeometry x="345" y="50" width="130" height="60" as="geometry"/>
                </mxCell>
                <mxCell id="SOIeBWDmBt10avhGpR6U-13" value="" style="endArrow=none;shadow=0;strokeWidth=1;rounded=0;endFill=1;edgeStyle=elbowEdgeStyle;elbow=vertical;" parent="1" source="SOIeBWDmBt10avhGpR6U-2" target="SOIeBWDmBt10avhGpR6U-12" edge="1">
                    <mxGeometry x="0.5" y="41" relative="1" as="geometry">
                        <mxPoint x="180" y="78" as="sourcePoint"/>
                        <mxPoint x="480" y="78" as="targetPoint"/>
                        <mxPoint x="-40" y="32" as="offset"/>
                    </mxGeometry>
                </mxCell>
                <mxCell id="SOIeBWDmBt10avhGpR6U-14" value="1. n" style="resizable=0;align=left;verticalAlign=bottom;labelBackgroundColor=none;fontSize=12;" parent="SOIeBWDmBt10avhGpR6U-13" connectable="0" vertex="1">
                    <mxGeometry x="-1" relative="1" as="geometry">
                        <mxPoint x="10" y="-8" as="offset"/>
                    </mxGeometry>
                </mxCell>
                <mxCell id="SOIeBWDmBt10avhGpR6U-15" value="OBJET" style="swimlane;fontStyle=0;align=center;verticalAlign=top;childLayout=stackLayout;horizontal=1;startSize=26;horizontalStack=0;resizeParent=1;resizeLast=0;collapsible=1;marginBottom=0;rounded=0;shadow=0;strokeWidth=1;" parent="1" vertex="1">
                    <mxGeometry x="711" y="520" width="170" height="140" as="geometry">
                        <mxRectangle x="340" y="380" width="170" height="26" as="alternateBounds"/>
                    </mxGeometry>
                </mxCell>
                <mxCell id="SOIeBWDmBt10avhGpR6U-16" value="ID_OBJET" style="text;align=left;verticalAlign=top;spacingLeft=4;spacingRight=4;overflow=hidden;rotatable=0;points=[[0,0.5],[1,0.5]];portConstraint=eastwest;strokeColor=#FF0000;" parent="SOIeBWDmBt10avhGpR6U-15" vertex="1">
                    <mxGeometry y="26" width="170" height="26" as="geometry"/>
                </mxCell>
                <mxCell id="SOIeBWDmBt10avhGpR6U-17" value="NOMBRE_ARTICLE" style="text;align=left;verticalAlign=top;spacingLeft=4;spacingRight=4;overflow=hidden;rotatable=0;points=[[0,0.5],[1,0.5]];portConstraint=eastwest;" parent="SOIeBWDmBt10avhGpR6U-15" vertex="1">
                    <mxGeometry y="52" width="170" height="26" as="geometry"/>
                </mxCell>
                <mxCell id="SOIeBWDmBt10avhGpR6U-18" value="PRIX_OBJET" style="text;align=left;verticalAlign=top;spacingLeft=4;spacingRight=4;overflow=hidden;rotatable=0;points=[[0,0.5],[1,0.5]];portConstraint=eastwest;" parent="SOIeBWDmBt10avhGpR6U-15" vertex="1">
                    <mxGeometry y="78" width="170" height="26" as="geometry"/>
                </mxCell>
                <mxCell id="SOIeBWDmBt10avhGpR6U-19" value="FILM" style="swimlane;fontStyle=0;align=center;verticalAlign=top;childLayout=stackLayout;horizontal=1;startSize=26;horizontalStack=0;resizeParent=1;resizeLast=0;collapsible=1;marginBottom=0;rounded=0;shadow=0;strokeWidth=1;" parent="1" vertex="1">
                    <mxGeometry x="490" y="1110" width="160" height="80" as="geometry">
                        <mxRectangle x="340" y="380" width="170" height="26" as="alternateBounds"/>
                    </mxGeometry>
                </mxCell>
                <mxCell id="SOIeBWDmBt10avhGpR6U-20" value="ID_FILM" style="text;align=left;verticalAlign=top;spacingLeft=4;spacingRight=4;overflow=hidden;rotatable=0;points=[[0,0.5],[1,0.5]];portConstraint=eastwest;strokeColor=#FF0000;" parent="SOIeBWDmBt10avhGpR6U-19" vertex="1">
                    <mxGeometry y="26" width="160" height="26" as="geometry"/>
                </mxCell>
                <mxCell id="SOIeBWDmBt10avhGpR6U-21" value="TITRE" style="text;align=left;verticalAlign=top;spacingLeft=4;spacingRight=4;overflow=hidden;rotatable=0;points=[[0,0.5],[1,0.5]];portConstraint=eastwest;" parent="SOIeBWDmBt10avhGpR6U-19" vertex="1">
                    <mxGeometry y="52" width="160" height="26" as="geometry"/>
                </mxCell>
                <mxCell id="SOIeBWDmBt10avhGpR6U-22" value="MUSIC" style="swimlane;fontStyle=0;align=center;verticalAlign=top;childLayout=stackLayout;horizontal=1;startSize=26;horizontalStack=0;resizeParent=1;resizeLast=0;collapsible=1;marginBottom=0;rounded=0;shadow=0;strokeWidth=1;" parent="1" vertex="1">
                    <mxGeometry x="1040" y="1160" width="160" height="80" as="geometry">
                        <mxRectangle x="340" y="380" width="170" height="26" as="alternateBounds"/>
                    </mxGeometry>
                </mxCell>
                <mxCell id="SOIeBWDmBt10avhGpR6U-23" value="ID_MUSIQUE" style="text;align=left;verticalAlign=top;spacingLeft=4;spacingRight=4;overflow=hidden;rotatable=0;points=[[0,0.5],[1,0.5]];portConstraint=eastwest;strokeColor=#FF0000;" parent="SOIeBWDmBt10avhGpR6U-22" vertex="1">
                    <mxGeometry y="26" width="160" height="26" as="geometry"/>
                </mxCell>
                <mxCell id="SOIeBWDmBt10avhGpR6U-24" value="TITRE" style="text;align=left;verticalAlign=top;spacingLeft=4;spacingRight=4;overflow=hidden;rotatable=0;points=[[0,0.5],[1,0.5]];portConstraint=eastwest;" parent="SOIeBWDmBt10avhGpR6U-22" vertex="1">
                    <mxGeometry y="52" width="160" height="26" as="geometry"/>
                </mxCell>
                <mxCell id="SOIeBWDmBt10avhGpR6U-25" value="Commune" style="swimlane;fontStyle=0;align=center;verticalAlign=top;childLayout=stackLayout;horizontal=1;startSize=26;horizontalStack=0;resizeParent=1;resizeLast=0;collapsible=1;marginBottom=0;rounded=0;shadow=0;strokeWidth=1;" parent="1" vertex="1">
                    <mxGeometry x="20" y="360" width="160" height="90" as="geometry">
                        <mxRectangle x="70" y="410" width="170" height="26" as="alternateBounds"/>
                    </mxGeometry>
                </mxCell>
                <mxCell id="SOIeBWDmBt10avhGpR6U-26" value="ID_Commune" style="text;align=left;verticalAlign=top;spacingLeft=4;spacingRight=4;overflow=hidden;rotatable=0;points=[[0,0.5],[1,0.5]];portConstraint=eastwest;strokeColor=#FF0000;" parent="SOIeBWDmBt10avhGpR6U-25" vertex="1">
                    <mxGeometry y="26" width="160" height="26" as="geometry"/>
                </mxCell>
                <mxCell id="SOIeBWDmBt10avhGpR6U-27" value="Ville" style="text;align=left;verticalAlign=top;spacingLeft=4;spacingRight=4;overflow=hidden;rotatable=0;points=[[0,0.5],[1,0.5]];portConstraint=eastwest;" parent="SOIeBWDmBt10avhGpR6U-25" vertex="1">
                    <mxGeometry y="52" width="160" height="26" as="geometry"/>
                </mxCell>
                <mxCell id="SOIeBWDmBt10avhGpR6U-28" value="&lt;span style=&quot;color: rgba(0 , 0 , 0 , 0) ; font-family: monospace ; font-size: 0px&quot;&gt;%3CmxGraphModel%3E%3Croot%3E%3CmxCell%20id%3D%220%22%2F%3E%3CmxCell%20id%3D%221%22%20parent%3D%220%22%2F%3E%3CmxCell%20id%3D%222%22%20value%3D%22PRIX_J_PRENALITER%22%20style%3D%22text%3Balign%3Dleft%3BverticalAlign%3Dtop%3BspacingLeft%3D4%3BspacingRight%3D4%3Boverflow%3Dhidden%3Brotatable%3D0%3Bpoints%3D%5B%5B0%2C0.5%5D%2C%5B1%2C0.5%5D%5D%3BportConstraint%3Deastwest%3B%22%20vertex%3D%221%22%20parent%3D%221%22%3E%3CmxGeometry%20x%3D%22230%22%20y%3D%22362%22%20width%3D%22160%22%20height%3D%2226%22%20as%3D%22geometry%22%2F%3E%3C%2FmxCell%3E%3C%2Froot%3E%3C%2FmxGraphModel%3E&lt;/span&gt;" style="ellipse;whiteSpace=wrap;html=1;" parent="1" vertex="1">
                    <mxGeometry x="506" y="985" width="130" height="60" as="geometry"/>
                </mxCell>
                <mxCell id="SOIeBWDmBt10avhGpR6U-29" value="VISIONER" style="text;html=1;strokeColor=none;fillColor=none;align=center;verticalAlign=middle;whiteSpace=wrap;rounded=0;" parent="1" vertex="1">
                    <mxGeometry x="526" y="1000" width="80" height="30" as="geometry"/>
                </mxCell>
                <mxCell id="SOIeBWDmBt10avhGpR6U-30" value="&lt;span style=&quot;color: rgba(0 , 0 , 0 , 0) ; font-family: monospace ; font-size: 0px&quot;&gt;%3CmxGraphModel%3E%3Croot%3E%3CmxCell%20id%3D%220%22%2F%3E%3CmxCell%20id%3D%221%22%20parent%3D%220%22%2F%3E%3CmxCell%20id%3D%222%22%20value%3D%22PRIX_J_PRENALITER%22%20style%3D%22text%3Balign%3Dleft%3BverticalAlign%3Dtop%3BspacingLeft%3D4%3BspacingRight%3D4%3Boverflow%3Dhidden%3Brotatable%3D0%3Bpoints%3D%5B%5B0%2C0.5%5D%2C%5B1%2C0.5%5D%5D%3BportConstraint%3Deastwest%3B%22%20vertex%3D%221%22%20parent%3D%221%22%3E%3CmxGeometry%20x%3D%22230%22%20y%3D%22362%22%20width%3D%22160%22%20height%3D%2226%22%20as%3D%22geometry%22%2F%3E%3C%2FmxCell%3E%3C%2Froot%3E%3C%2FmxGraphModel%3E&lt;/span&gt;" style="ellipse;whiteSpace=wrap;html=1;" parent="1" vertex="1">
                    <mxGeometry x="730" y="255" width="130" height="75" as="geometry"/>
                </mxCell>
                <mxCell id="SOIeBWDmBt10avhGpR6U-31" value="EMPRUNTER" style="text;html=1;strokeColor=none;fillColor=none;align=center;verticalAlign=middle;whiteSpace=wrap;rounded=0;" parent="1" vertex="1">
                    <mxGeometry x="495" y="575" width="60" height="30" as="geometry"/>
                </mxCell>
                <mxCell id="SOIeBWDmBt10avhGpR6U-32" value="PERMETTRE" style="text;html=1;strokeColor=none;fillColor=none;align=center;verticalAlign=middle;whiteSpace=wrap;rounded=0;" parent="1" vertex="1">
                    <mxGeometry x="765" y="277.5" width="60" height="30" as="geometry"/>
                </mxCell>
                <mxCell id="SOIeBWDmBt10avhGpR6U-33" value="SOUSCRIRE" style="text;html=1;strokeColor=none;fillColor=none;align=center;verticalAlign=middle;whiteSpace=wrap;rounded=0;" parent="1" vertex="1">
                    <mxGeometry x="380" y="65" width="60" height="30" as="geometry"/>
                </mxCell>
                <mxCell id="SOIeBWDmBt10avhGpR6U-34" value="1,1" style="text;html=1;strokeColor=none;fillColor=none;align=center;verticalAlign=middle;whiteSpace=wrap;rounded=0;" parent="1" vertex="1">
                    <mxGeometry x="274" y="170" width="60" height="30" as="geometry"/>
                </mxCell>
                <mxCell id="SOIeBWDmBt10avhGpR6U-35" value="0.n" style="text;html=1;strokeColor=none;fillColor=none;align=center;verticalAlign=middle;whiteSpace=wrap;rounded=0;" parent="1" vertex="1">
                    <mxGeometry x="35" y="330" width="60" height="30" as="geometry"/>
                </mxCell>
                <mxCell id="SOIeBWDmBt10avhGpR6U-36" value="1.1" style="text;html=1;strokeColor=none;fillColor=none;align=center;verticalAlign=middle;whiteSpace=wrap;rounded=0;" parent="1" vertex="1">
                    <mxGeometry x="50" y="200" width="60" height="30" as="geometry"/>
                </mxCell>
                <mxCell id="SOIeBWDmBt10avhGpR6U-37" value="0,n" style="text;html=1;strokeColor=none;fillColor=none;align=center;verticalAlign=middle;whiteSpace=wrap;rounded=0;" parent="1" vertex="1">
                    <mxGeometry x="635" y="132.5" width="60" height="30" as="geometry"/>
                </mxCell>
                <mxCell id="SOIeBWDmBt10avhGpR6U-38" value="1,n" style="text;html=1;strokeColor=none;fillColor=none;align=center;verticalAlign=middle;whiteSpace=wrap;rounded=0;" parent="1" vertex="1">
                    <mxGeometry x="1118" y="307.5" width="60" height="30" as="geometry"/>
                </mxCell>
                <mxCell id="SOIeBWDmBt10avhGpR6U-39" value="&lt;span style=&quot;color: rgba(0 , 0 , 0 , 0) ; font-family: monospace ; font-size: 0px&quot;&gt;%3CmxGraphModel%3E%3Croot%3E%3CmxCell%20id%3D%220%22%2F%3E%3CmxCell%20id%3D%221%22%20parent%3D%220%22%2F%3E%3CmxCell%20id%3D%222%22%20value%3D%22PRIX_J_PRENALITER%22%20style%3D%22text%3Balign%3Dleft%3BverticalAlign%3Dtop%3BspacingLeft%3D4%3BspacingRight%3D4%3Boverflow%3Dhidden%3Brotatable%3D0%3Bpoints%3D%5B%5B0%2C0.5%5D%2C%5B1%2C0.5%5D%5D%3BportConstraint%3Deastwest%3B%22%20vertex%3D%221%22%20parent%3D%221%22%3E%3CmxGeometry%20x%3D%22230%22%20y%3D%22362%22%20width%3D%22160%22%20height%3D%2226%22%20as%3D%22geometry%22%2F%3E%3C%2FmxCell%3E%3C%2Froot%3E%3C%2FmxGraphModel%3E&lt;/span&gt;" style="ellipse;whiteSpace=wrap;html=1;" parent="1" vertex="1">
                    <mxGeometry x="790" y="50" width="130" height="60" as="geometry"/>
                </mxCell>
                <mxCell id="SOIeBWDmBt10avhGpR6U-40" value="" style="endArrow=none;html=1;rounded=0;entryX=0;entryY=0.5;entryDx=0;entryDy=0;exitX=1;exitY=0.5;exitDx=0;exitDy=0;" parent="1" source="SOIeBWDmBt10avhGpR6U-10" target="SOIeBWDmBt10avhGpR6U-39" edge="1">
                    <mxGeometry width="50" height="50" relative="1" as="geometry">
                        <mxPoint x="580" y="350" as="sourcePoint"/>
                        <mxPoint x="630" y="300" as="targetPoint"/>
                    </mxGeometry>
                </mxCell>
                <mxCell id="SOIeBWDmBt10avhGpR6U-41" value="CHOISIR" style="text;html=1;strokeColor=none;fillColor=none;align=center;verticalAlign=middle;whiteSpace=wrap;rounded=0;" parent="1" vertex="1">
                    <mxGeometry x="825" y="65" width="60" height="30" as="geometry"/>
                </mxCell>
                <mxCell id="SOIeBWDmBt10avhGpR6U-42" value="TYPE_ABONEMENTÂ " style="swimlane;fontStyle=0;align=center;verticalAlign=top;childLayout=stackLayout;horizontal=1;startSize=26;horizontalStack=0;resizeParent=1;resizeLast=0;collapsible=1;marginBottom=0;rounded=0;shadow=0;strokeWidth=1;" parent="1" vertex="1">
                    <mxGeometry x="1000" y="20" width="160" height="110" as="geometry">
                        <mxRectangle x="70" y="410" width="170" height="26" as="alternateBounds"/>
                    </mxGeometry>
                </mxCell>
                <mxCell id="SOIeBWDmBt10avhGpR6U-43" value="ID TYPE abonnement" style="text;align=left;verticalAlign=top;spacingLeft=4;spacingRight=4;overflow=hidden;rotatable=0;points=[[0,0.5],[1,0.5]];portConstraint=eastwest;strokeColor=#FF0000;" parent="SOIeBWDmBt10avhGpR6U-42" vertex="1">
                    <mxGeometry y="26" width="160" height="26" as="geometry"/>
                </mxCell>
                <mxCell id="SOIeBWDmBt10avhGpR6U-44" value="PRIX_PAR_MOIS" style="text;align=left;verticalAlign=top;spacingLeft=4;spacingRight=4;overflow=hidden;rotatable=0;points=[[0,0.5],[1,0.5]];portConstraint=eastwest;" parent="SOIeBWDmBt10avhGpR6U-42" vertex="1">
                    <mxGeometry y="52" width="160" height="26" as="geometry"/>
                </mxCell>
                <mxCell id="SOIeBWDmBt10avhGpR6U-45" value="NOMBRE_EMPRUNT" style="text;align=left;verticalAlign=top;spacingLeft=4;spacingRight=4;overflow=hidden;rotatable=0;points=[[0,0.5],[1,0.5]];portConstraint=eastwest;" parent="SOIeBWDmBt10avhGpR6U-42" vertex="1">
                    <mxGeometry y="78" width="160" height="26" as="geometry"/>
                </mxCell>
                <mxCell id="SOIeBWDmBt10avhGpR6U-46" value="" style="endArrow=none;html=1;rounded=0;entryX=-0.019;entryY=0.269;entryDx=0;entryDy=0;exitX=1;exitY=0.5;exitDx=0;exitDy=0;entryPerimeter=0;" parent="1" source="SOIeBWDmBt10avhGpR6U-39" target="SOIeBWDmBt10avhGpR6U-44" edge="1">
                    <mxGeometry width="50" height="50" relative="1" as="geometry">
                        <mxPoint x="1020" y="79.5" as="sourcePoint"/>
                        <mxPoint x="1133" y="79.5" as="targetPoint"/>
                    </mxGeometry>
                </mxCell>
                <mxCell id="SOIeBWDmBt10avhGpR6U-47" value="PENALITE" style="swimlane;fontStyle=0;align=center;verticalAlign=top;childLayout=stackLayout;horizontal=1;startSize=26;horizontalStack=0;resizeParent=1;resizeLast=0;collapsible=1;marginBottom=0;rounded=0;shadow=0;strokeWidth=1;" parent="1" vertex="1">
                    <mxGeometry x="1420" y="613.5" width="160" height="110" as="geometry">
                        <mxRectangle x="340" y="380" width="170" height="26" as="alternateBounds"/>
                    </mxGeometry>
                </mxCell>
                <mxCell id="SOIeBWDmBt10avhGpR6U-48" value="ID_PENALITE" style="text;align=left;verticalAlign=top;spacingLeft=4;spacingRight=4;overflow=hidden;rotatable=0;points=[[0,0.5],[1,0.5]];portConstraint=eastwest;strokeColor=#FF0000;" parent="SOIeBWDmBt10avhGpR6U-47" vertex="1">
                    <mxGeometry y="26" width="160" height="26" as="geometry"/>
                </mxCell>
                <mxCell id="SOIeBWDmBt10avhGpR6U-49" value="TYPE_OBJET" style="text;align=left;verticalAlign=top;spacingLeft=4;spacingRight=4;overflow=hidden;rotatable=0;points=[[0,0.5],[1,0.5]];portConstraint=eastwest;strokeColor=none;" parent="SOIeBWDmBt10avhGpR6U-47" vertex="1">
                    <mxGeometry y="52" width="160" height="26" as="geometry"/>
                </mxCell>
                <mxCell id="SOIeBWDmBt10avhGpR6U-50" value="PRIX_J_PENALITER" style="text;align=left;verticalAlign=top;spacingLeft=4;spacingRight=4;overflow=hidden;rotatable=0;points=[[0,0.5],[1,0.5]];portConstraint=eastwest;" parent="SOIeBWDmBt10avhGpR6U-47" vertex="1">
                    <mxGeometry y="78" width="160" height="26" as="geometry"/>
                </mxCell>
                <mxCell id="SOIeBWDmBt10avhGpR6U-51" value="&lt;span style=&quot;color: rgba(0 , 0 , 0 , 0) ; font-family: monospace ; font-size: 0px&quot;&gt;%3CmxGraphModel%3E%3Croot%3E%3CmxCell%20id%3D%220%22%2F%3E%3CmxCell%20id%3D%221%22%20parent%3D%220%22%2F%3E%3CmxCell%20id%3D%222%22%20value%3D%22PRIX_J_PRENALITER%22%20style%3D%22text%3Balign%3Dleft%3BverticalAlign%3Dtop%3BspacingLeft%3D4%3BspacingRight%3D4%3Boverflow%3Dhidden%3Brotatable%3D0%3Bpoints%3D%5B%5B0%2C0.5%5D%2C%5B1%2C0.5%5D%5D%3BportConstraint%3Deastwest%3B%22%20vertex%3D%221%22%20parent%3D%221%22%3E%3CmxGeometry%20x%3D%22230%22%20y%3D%22362%22%20width%3D%22160%22%20height%3D%2226%22%20as%3D%22geometry%22%2F%3E%3C%2FmxCell%3E%3C%2Froot%3E%3C%2FmxGraphModel%3E&lt;/span&gt;" style="ellipse;whiteSpace=wrap;html=1;" parent="1" vertex="1">
                    <mxGeometry x="1099" y="557.5" width="130" height="60" as="geometry"/>
                </mxCell>
                <mxCell id="SOIeBWDmBt10avhGpR6U-52" value="PAYER" style="text;html=1;strokeColor=none;fillColor=none;align=center;verticalAlign=middle;whiteSpace=wrap;rounded=0;" parent="1" vertex="1">
                    <mxGeometry x="1135" y="572.5" width="58" height="30" as="geometry"/>
                </mxCell>
                <mxCell id="SOIeBWDmBt10avhGpR6U-53" value="1,1" style="text;html=1;strokeColor=none;fillColor=none;align=center;verticalAlign=middle;whiteSpace=wrap;rounded=0;" parent="1" vertex="1">
                    <mxGeometry x="881" y="555" width="60" height="30" as="geometry"/>
                </mxCell>
                <mxCell id="SOIeBWDmBt10avhGpR6U-54" value="CatÃ©gorie socialÂ " style="swimlane;fontStyle=0;align=center;verticalAlign=top;childLayout=stackLayout;horizontal=1;startSize=26;horizontalStack=0;resizeParent=1;resizeLast=0;collapsible=1;marginBottom=0;rounded=0;shadow=0;strokeWidth=1;" parent="1" vertex="1">
                    <mxGeometry x="246" y="367.5" width="160" height="90" as="geometry">
                        <mxRectangle x="70" y="410" width="170" height="26" as="alternateBounds"/>
                    </mxGeometry>
                </mxCell>
                <mxCell id="SOIeBWDmBt10avhGpR6U-55" value="ID_Categorie social" style="text;align=left;verticalAlign=top;spacingLeft=4;spacingRight=4;overflow=hidden;rotatable=0;points=[[0,0.5],[1,0.5]];portConstraint=eastwest;strokeColor=#FF0000;" parent="SOIeBWDmBt10avhGpR6U-54" vertex="1">
                    <mxGeometry y="26" width="160" height="26" as="geometry"/>
                </mxCell>
                <mxCell id="SOIeBWDmBt10avhGpR6U-56" value="Categorie social" style="text;align=left;verticalAlign=top;spacingLeft=4;spacingRight=4;overflow=hidden;rotatable=0;points=[[0,0.5],[1,0.5]];portConstraint=eastwest;strokeColor=none;" parent="SOIeBWDmBt10avhGpR6U-54" vertex="1">
                    <mxGeometry y="52" width="160" height="26" as="geometry"/>
                </mxCell>
                <mxCell id="SOIeBWDmBt10avhGpR6U-57" value="" style="endArrow=none;html=1;rounded=0;entryX=0;entryY=0.5;entryDx=0;entryDy=0;exitX=1;exitY=0.5;exitDx=0;exitDy=0;" parent="1" target="SOIeBWDmBt10avhGpR6U-51" edge="1">
                    <mxGeometry width="50" height="50" relative="1" as="geometry">
                        <mxPoint x="881" y="584.9999999999998" as="sourcePoint"/>
                        <mxPoint x="801" y="840" as="targetPoint"/>
                        <Array as="points"/>
                    </mxGeometry>
                </mxCell>
                <mxCell id="SOIeBWDmBt10avhGpR6U-58" value="0.n" style="resizable=0;align=right;verticalAlign=bottom;labelBackgroundColor=none;fontSize=12;" parent="1" connectable="0" vertex="1">
                    <mxGeometry x="727.0009715952062" y="67.5" as="geometry">
                        <mxPoint x="261" y="9" as="offset"/>
                    </mxGeometry>
                </mxCell>
                <mxCell id="SOIeBWDmBt10avhGpR6U-59" value="1.1" style="resizable=0;align=right;verticalAlign=bottom;labelBackgroundColor=none;fontSize=12;" parent="1" connectable="0" vertex="1">
                    <mxGeometry x="980.0009715952062" y="102.5" as="geometry">
                        <mxPoint x="-239" y="-26" as="offset"/>
                    </mxGeometry>
                </mxCell>
                <mxCell id="SOIeBWDmBt10avhGpR6U-60" value="" style="endArrow=none;html=1;exitX=1;exitY=0.5;exitDx=0;exitDy=0;entryX=0;entryY=0.5;entryDx=0;entryDy=0;" parent="1" source="SOIeBWDmBt10avhGpR6U-12" target="SOIeBWDmBt10avhGpR6U-10" edge="1">
                    <mxGeometry width="50" height="50" relative="1" as="geometry">
                        <mxPoint x="420" y="160" as="sourcePoint"/>
                        <mxPoint x="780" y="140" as="targetPoint"/>
                    </mxGeometry>
                </mxCell>
                <mxCell id="SOIeBWDmBt10avhGpR6U-61" value="1. 1" style="resizable=0;align=right;verticalAlign=bottom;labelBackgroundColor=none;fontSize=12;" parent="1" connectable="0" vertex="1">
                    <mxGeometry x="549.9980470851783" y="79.9978947368422" as="geometry"/>
                </mxCell>
                <mxCell id="SOIeBWDmBt10avhGpR6U-62" value="&lt;span style=&quot;color: rgba(0 , 0 , 0 , 0) ; font-family: monospace ; font-size: 0px&quot;&gt;%3CmxGraphModel%3E%3Croot%3E%3CmxCell%20id%3D%220%22%2F%3E%3CmxCell%20id%3D%221%22%20parent%3D%220%22%2F%3E%3CmxCell%20id%3D%222%22%20value%3D%22PRIX_J_PRENALITER%22%20style%3D%22text%3Balign%3Dleft%3BverticalAlign%3Dtop%3BspacingLeft%3D4%3BspacingRight%3D4%3Boverflow%3Dhidden%3Brotatable%3D0%3Bpoints%3D%5B%5B0%2C0.5%5D%2C%5B1%2C0.5%5D%5D%3BportConstraint%3Deastwest%3B%22%20vertex%3D%221%22%20parent%3D%221%22%3E%3CmxGeometry%20x%3D%22230%22%20y%3D%22362%22%20width%3D%22160%22%20height%3D%2226%22%20as%3D%22geometry%22%2F%3E%3C%2FmxCell%3E%3C%2Froot%3E%3C%2FmxGraphModel%3E&lt;/span&gt;" style="ellipse;whiteSpace=wrap;html=1;" parent="1" vertex="1">
                    <mxGeometry x="35" y="240" width="130" height="60" as="geometry"/>
                </mxCell>
                <mxCell id="SOIeBWDmBt10avhGpR6U-63" value="HABITER" style="text;html=1;strokeColor=none;fillColor=none;align=center;verticalAlign=middle;whiteSpace=wrap;rounded=0;" parent="1" vertex="1">
                    <mxGeometry x="70" y="255" width="60" height="30" as="geometry"/>
                </mxCell>
                <mxCell id="SOIeBWDmBt10avhGpR6U-64" value="&lt;div style=&quot;box-sizing: border-box ; font-family: &amp;#34;segoe ui&amp;#34; , , &amp;#34;apple color emoji&amp;#34; , &amp;#34;segoe ui emoji&amp;#34; , sans-serif&quot;&gt;&lt;font style=&quot;font-size: 14px&quot;&gt;&lt;span itemscope=&quot;&quot; class=&quot;at-mentions-focus lpc-hoverTarget&quot; tabindex=&quot;0&quot;&gt;GROUPE 5 - 3SRC1&lt;/span&gt;&lt;/font&gt;&lt;/div&gt;&lt;div style=&quot;box-sizing: border-box ; font-family: &amp;#34;segoe ui&amp;#34; , , &amp;#34;apple color emoji&amp;#34; , &amp;#34;segoe ui emoji&amp;#34; , sans-serif&quot;&gt;&lt;font size=&quot;3&quot;&gt;&lt;span itemscope=&quot;&quot; class=&quot;at-mentions-focus lpc-hoverTarget&quot; tabindex=&quot;0&quot;&gt;Maxime HABERMANN&lt;/span&gt;&lt;/font&gt;&lt;/div&gt;&lt;div style=&quot;box-sizing: border-box ; font-family: &amp;#34;segoe ui&amp;#34; , , &amp;#34;apple color emoji&amp;#34; , &amp;#34;segoe ui emoji&amp;#34; , sans-serif&quot;&gt;&lt;font size=&quot;3&quot;&gt;&lt;span itemscope=&quot;&quot; class=&quot;mention-me at-mentions-focus lpc-hoverTarget&quot; tabindex=&quot;0&quot;&gt;Mukilventhan GEORGE&lt;/span&gt;&lt;/font&gt;&lt;/div&gt;&lt;div style=&quot;box-sizing: border-box ; font-family: &amp;#34;segoe ui&amp;#34; , , &amp;#34;apple color emoji&amp;#34; , &amp;#34;segoe ui emoji&amp;#34; , sans-serif&quot;&gt;&lt;font size=&quot;3&quot;&gt;&lt;span itemscope=&quot;&quot; class=&quot;at-mentions-focus lpc-hoverTarget&quot; tabindex=&quot;0&quot;&gt;Mohamed WAZANE&lt;/span&gt;&lt;/font&gt;&lt;/div&gt;&lt;div style=&quot;box-sizing: border-box ; font-family: &amp;#34;segoe ui&amp;#34; , , &amp;#34;apple color emoji&amp;#34; , &amp;#34;segoe ui emoji&amp;#34; , sans-serif&quot;&gt;&lt;font size=&quot;3&quot;&gt;ThÃ©o PAYEN&lt;/font&gt;&lt;/div&gt;" style="rounded=0;whiteSpace=wrap;html=1;shadow=0;fontColor=#000000;fillColor=default;gradientColor=none;" parent="1" vertex="1">
                    <mxGeometry x="1285" y="145" width="200" height="140" as="geometry"/>
                </mxCell>
                <mxCell id="SOIeBWDmBt10avhGpR6U-65" value="&lt;span style=&quot;color: rgba(0 , 0 , 0 , 0) ; font-family: monospace ; font-size: 0px&quot;&gt;%3CmxGraphModel%3E%3Croot%3E%3CmxCell%20id%3D%220%22%2F%3E%3CmxCell%20id%3D%221%22%20parent%3D%220%22%2F%3E%3CmxCell%20id%3D%222%22%20value%3D%22PRIX_J_PRENALITER%22%20style%3D%22text%3Balign%3Dleft%3BverticalAlign%3Dtop%3BspacingLeft%3D4%3BspacingRight%3D4%3Boverflow%3Dhidden%3Brotatable%3D0%3Bpoints%3D%5B%5B0%2C0.5%5D%2C%5B1%2C0.5%5D%5D%3BportConstraint%3Deastwest%3B%22%20vertex%3D%221%22%20parent%3D%221%22%3E%3CmxGeometry%20x%3D%22230%22%20y%3D%22362%22%20width%3D%22160%22%20height%3D%2226%22%20as%3D%22geometry%22%2F%3E%3C%2FmxCell%3E%3C%2Froot%3E%3C%2FmxGraphModel%3E&lt;/span&gt;" style="ellipse;whiteSpace=wrap;html=1;" parent="1" vertex="1">
                    <mxGeometry x="260" y="240" width="130" height="60" as="geometry"/>
                </mxCell>
                <mxCell id="SOIeBWDmBt10avhGpR6U-66" value="APPARTENIR" style="text;html=1;strokeColor=none;fillColor=none;align=center;verticalAlign=middle;whiteSpace=wrap;rounded=0;" parent="1" vertex="1">
                    <mxGeometry x="295" y="255" width="60" height="30" as="geometry"/>
                </mxCell>
                <mxCell id="SOIeBWDmBt10avhGpR6U-67" value="" style="endArrow=none;html=1;exitX=1;exitY=1;exitDx=0;exitDy=0;entryX=0.5;entryY=0;entryDx=0;entryDy=0;" parent="1" source="SOIeBWDmBt10avhGpR6U-2" target="SOIeBWDmBt10avhGpR6U-65" edge="1">
                    <mxGeometry width="50" height="50" relative="1" as="geometry">
                        <mxPoint x="359.44000000000005" y="165.70000000000005" as="sourcePoint"/>
                        <mxPoint x="400" y="295" as="targetPoint"/>
                        <Array as="points"/>
                    </mxGeometry>
                </mxCell>
                <mxCell id="SOIeBWDmBt10avhGpR6U-68" value="GENRE" style="swimlane;fontStyle=0;align=center;verticalAlign=top;childLayout=stackLayout;horizontal=1;startSize=26;horizontalStack=0;resizeParent=1;resizeLast=0;collapsible=1;marginBottom=0;rounded=0;shadow=0;strokeWidth=1;" parent="1" vertex="1">
                    <mxGeometry x="723" y="1430" width="160" height="90" as="geometry">
                        <mxRectangle x="340" y="380" width="170" height="26" as="alternateBounds"/>
                    </mxGeometry>
                </mxCell>
                <mxCell id="SOIeBWDmBt10avhGpR6U-69" value="ID_GENRE" style="text;align=left;verticalAlign=top;spacingLeft=4;spacingRight=4;overflow=hidden;rotatable=0;points=[[0,0.5],[1,0.5]];portConstraint=eastwest;strokeColor=#FF0000;" parent="SOIeBWDmBt10avhGpR6U-68" vertex="1">
                    <mxGeometry y="26" width="160" height="26" as="geometry"/>
                </mxCell>
                <mxCell id="SOIeBWDmBt10avhGpR6U-70" value="GENRE" style="text;align=left;verticalAlign=top;spacingLeft=4;spacingRight=4;overflow=hidden;rotatable=0;points=[[0,0.5],[1,0.5]];portConstraint=eastwest;" parent="SOIeBWDmBt10avhGpR6U-68" vertex="1">
                    <mxGeometry y="52" width="160" height="26" as="geometry"/>
                </mxCell>
                <mxCell id="SOIeBWDmBt10avhGpR6U-71" value="&lt;span style=&quot;color: rgba(0 , 0 , 0 , 0) ; font-family: monospace ; font-size: 0px&quot;&gt;%3CmxGraphModel%3E%3Croot%3E%3CmxCell%20id%3D%220%22%2F%3E%3CmxCell%20id%3D%221%22%20parent%3D%220%22%2F%3E%3CmxCell%20id%3D%222%22%20value%3D%22PRIX_J_PRENALITER%22%20style%3D%22text%3Balign%3Dleft%3BverticalAlign%3Dtop%3BspacingLeft%3D4%3BspacingRight%3D4%3Boverflow%3Dhidden%3Brotatable%3D0%3Bpoints%3D%5B%5B0%2C0.5%5D%2C%5B1%2C0.5%5D%5D%3BportConstraint%3Deastwest%3B%22%20vertex%3D%221%22%20parent%3D%221%22%3E%3CmxGeometry%20x%3D%22230%22%20y%3D%22362%22%20width%3D%22160%22%20height%3D%2226%22%20as%3D%22geometry%22%2F%3E%3C%2FmxCell%3E%3C%2Froot%3E%3C%2FmxGraphModel%3E&lt;/span&gt;" style="ellipse;whiteSpace=wrap;html=1;" parent="1" vertex="1">
                    <mxGeometry x="1055" y="1010" width="130" height="60" as="geometry"/>
                </mxCell>
                <mxCell id="SOIeBWDmBt10avhGpR6U-72" value="ECOUTER" style="text;html=1;strokeColor=none;fillColor=none;align=center;verticalAlign=middle;whiteSpace=wrap;rounded=0;" parent="1" vertex="1">
                    <mxGeometry x="1090" y="1025" width="60" height="30" as="geometry"/>
                </mxCell>
                <mxCell id="SOIeBWDmBt10avhGpR6U-73" value="" style="endArrow=none;html=1;entryX=0.5;entryY=0;entryDx=0;entryDy=0;exitX=0;exitY=1;exitDx=0;exitDy=0;" parent="1" source="SOIeBWDmBt10avhGpR6U-2" target="SOIeBWDmBt10avhGpR6U-62" edge="1">
                    <mxGeometry width="50" height="50" relative="1" as="geometry">
                        <mxPoint x="365" y="233" as="sourcePoint"/>
                        <mxPoint x="366" y="360" as="targetPoint"/>
                        <Array as="points"/>
                    </mxGeometry>
                </mxCell>
                <mxCell id="SOIeBWDmBt10avhGpR6U-74" value="" style="endArrow=none;html=1;entryX=0.5;entryY=0;entryDx=0;entryDy=0;exitX=0;exitY=1;exitDx=0;exitDy=0;" parent="1" target="SOIeBWDmBt10avhGpR6U-25" edge="1">
                    <mxGeometry width="50" height="50" relative="1" as="geometry">
                        <mxPoint x="100" y="300" as="sourcePoint"/>
                        <mxPoint x="100" y="420" as="targetPoint"/>
                        <Array as="points"/>
                    </mxGeometry>
                </mxCell>
                <mxCell id="SOIeBWDmBt10avhGpR6U-75" value="&lt;span style=&quot;color: rgba(0 , 0 , 0 , 0) ; font-family: monospace ; font-size: 0px&quot;&gt;%3CmxGraphModel%3E%3Croot%3E%3CmxCell%20id%3D%220%22%2F%3E%3CmxCell%20id%3D%221%22%20parent%3D%220%22%2F%3E%3CmxCell%20id%3D%222%22%20value%3D%22PRIX_J_PRENALITER%22%20style%3D%22text%3Balign%3Dleft%3BverticalAlign%3Dtop%3BspacingLeft%3D4%3BspacingRight%3D4%3Boverflow%3Dhidden%3Brotatable%3D0%3Bpoints%3D%5B%5B0%2C0.5%5D%2C%5B1%2C0.5%5D%5D%3BportConstraint%3Deastwest%3B%22%20vertex%3D%221%22%20parent%3D%221%22%3E%3CmxGeometry%20x%3D%22230%22%20y%3D%22362%22%20width%3D%22160%22%20height%3D%2226%22%20as%3D%22geometry%22%2F%3E%3C%2FmxCell%3E%3C%2Froot%3E%3C%2FmxGraphModel%3E&lt;/span&gt;" style="ellipse;whiteSpace=wrap;html=1;" parent="1" vertex="1">
                    <mxGeometry x="970" y="1335" width="130" height="60" as="geometry"/>
                </mxCell>
                <mxCell id="SOIeBWDmBt10avhGpR6U-76" value="PRODUIRE" style="text;html=1;strokeColor=none;fillColor=none;align=center;verticalAlign=middle;whiteSpace=wrap;rounded=0;" parent="1" vertex="1">
                    <mxGeometry x="1005" y="1350" width="60" height="30" as="geometry"/>
                </mxCell>
                <mxCell id="SOIeBWDmBt10avhGpR6U-77" value="&lt;span style=&quot;color: rgba(0 , 0 , 0 , 0) ; font-family: monospace ; font-size: 0px&quot;&gt;%3CmxGraphModel%3E%3Croot%3E%3CmxCell%20id%3D%220%22%2F%3E%3CmxCell%20id%3D%221%22%20parent%3D%220%22%2F%3E%3CmxCell%20id%3D%222%22%20value%3D%22PRIX_J_PRENALITER%22%20style%3D%22text%3Balign%3Dleft%3BverticalAlign%3Dtop%3BspacingLeft%3D4%3BspacingRight%3D4%3Boverflow%3Dhidden%3Brotatable%3D0%3Bpoints%3D%5B%5B0%2C0.5%5D%2C%5B1%2C0.5%5D%5D%3BportConstraint%3Deastwest%3B%22%20vertex%3D%221%22%20parent%3D%221%22%3E%3CmxGeometry%20x%3D%22230%22%20y%3D%22362%22%20width%3D%22160%22%20height%3D%2226%22%20as%3D%22geometry%22%2F%3E%3C%2FmxCell%3E%3C%2Froot%3E%3C%2FmxGraphModel%3E&lt;/span&gt;" style="ellipse;whiteSpace=wrap;html=1;" parent="1" vertex="1">
                    <mxGeometry x="1215" y="1335" width="130" height="60" as="geometry"/>
                </mxCell>
                <mxCell id="SOIeBWDmBt10avhGpR6U-78" value="COMPOSER" style="text;html=1;strokeColor=none;fillColor=none;align=center;verticalAlign=middle;whiteSpace=wrap;rounded=0;" parent="1" vertex="1">
                    <mxGeometry x="1249" y="1350" width="60" height="30" as="geometry"/>
                </mxCell>
                <mxCell id="SOIeBWDmBt10avhGpR6U-79" value="" style="endArrow=none;html=1;exitX=0.5;exitY=1;exitDx=0;exitDy=0;entryX=0.5;entryY=0;entryDx=0;entryDy=0;" parent="1" source="SOIeBWDmBt10avhGpR6U-30" target="SOIeBWDmBt10avhGpR6U-124" edge="1">
                    <mxGeometry width="50" height="50" relative="1" as="geometry">
                        <mxPoint x="40" y="487" as="sourcePoint"/>
                        <mxPoint x="1070" y="360" as="targetPoint"/>
                        <Array as="points"/>
                    </mxGeometry>
                </mxCell>
                <mxCell id="SOIeBWDmBt10avhGpR6U-80" value="&lt;span style=&quot;color: rgba(0 , 0 , 0 , 0) ; font-family: monospace ; font-size: 0px&quot;&gt;%3CmxGraphModel%3E%3Croot%3E%3CmxCell%20id%3D%220%22%2F%3E%3CmxCell%20id%3D%221%22%20parent%3D%220%22%2F%3E%3CmxCell%20id%3D%222%22%20value%3D%22PRIX_J_PRENALITER%22%20style%3D%22text%3Balign%3Dleft%3BverticalAlign%3Dtop%3BspacingLeft%3D4%3BspacingRight%3D4%3Boverflow%3Dhidden%3Brotatable%3D0%3Bpoints%3D%5B%5B0%2C0.5%5D%2C%5B1%2C0.5%5D%5D%3BportConstraint%3Deastwest%3B%22%20vertex%3D%221%22%20parent%3D%221%22%3E%3CmxGeometry%20x%3D%22230%22%20y%3D%22362%22%20width%3D%22160%22%20height%3D%2226%22%20as%3D%22geometry%22%2F%3E%3C%2FmxCell%3E%3C%2Froot%3E%3C%2FmxGraphModel%3E&lt;/span&gt;" style="ellipse;whiteSpace=wrap;html=1;" parent="1" vertex="1">
                    <mxGeometry x="741" y="1240" width="130" height="60" as="geometry"/>
                </mxCell>
                <mxCell id="SOIeBWDmBt10avhGpR6U-81" value="CATEGORISER" style="text;html=1;strokeColor=none;fillColor=none;align=center;verticalAlign=middle;whiteSpace=wrap;rounded=0;" parent="1" vertex="1">
                    <mxGeometry x="776" y="1255" width="60" height="30" as="geometry"/>
                </mxCell>
                <mxCell id="SOIeBWDmBt10avhGpR6U-82" value="&lt;span style=&quot;color: rgba(0 , 0 , 0 , 0) ; font-family: monospace ; font-size: 0px&quot;&gt;%3CmxGraphModel%3E%3Croot%3E%3CmxCell%20id%3D%220%22%2F%3E%3CmxCell%20id%3D%221%22%20parent%3D%220%22%2F%3E%3CmxCell%20id%3D%222%22%20value%3D%22PRIX_J_PRENALITER%22%20style%3D%22text%3Balign%3Dleft%3BverticalAlign%3Dtop%3BspacingLeft%3D4%3BspacingRight%3D4%3Boverflow%3Dhidden%3Brotatable%3D0%3Bpoints%3D%5B%5B0%2C0.5%5D%2C%5B1%2C0.5%5D%5D%3BportConstraint%3Deastwest%3B%22%20vertex%3D%221%22%20parent%3D%221%22%3E%3CmxGeometry%20x%3D%22230%22%20y%3D%22362%22%20width%3D%22160%22%20height%3D%2226%22%20as%3D%22geometry%22%2F%3E%3C%2FmxCell%3E%3C%2Froot%3E%3C%2FmxGraphModel%3E&lt;/span&gt;" style="ellipse;whiteSpace=wrap;html=1;" parent="1" vertex="1">
                    <mxGeometry x="501" y="1340" width="130" height="60" as="geometry"/>
                </mxCell>
                <mxCell id="SOIeBWDmBt10avhGpR6U-83" value="JOUER" style="text;html=1;strokeColor=none;fillColor=none;align=center;verticalAlign=middle;whiteSpace=wrap;rounded=0;" parent="1" vertex="1">
                    <mxGeometry x="536" y="1355" width="60" height="30" as="geometry"/>
                </mxCell>
                <mxCell id="SOIeBWDmBt10avhGpR6U-84" value="&lt;span style=&quot;color: rgba(0 , 0 , 0 , 0) ; font-family: monospace ; font-size: 0px&quot;&gt;%3CmxGraphModel%3E%3Croot%3E%3CmxCell%20id%3D%220%22%2F%3E%3CmxCell%20id%3D%221%22%20parent%3D%220%22%2F%3E%3CmxCell%20id%3D%222%22%20value%3D%22PRIX_J_PRENALITER%22%20style%3D%22text%3Balign%3Dleft%3BverticalAlign%3Dtop%3BspacingLeft%3D4%3BspacingRight%3D4%3Boverflow%3Dhidden%3Brotatable%3D0%3Bpoints%3D%5B%5B0%2C0.5%5D%2C%5B1%2C0.5%5D%5D%3BportConstraint%3Deastwest%3B%22%20vertex%3D%221%22%20parent%3D%221%22%3E%3CmxGeometry%20x%3D%22230%22%20y%3D%22362%22%20width%3D%22160%22%20height%3D%2226%22%20as%3D%22geometry%22%2F%3E%3C%2FmxCell%3E%3C%2Froot%3E%3C%2FmxGraphModel%3E&lt;/span&gt;" style="ellipse;whiteSpace=wrap;html=1;" parent="1" vertex="1">
                    <mxGeometry x="200" y="1235" width="130" height="60" as="geometry"/>
                </mxCell>
                <mxCell id="SOIeBWDmBt10avhGpR6U-85" value="CONCEVOIR" style="text;html=1;strokeColor=none;fillColor=none;align=center;verticalAlign=middle;whiteSpace=wrap;rounded=0;" parent="1" vertex="1">
                    <mxGeometry x="235" y="1250" width="60" height="30" as="geometry"/>
                </mxCell>
                <mxCell id="SOIeBWDmBt10avhGpR6U-86" value="" style="endArrow=none;html=1;rounded=0;entryX=0.5;entryY=1;entryDx=0;entryDy=0;exitX=0.5;exitY=0;exitDx=0;exitDy=0;" parent="1" source="SOIeBWDmBt10avhGpR6U-28" target="SOIeBWDmBt10avhGpR6U-101" edge="1">
                    <mxGeometry width="50" height="50" relative="1" as="geometry">
                        <mxPoint x="641" y="1015" as="sourcePoint"/>
                        <mxPoint x="1051" y="935.9999999999998" as="targetPoint"/>
                        <Array as="points"/>
                    </mxGeometry>
                </mxCell>
                <mxCell id="SOIeBWDmBt10avhGpR6U-87" value="" style="endArrow=none;html=1;rounded=0;exitX=0.5;exitY=0;exitDx=0;exitDy=0;entryX=0.5;entryY=1;entryDx=0;entryDy=0;" parent="1" source="SOIeBWDmBt10avhGpR6U-19" target="SOIeBWDmBt10avhGpR6U-28" edge="1">
                    <mxGeometry width="50" height="50" relative="1" as="geometry">
                        <mxPoint x="1180" y="1087.5" as="sourcePoint"/>
                        <mxPoint x="726" y="1070" as="targetPoint"/>
                        <Array as="points"/>
                    </mxGeometry>
                </mxCell>
                <mxCell id="SOIeBWDmBt10avhGpR6U-88" value="" style="endArrow=none;html=1;rounded=0;entryX=0.5;entryY=0;entryDx=0;entryDy=0;exitX=0.5;exitY=1;exitDx=0;exitDy=0;" parent="1" source="SOIeBWDmBt10avhGpR6U-71" target="SOIeBWDmBt10avhGpR6U-22" edge="1">
                    <mxGeometry width="50" height="50" relative="1" as="geometry">
                        <mxPoint x="1430" y="930" as="sourcePoint"/>
                        <mxPoint x="1420" y="988.9999999999998" as="targetPoint"/>
                        <Array as="points"/>
                    </mxGeometry>
                </mxCell>
                <mxCell id="SOIeBWDmBt10avhGpR6U-89" value="" style="endArrow=none;html=1;rounded=0;entryX=0.5;entryY=0;entryDx=0;entryDy=0;exitX=1;exitY=1;exitDx=0;exitDy=0;" parent="1" source="SOIeBWDmBt10avhGpR6U-19" target="SOIeBWDmBt10avhGpR6U-80" edge="1">
                    <mxGeometry width="50" height="50" relative="1" as="geometry">
                        <mxPoint x="596" y="530" as="sourcePoint"/>
                        <mxPoint x="596" y="631.54" as="targetPoint"/>
                        <Array as="points"/>
                    </mxGeometry>
                </mxCell>
                <mxCell id="SOIeBWDmBt10avhGpR6U-90" value="" style="endArrow=none;html=1;rounded=0;entryX=0.5;entryY=0;entryDx=0;entryDy=0;exitX=0.5;exitY=1;exitDx=0;exitDy=0;" parent="1" source="SOIeBWDmBt10avhGpR6U-19" target="SOIeBWDmBt10avhGpR6U-82" edge="1">
                    <mxGeometry width="50" height="50" relative="1" as="geometry">
                        <mxPoint x="746" y="570.5399999999997" as="sourcePoint"/>
                        <mxPoint x="357" y="490" as="targetPoint"/>
                        <Array as="points"/>
                    </mxGeometry>
                </mxCell>
                <mxCell id="SOIeBWDmBt10avhGpR6U-91" value="" style="endArrow=none;html=1;rounded=0;entryX=0.5;entryY=0;entryDx=0;entryDy=0;exitX=0;exitY=1;exitDx=0;exitDy=0;" parent="1" source="SOIeBWDmBt10avhGpR6U-19" target="SOIeBWDmBt10avhGpR6U-84" edge="1">
                    <mxGeometry width="50" height="50" relative="1" as="geometry">
                        <mxPoint x="866" y="1860" as="sourcePoint"/>
                        <mxPoint x="367" y="500" as="targetPoint"/>
                        <Array as="points"/>
                    </mxGeometry>
                </mxCell>
                <mxCell id="SOIeBWDmBt10avhGpR6U-92" value="" style="endArrow=none;html=1;rounded=0;entryX=0.5;entryY=1;entryDx=0;entryDy=0;exitX=0.5;exitY=0;exitDx=0;exitDy=0;" parent="1" source="SOIeBWDmBt10avhGpR6U-68" target="SOIeBWDmBt10avhGpR6U-80" edge="1">
                    <mxGeometry width="50" height="50" relative="1" as="geometry">
                        <mxPoint x="888" y="1591.54" as="sourcePoint"/>
                        <mxPoint x="613" y="1530" as="targetPoint"/>
                        <Array as="points"/>
                    </mxGeometry>
                </mxCell>
                <mxCell id="SOIeBWDmBt10avhGpR6U-93" value="" style="endArrow=none;html=1;rounded=0;exitX=0.5;exitY=0;exitDx=0;exitDy=0;" parent="1" source="SOIeBWDmBt10avhGpR6U-129" edge="1">
                    <mxGeometry width="50" height="50" relative="1" as="geometry">
                        <mxPoint x="210" y="1719" as="sourcePoint"/>
                        <mxPoint x="560" y="1400" as="targetPoint"/>
                        <Array as="points">
                            <mxPoint x="560" y="1670"/>
                        </Array>
                    </mxGeometry>
                </mxCell>
                <mxCell id="SOIeBWDmBt10avhGpR6U-94" value="" style="endArrow=none;html=1;rounded=0;entryX=0.5;entryY=1;entryDx=0;entryDy=0;exitX=0;exitY=0.5;exitDx=0;exitDy=0;" parent="1" source="SOIeBWDmBt10avhGpR6U-131" target="SOIeBWDmBt10avhGpR6U-84" edge="1">
                    <mxGeometry width="50" height="50" relative="1" as="geometry">
                        <mxPoint x="220" y="1729" as="sourcePoint"/>
                        <mxPoint x="365" y="1730" as="targetPoint"/>
                        <Array as="points">
                            <mxPoint x="260" y="1735"/>
                        </Array>
                    </mxGeometry>
                </mxCell>
                <mxCell id="SOIeBWDmBt10avhGpR6U-95" value="" style="endArrow=none;html=1;rounded=0;entryX=0.5;entryY=0;entryDx=0;entryDy=0;exitX=0.25;exitY=1;exitDx=0;exitDy=0;" parent="1" source="SOIeBWDmBt10avhGpR6U-22" target="SOIeBWDmBt10avhGpR6U-75" edge="1">
                    <mxGeometry width="50" height="50" relative="1" as="geometry">
                        <mxPoint x="1145" y="1165.04" as="sourcePoint"/>
                        <mxPoint x="875" y="1308.5" as="targetPoint"/>
                        <Array as="points"/>
                    </mxGeometry>
                </mxCell>
                <mxCell id="SOIeBWDmBt10avhGpR6U-96" value="" style="endArrow=none;html=1;rounded=0;entryX=0.5;entryY=0;entryDx=0;entryDy=0;exitX=0.75;exitY=1;exitDx=0;exitDy=0;" parent="1" source="SOIeBWDmBt10avhGpR6U-22" target="SOIeBWDmBt10avhGpR6U-77" edge="1">
                    <mxGeometry width="50" height="50" relative="1" as="geometry">
                        <mxPoint x="1155" y="1175.04" as="sourcePoint"/>
                        <mxPoint x="885" y="1318.5" as="targetPoint"/>
                        <Array as="points"/>
                    </mxGeometry>
                </mxCell>
                <mxCell id="SOIeBWDmBt10avhGpR6U-97" value="" style="endArrow=none;html=1;rounded=0;entryX=1;entryY=0.5;entryDx=0;entryDy=0;exitX=0.5;exitY=1;exitDx=0;exitDy=0;" parent="1" source="SOIeBWDmBt10avhGpR6U-77" target="SOIeBWDmBt10avhGpR6U-131" edge="1">
                    <mxGeometry width="50" height="50" relative="1" as="geometry">
                        <mxPoint x="1200.000000000006" y="1447" as="sourcePoint"/>
                        <mxPoint x="1120" y="1452.5" as="targetPoint"/>
                        <Array as="points">
                            <mxPoint x="1280" y="1735"/>
                        </Array>
                    </mxGeometry>
                </mxCell>
                <mxCell id="SOIeBWDmBt10avhGpR6U-98" value="" style="endArrow=none;html=1;rounded=0;entryX=0.75;entryY=0;entryDx=0;entryDy=0;exitX=0.5;exitY=1;exitDx=0;exitDy=0;" parent="1" source="SOIeBWDmBt10avhGpR6U-75" target="SOIeBWDmBt10avhGpR6U-129" edge="1">
                    <mxGeometry width="50" height="50" relative="1" as="geometry">
                        <mxPoint x="1209.9999999999936" y="1557" as="sourcePoint"/>
                        <mxPoint x="1120" y="1562.5" as="targetPoint"/>
                        <Array as="points">
                            <mxPoint x="1020" y="1670"/>
                        </Array>
                    </mxGeometry>
                </mxCell>
                <mxCell id="SOIeBWDmBt10avhGpR6U-99" value="0.n" style="text;html=1;strokeColor=none;fillColor=none;align=center;verticalAlign=middle;whiteSpace=wrap;rounded=0;" parent="1" vertex="1">
                    <mxGeometry x="310" y="327" width="60" height="30" as="geometry"/>
                </mxCell>
                <mxCell id="SOIeBWDmBt10avhGpR6U-100" value="1.n" style="text;html=1;strokeColor=none;fillColor=none;align=center;verticalAlign=middle;whiteSpace=wrap;rounded=0;" parent="1" vertex="1">
                    <mxGeometry x="1460" y="560" width="60" height="30" as="geometry"/>
                </mxCell>
                <mxCell id="SOIeBWDmBt10avhGpR6U-101" value="CASSETTE" style="swimlane;fontStyle=0;align=center;verticalAlign=top;childLayout=stackLayout;horizontal=1;startSize=26;horizontalStack=0;resizeParent=1;resizeLast=0;collapsible=1;marginBottom=0;rounded=0;shadow=0;strokeWidth=1;" parent="1" vertex="1">
                    <mxGeometry x="491" y="830" width="160" height="97.5" as="geometry">
                        <mxRectangle x="340" y="380" width="170" height="26" as="alternateBounds"/>
                    </mxGeometry>
                </mxCell>
                <mxCell id="SOIeBWDmBt10avhGpR6U-102" value="ID_CASSETTE" style="text;align=left;verticalAlign=top;spacingLeft=4;spacingRight=4;overflow=hidden;rotatable=0;points=[[0,0.5],[1,0.5]];portConstraint=eastwest;strokeColor=none;" parent="SOIeBWDmBt10avhGpR6U-101" vertex="1">
                    <mxGeometry y="26" width="160" height="26" as="geometry"/>
                </mxCell>
                <mxCell id="SOIeBWDmBt10avhGpR6U-103" value="TITRE CASSETTE" style="text;align=left;verticalAlign=top;spacingLeft=4;spacingRight=4;overflow=hidden;rotatable=0;points=[[0,0.5],[1,0.5]];portConstraint=eastwest;" parent="SOIeBWDmBt10avhGpR6U-101" vertex="1">
                    <mxGeometry y="52" width="160" height="26" as="geometry"/>
                </mxCell>
                <mxCell id="SOIeBWDmBt10avhGpR6U-104" value="DISQUES" style="swimlane;fontStyle=0;align=center;verticalAlign=top;childLayout=stackLayout;horizontal=1;startSize=26;horizontalStack=0;resizeParent=1;resizeLast=0;collapsible=1;marginBottom=0;rounded=0;shadow=0;strokeWidth=1;" parent="1" vertex="1">
                    <mxGeometry x="1040" y="840" width="160" height="97.5" as="geometry">
                        <mxRectangle x="340" y="380" width="170" height="26" as="alternateBounds"/>
                    </mxGeometry>
                </mxCell>
                <mxCell id="SOIeBWDmBt10avhGpR6U-105" value="ID_DISQUE" style="text;align=left;verticalAlign=top;spacingLeft=4;spacingRight=4;overflow=hidden;rotatable=0;points=[[0,0.5],[1,0.5]];portConstraint=eastwest;strokeColor=none;" parent="SOIeBWDmBt10avhGpR6U-104" vertex="1">
                    <mxGeometry y="26" width="160" height="26" as="geometry"/>
                </mxCell>
                <mxCell id="SOIeBWDmBt10avhGpR6U-106" value="TITRES_DISQUE" style="text;align=left;verticalAlign=top;spacingLeft=4;spacingRight=4;overflow=hidden;rotatable=0;points=[[0,0.5],[1,0.5]];portConstraint=eastwest;" parent="SOIeBWDmBt10avhGpR6U-104" vertex="1">
                    <mxGeometry y="52" width="160" height="26" as="geometry"/>
                </mxCell>
                <mxCell id="SOIeBWDmBt10avhGpR6U-107" value="" style="endArrow=none;html=1;rounded=0;entryX=0.5;entryY=1;entryDx=0;entryDy=0;exitX=0.5;exitY=0;exitDx=0;exitDy=0;" parent="1" source="SOIeBWDmBt10avhGpR6U-71" target="SOIeBWDmBt10avhGpR6U-104" edge="1">
                    <mxGeometry width="50" height="50" relative="1" as="geometry">
                        <mxPoint x="1130" y="850" as="sourcePoint"/>
                        <mxPoint x="1130" y="755" as="targetPoint"/>
                        <Array as="points"/>
                    </mxGeometry>
                </mxCell>
                <mxCell id="SOIeBWDmBt10avhGpR6U-108" value="" style="endArrow=none;html=1;rounded=0;entryX=0.5;entryY=0;entryDx=0;entryDy=0;exitX=0.008;exitY=0.013;exitDx=0;exitDy=0;exitPerimeter=0;" parent="1" source="SOIeBWDmBt10avhGpR6U-137" target="SOIeBWDmBt10avhGpR6U-101" edge="1">
                    <mxGeometry width="50" height="50" relative="1" as="geometry">
                        <mxPoint x="750" y="880" as="sourcePoint"/>
                        <mxPoint x="-40" y="925" as="targetPoint"/>
                        <Array as="points"/>
                    </mxGeometry>
                </mxCell>
                <mxCell id="SOIeBWDmBt10avhGpR6U-109" value="" style="endArrow=none;html=1;rounded=0;exitX=0.5;exitY=0;exitDx=0;exitDy=0;entryX=0.033;entryY=0.936;entryDx=0;entryDy=0;entryPerimeter=0;" parent="1" source="SOIeBWDmBt10avhGpR6U-104" target="SOIeBWDmBt10avhGpR6U-137" edge="1">
                    <mxGeometry width="50" height="50" relative="1" as="geometry">
                        <mxPoint x="715" y="910" as="sourcePoint"/>
                        <mxPoint x="840" y="790" as="targetPoint"/>
                        <Array as="points"/>
                    </mxGeometry>
                </mxCell>
                <mxCell id="SOIeBWDmBt10avhGpR6U-110" value="" style="endArrow=classic;html=1;exitX=1;exitY=0.5;exitDx=0;exitDy=0;entryX=0.5;entryY=1;entryDx=0;entryDy=0;startArrow=none;" parent="1" source="SOIeBWDmBt10avhGpR6U-137" target="SOIeBWDmBt10avhGpR6U-15" edge="1">
                    <mxGeometry width="50" height="50" relative="1" as="geometry">
                        <mxPoint x="796" y="798.5" as="sourcePoint"/>
                        <mxPoint x="1090" y="910" as="targetPoint"/>
                    </mxGeometry>
                </mxCell>
                <mxCell id="SOIeBWDmBt10avhGpR6U-111" value="1,n" style="text;html=1;strokeColor=none;fillColor=none;align=center;verticalAlign=middle;whiteSpace=wrap;rounded=0;" parent="1" vertex="1">
                    <mxGeometry x="556" y="925" width="60" height="30" as="geometry"/>
                </mxCell>
                <mxCell id="SOIeBWDmBt10avhGpR6U-112" value="1,n" style="text;html=1;strokeColor=none;fillColor=none;align=center;verticalAlign=middle;whiteSpace=wrap;rounded=0;" parent="1" vertex="1">
                    <mxGeometry x="556" y="1070" width="60" height="30" as="geometry"/>
                </mxCell>
                <mxCell id="SOIeBWDmBt10avhGpR6U-113" value="1,n" style="text;html=1;strokeColor=none;fillColor=none;align=center;verticalAlign=middle;whiteSpace=wrap;rounded=0;" parent="1" vertex="1">
                    <mxGeometry x="1115" y="939" width="60" height="30" as="geometry"/>
                </mxCell>
                <mxCell id="SOIeBWDmBt10avhGpR6U-114" value="1,n" style="text;html=1;strokeColor=none;fillColor=none;align=center;verticalAlign=middle;whiteSpace=wrap;rounded=0;" parent="1" vertex="1">
                    <mxGeometry x="1065" y="1130" width="60" height="30" as="geometry"/>
                </mxCell>
                <mxCell id="SOIeBWDmBt10avhGpR6U-115" value="1,n" style="text;html=1;strokeColor=none;fillColor=none;align=center;verticalAlign=middle;whiteSpace=wrap;rounded=0;" parent="1" vertex="1">
                    <mxGeometry x="651" y="1160" width="60" height="30" as="geometry"/>
                </mxCell>
                <mxCell id="SOIeBWDmBt10avhGpR6U-116" value="1,n" style="text;html=1;strokeColor=none;fillColor=none;align=center;verticalAlign=middle;whiteSpace=wrap;rounded=0;" parent="1" vertex="1">
                    <mxGeometry x="1005" y="1240" width="60" height="30" as="geometry"/>
                </mxCell>
                <mxCell id="SOIeBWDmBt10avhGpR6U-117" value="1,n" style="text;html=1;strokeColor=none;fillColor=none;align=center;verticalAlign=middle;whiteSpace=wrap;rounded=0;" parent="1" vertex="1">
                    <mxGeometry x="1178" y="1240" width="60" height="30" as="geometry"/>
                </mxCell>
                <mxCell id="SOIeBWDmBt10avhGpR6U-118" value="0,n" style="text;html=1;strokeColor=none;fillColor=none;align=center;verticalAlign=middle;whiteSpace=wrap;rounded=0;" parent="1" vertex="1">
                    <mxGeometry x="900" y="1639" width="60" height="30" as="geometry"/>
                </mxCell>
                <mxCell id="SOIeBWDmBt10avhGpR6U-119" value="0,n" style="text;html=1;strokeColor=none;fillColor=none;align=center;verticalAlign=middle;whiteSpace=wrap;rounded=0;" parent="1" vertex="1">
                    <mxGeometry x="900" y="1699" width="60" height="30" as="geometry"/>
                </mxCell>
                <mxCell id="SOIeBWDmBt10avhGpR6U-120" value="1,n" style="text;html=1;strokeColor=none;fillColor=none;align=center;verticalAlign=middle;whiteSpace=wrap;rounded=0;" parent="1" vertex="1">
                    <mxGeometry x="566" y="1205" width="60" height="30" as="geometry"/>
                </mxCell>
                <mxCell id="SOIeBWDmBt10avhGpR6U-121" value="1,n" style="text;html=1;strokeColor=none;fillColor=none;align=center;verticalAlign=middle;whiteSpace=wrap;rounded=0;" parent="1" vertex="1">
                    <mxGeometry x="386" y="1160" width="60" height="30" as="geometry"/>
                </mxCell>
                <mxCell id="SOIeBWDmBt10avhGpR6U-122" value="1,n" style="text;html=1;strokeColor=none;fillColor=none;align=center;verticalAlign=middle;whiteSpace=wrap;rounded=0;" parent="1" vertex="1">
                    <mxGeometry x="800" y="1395" width="60" height="30" as="geometry"/>
                </mxCell>
                <mxCell id="SOIeBWDmBt10avhGpR6U-123" value="" style="endArrow=none;html=1;entryX=0.5;entryY=1;entryDx=0;entryDy=0;exitX=0.5;exitY=0;exitDx=0;exitDy=0;" parent="1" source="SOIeBWDmBt10avhGpR6U-30" target="SOIeBWDmBt10avhGpR6U-8" edge="1">
                    <mxGeometry width="50" height="50" relative="1" as="geometry">
                        <mxPoint x="720" y="460" as="sourcePoint"/>
                        <mxPoint x="770" y="410" as="targetPoint"/>
                        <Array as="points">
                            <mxPoint x="795" y="220"/>
                            <mxPoint x="630" y="220"/>
                        </Array>
                    </mxGeometry>
                </mxCell>
                <mxCell id="SOIeBWDmBt10avhGpR6U-124" value="EMPRUNT" style="swimlane;fontStyle=0;align=center;verticalAlign=top;childLayout=stackLayout;horizontal=1;startSize=26;horizontalStack=0;resizeParent=1;resizeLast=0;collapsible=1;marginBottom=0;rounded=0;shadow=0;strokeWidth=1;" parent="1" vertex="1">
                    <mxGeometry x="80" y="589" width="160" height="125" as="geometry">
                        <mxRectangle x="340" y="380" width="170" height="26" as="alternateBounds"/>
                    </mxGeometry>
                </mxCell>
                <mxCell id="SOIeBWDmBt10avhGpR6U-125" value="ID_EMPRUNT" style="text;align=left;verticalAlign=top;spacingLeft=4;spacingRight=4;overflow=hidden;rotatable=0;points=[[0,0.5],[1,0.5]];portConstraint=eastwest;strokeColor=#FF0000;" parent="SOIeBWDmBt10avhGpR6U-124" vertex="1">
                    <mxGeometry y="26" width="160" height="26" as="geometry"/>
                </mxCell>
                <mxCell id="SOIeBWDmBt10avhGpR6U-126" value="DATE_EMPRUNT" style="text;align=left;verticalAlign=top;spacingLeft=4;spacingRight=4;overflow=hidden;rotatable=0;points=[[0,0.5],[1,0.5]];portConstraint=eastwest;" parent="SOIeBWDmBt10avhGpR6U-124" vertex="1">
                    <mxGeometry y="52" width="160" height="26" as="geometry"/>
                </mxCell>
                <mxCell id="SOIeBWDmBt10avhGpR6U-127" value="1,n" style="text;html=1;strokeColor=none;fillColor=none;align=center;verticalAlign=middle;whiteSpace=wrap;rounded=0;" parent="1" vertex="1">
                    <mxGeometry x="246" y="590" width="60" height="30" as="geometry"/>
                </mxCell>
                <mxCell id="SOIeBWDmBt10avhGpR6U-128" value="" style="endArrow=none;html=1;exitX=0;exitY=0.5;exitDx=0;exitDy=0;entryX=0.5;entryY=0;entryDx=0;entryDy=0;" parent="1" source="SOIeBWDmBt10avhGpR6U-1" target="SOIeBWDmBt10avhGpR6U-124" edge="1">
                    <mxGeometry width="50" height="50" relative="1" as="geometry">
                        <mxPoint x="505" y="530" as="sourcePoint"/>
                        <mxPoint x="505" y="595" as="targetPoint"/>
                        <Array as="points"/>
                    </mxGeometry>
                </mxCell>
                <mxCell id="SOIeBWDmBt10avhGpR6U-129" value="ARTISTE" style="swimlane;fontStyle=0;align=center;verticalAlign=top;childLayout=stackLayout;horizontal=1;startSize=26;horizontalStack=0;resizeParent=1;resizeLast=0;collapsible=1;marginBottom=0;rounded=0;shadow=0;strokeWidth=1;" parent="1" vertex="1">
                    <mxGeometry x="727" y="1669" width="160" height="110" as="geometry">
                        <mxRectangle x="340" y="380" width="170" height="26" as="alternateBounds"/>
                    </mxGeometry>
                </mxCell>
                <mxCell id="SOIeBWDmBt10avhGpR6U-130" value="ID_ARTISTE" style="text;align=left;verticalAlign=top;spacingLeft=4;spacingRight=4;overflow=hidden;rotatable=0;points=[[0,0.5],[1,0.5]];portConstraint=eastwest;strokeColor=#FF0000;" parent="SOIeBWDmBt10avhGpR6U-129" vertex="1">
                    <mxGeometry y="26" width="160" height="26" as="geometry"/>
                </mxCell>
                <mxCell id="SOIeBWDmBt10avhGpR6U-131" value="NOM" style="text;align=left;verticalAlign=top;spacingLeft=4;spacingRight=4;overflow=hidden;rotatable=0;points=[[0,0.5],[1,0.5]];portConstraint=eastwest;" parent="SOIeBWDmBt10avhGpR6U-129" vertex="1">
                    <mxGeometry y="52" width="160" height="26" as="geometry"/>
                </mxCell>
                <mxCell id="SOIeBWDmBt10avhGpR6U-132" value="PRENOM" style="text;align=left;verticalAlign=top;spacingLeft=4;spacingRight=4;overflow=hidden;rotatable=0;points=[[0,0.5],[1,0.5]];portConstraint=eastwest;" parent="SOIeBWDmBt10avhGpR6U-129" vertex="1">
                    <mxGeometry y="78" width="160" height="26" as="geometry"/>
                </mxCell>
                <mxCell id="SOIeBWDmBt10avhGpR6U-133" value="" style="endArrow=none;html=1;exitX=1;exitY=0.5;exitDx=0;exitDy=0;entryX=0;entryY=0.5;entryDx=0;entryDy=0;" parent="1" source="SOIeBWDmBt10avhGpR6U-1" edge="1">
                    <mxGeometry width="50" height="50" relative="1" as="geometry">
                        <mxPoint x="640" y="610" as="sourcePoint"/>
                        <mxPoint x="711" y="584.9999999999998" as="targetPoint"/>
                    </mxGeometry>
                </mxCell>
                <mxCell id="SOIeBWDmBt10avhGpR6U-134" value="0.n" style="text;html=1;strokeColor=none;fillColor=none;align=center;verticalAlign=middle;whiteSpace=wrap;rounded=0;" parent="1" vertex="1">
                    <mxGeometry x="635" y="560" width="60" height="30" as="geometry"/>
                </mxCell>
                <mxCell id="SOIeBWDmBt10avhGpR6U-135" value="" style="endArrow=none;html=1;rounded=0;entryX=0.5;entryY=1;entryDx=0;entryDy=0;exitX=0.5;exitY=0;exitDx=0;exitDy=0;" parent="1" source="SOIeBWDmBt10avhGpR6U-54" target="SOIeBWDmBt10avhGpR6U-65" edge="1">
                    <mxGeometry width="50" height="50" relative="1" as="geometry">
                        <mxPoint x="630" y="400" as="sourcePoint"/>
                        <mxPoint x="680" y="350" as="targetPoint"/>
                    </mxGeometry>
                </mxCell>
                <mxCell id="SOIeBWDmBt10avhGpR6U-136" value="" style="endArrow=none;html=1;rounded=0;entryX=1;entryY=0.5;entryDx=0;entryDy=0;" parent="1" target="SOIeBWDmBt10avhGpR6U-51" edge="1">
                    <mxGeometry width="50" height="50" relative="1" as="geometry">
                        <mxPoint x="1510" y="610" as="sourcePoint"/>
                        <mxPoint x="1200" y="680" as="targetPoint"/>
                        <Array as="points">
                            <mxPoint x="1510" y="588"/>
                        </Array>
                    </mxGeometry>
                </mxCell>
                <mxCell id="SOIeBWDmBt10avhGpR6U-137" value="" style="triangle;whiteSpace=wrap;html=1;rotation=-90;" parent="1" vertex="1">
                    <mxGeometry x="767" y="710" width="60" height="80" as="geometry"/>
                </mxCell>
                <mxCell id="SOIeBWDmBt10avhGpR6U-138" value="RETOUR" style="swimlane;fontStyle=0;align=center;verticalAlign=top;childLayout=stackLayout;horizontal=1;startSize=26;horizontalStack=0;resizeParent=1;resizeLast=0;collapsible=1;marginBottom=0;rounded=0;shadow=0;strokeWidth=1;" parent="1" vertex="1">
                    <mxGeometry x="1055" y="182.5" width="160" height="125" as="geometry">
                        <mxRectangle x="340" y="380" width="170" height="26" as="alternateBounds"/>
                    </mxGeometry>
                </mxCell>
                <mxCell id="SOIeBWDmBt10avhGpR6U-139" value="ID_RETOUR" style="text;align=left;verticalAlign=top;spacingLeft=4;spacingRight=4;overflow=hidden;rotatable=0;points=[[0,0.5],[1,0.5]];portConstraint=eastwest;strokeColor=#FF0000;" parent="SOIeBWDmBt10avhGpR6U-138" vertex="1">
                    <mxGeometry y="26" width="160" height="26" as="geometry"/>
                </mxCell>
                <mxCell id="SOIeBWDmBt10avhGpR6U-140" value="DATE_RENDU" style="text;align=left;verticalAlign=top;spacingLeft=4;spacingRight=4;overflow=hidden;rotatable=0;points=[[0,0.5],[1,0.5]];portConstraint=eastwest;" parent="SOIeBWDmBt10avhGpR6U-138" vertex="1">
                    <mxGeometry y="52" width="160" height="26" as="geometry"/>
                </mxCell>
                <mxCell id="SOIeBWDmBt10avhGpR6U-141" value="" style="endArrow=none;html=1;rounded=0;entryX=0.5;entryY=1;entryDx=0;entryDy=0;exitX=0.5;exitY=0;exitDx=0;exitDy=0;" parent="1" source="SOIeBWDmBt10avhGpR6U-142" target="SOIeBWDmBt10avhGpR6U-138" edge="1">
                    <mxGeometry width="50" height="50" relative="1" as="geometry">
                        <mxPoint x="1090" y="380" as="sourcePoint"/>
                        <mxPoint x="740" y="390" as="targetPoint"/>
                    </mxGeometry>
                </mxCell>
                <mxCell id="SOIeBWDmBt10avhGpR6U-142" value="&lt;span style=&quot;color: rgba(0 , 0 , 0 , 0) ; font-family: monospace ; font-size: 0px&quot;&gt;%3CmxGraphModel%3E%3Croot%3E%3CmxCell%20id%3D%220%22%2F%3E%3CmxCell%20id%3D%221%22%20parent%3D%220%22%2F%3E%3CmxCell%20id%3D%222%22%20value%3D%22PRIX_J_PRENALITER%22%20style%3D%22text%3Balign%3Dleft%3BverticalAlign%3Dtop%3BspacingLeft%3D4%3BspacingRight%3D4%3Boverflow%3Dhidden%3Brotatable%3D0%3Bpoints%3D%5B%5B0%2C0.5%5D%2C%5B1%2C0.5%5D%5D%3BportConstraint%3Deastwest%3B%22%20vertex%3D%221%22%20parent%3D%221%22%3E%3CmxGeometry%20x%3D%22230%22%20y%3D%22362%22%20width%3D%22160%22%20height%3D%2226%22%20as%3D%22geometry%22%2F%3E%3C%2FmxCell%3E%3C%2Froot%3E%3C%2FmxGraphModel%3E&lt;/span&gt;" style="ellipse;whiteSpace=wrap;html=1;" parent="1" vertex="1">
                    <mxGeometry x="1015" y="382.5" width="130" height="60" as="geometry"/>
                </mxCell>
                <mxCell id="SOIeBWDmBt10avhGpR6U-143" value="RENDRE" style="text;html=1;strokeColor=none;fillColor=none;align=center;verticalAlign=middle;whiteSpace=wrap;rounded=0;" parent="1" vertex="1">
                    <mxGeometry x="1051" y="397.5" width="58" height="30" as="geometry"/>
                </mxCell>
                <mxCell id="SOIeBWDmBt10avhGpR6U-144" value="" style="endArrow=none;html=1;rounded=0;entryX=0.5;entryY=1;entryDx=0;entryDy=0;exitX=0.5;exitY=0;exitDx=0;exitDy=0;" parent="1" source="SOIeBWDmBt10avhGpR6U-15" target="SOIeBWDmBt10avhGpR6U-142" edge="1">
                    <mxGeometry width="50" height="50" relative="1" as="geometry">
                        <mxPoint x="880" y="440" as="sourcePoint"/>
                        <mxPoint x="930" y="390" as="targetPoint"/>
                    </mxGeometry>
                </mxCell>
                <mxCell id="SOIeBWDmBt10avhGpR6U-145" value="0,n" style="text;html=1;strokeColor=none;fillColor=none;align=center;verticalAlign=middle;whiteSpace=wrap;rounded=0;" parent="1" vertex="1">
                    <mxGeometry x="765" y="480" width="60" height="30" as="geometry"/>
                </mxCell>
                <mxCell id="SOIeBWDmBt10avhGpR6U-146" value="" style="endArrow=none;html=1;rounded=0;entryX=0;entryY=0.5;entryDx=0;entryDy=0;exitX=1;exitY=0;exitDx=0;exitDy=0;" parent="1" source="SOIeBWDmBt10avhGpR6U-147" target="SOIeBWDmBt10avhGpR6U-140" edge="1">
                    <mxGeometry width="50" height="50" relative="1" as="geometry">
                        <mxPoint x="640" y="450" as="sourcePoint"/>
                        <mxPoint x="790" y="200" as="targetPoint"/>
                    </mxGeometry>
                </mxCell>
                <mxCell id="SOIeBWDmBt10avhGpR6U-147" value="RETOURNER" style="ellipse;whiteSpace=wrap;html=1;" parent="1" vertex="1">
                    <mxGeometry x="570" y="427.5" width="120" height="70" as="geometry"/>
                </mxCell>
                <mxCell id="SOIeBWDmBt10avhGpR6U-148" value="" style="endArrow=none;html=1;rounded=0;entryX=0;entryY=0.5;entryDx=0;entryDy=0;startArrow=none;" parent="1" source="SOIeBWDmBt10avhGpR6U-150" target="SOIeBWDmBt10avhGpR6U-147" edge="1">
                    <mxGeometry width="50" height="50" relative="1" as="geometry">
                        <mxPoint x="200" y="590" as="sourcePoint"/>
                        <mxPoint x="790" y="200" as="targetPoint"/>
                    </mxGeometry>
                </mxCell>
                <mxCell id="SOIeBWDmBt10avhGpR6U-149" value="1,1" style="text;html=1;strokeColor=none;fillColor=none;align=center;verticalAlign=middle;whiteSpace=wrap;rounded=0;" parent="1" vertex="1">
                    <mxGeometry x="100" y="557.5" width="60" height="30" as="geometry"/>
                </mxCell>
                <mxCell id="SOIeBWDmBt10avhGpR6U-150" value="0,n" style="text;html=1;strokeColor=none;fillColor=none;align=center;verticalAlign=middle;whiteSpace=wrap;rounded=0;" parent="1" vertex="1">
                    <mxGeometry x="306" y="542.5" width="60" height="30" as="geometry"/>
                </mxCell>
                <mxCell id="SOIeBWDmBt10avhGpR6U-151" value="" style="endArrow=none;html=1;rounded=0;entryX=0;entryY=0.5;entryDx=0;entryDy=0;" parent="1" target="SOIeBWDmBt10avhGpR6U-150" edge="1">
                    <mxGeometry width="50" height="50" relative="1" as="geometry">
                        <mxPoint x="200" y="590" as="sourcePoint"/>
                        <mxPoint x="570" y="462.5" as="targetPoint"/>
                    </mxGeometry>
                </mxCell>
                <mxCell id="SOIeBWDmBt10avhGpR6U-152" value="1,1" style="text;html=1;strokeColor=none;fillColor=none;align=center;verticalAlign=middle;whiteSpace=wrap;rounded=0;" parent="1" vertex="1">
                    <mxGeometry x="980" y="225" width="60" height="30" as="geometry"/>
                </mxCell>
                <mxCell id="SOIeBWDmBt10avhGpR6U-153" value="0,n" style="text;html=1;strokeColor=none;fillColor=none;align=center;verticalAlign=middle;whiteSpace=wrap;rounded=0;" parent="1" vertex="1">
                    <mxGeometry x="670" y="1639" width="60" height="30" as="geometry"/>
                </mxCell>
                <mxCell id="SOIeBWDmBt10avhGpR6U-154" value="0,n" style="text;html=1;strokeColor=none;fillColor=none;align=center;verticalAlign=middle;whiteSpace=wrap;rounded=0;" parent="1" vertex="1">
                    <mxGeometry x="660" y="1709" width="60" height="30" as="geometry"/>
                </mxCell>
                <mxCell id="SOIeBWDmBt10avhGpR6U-155" value="&lt;span style=&quot;color: rgba(0 , 0 , 0 , 0) ; font-family: monospace ; font-size: 0px&quot;&gt;%3CmxGraphModel%3E%3Croot%3E%3CmxCell%20id%3D%220%22%2F%3E%3CmxCell%20id%3D%221%22%20parent%3D%220%22%2F%3E%3CmxCell%20id%3D%222%22%20value%3D%22PRIX_J_PRENALITER%22%20style%3D%22text%3Balign%3Dleft%3BverticalAlign%3Dtop%3BspacingLeft%3D4%3BspacingRight%3D4%3Boverflow%3Dhidden%3Brotatable%3D0%3Bpoints%3D%5B%5B0%2C0.5%5D%2C%5B1%2C0.5%5D%5D%3BportConstraint%3Deastwest%3B%22%20vertex%3D%221%22%20parent%3D%221%22%3E%3CmxGeometry%20x%3D%22230%22%20y%3D%22362%22%20width%3D%22160%22%20height%3D%2226%22%20as%3D%22geometry%22%2F%3E%3C%2FmxCell%3E%3C%2Froot%3E%3C%2FmxGraphModel%3E&lt;/span&gt;" style="ellipse;whiteSpace=wrap;html=1;" parent="1" vertex="1">
                    <mxGeometry x="1370" y="1335" width="130" height="60" as="geometry"/>
                </mxCell>
                <mxCell id="SOIeBWDmBt10avhGpR6U-156" value="" style="endArrow=none;html=1;rounded=0;entryX=1;entryY=0.5;entryDx=0;entryDy=0;exitX=0.5;exitY=0;exitDx=0;exitDy=0;" parent="1" source="SOIeBWDmBt10avhGpR6U-155" target="SOIeBWDmBt10avhGpR6U-23" edge="1">
                    <mxGeometry width="50" height="50" relative="1" as="geometry">
                        <mxPoint x="870" y="1490" as="sourcePoint"/>
                        <mxPoint x="920" y="1440" as="targetPoint"/>
                    </mxGeometry>
                </mxCell>
                <mxCell id="SOIeBWDmBt10avhGpR6U-157" value="" style="endArrow=none;html=1;rounded=0;exitX=0.974;exitY=1.103;exitDx=0;exitDy=0;exitPerimeter=0;" parent="1" source="SOIeBWDmBt10avhGpR6U-132" target="SOIeBWDmBt10avhGpR6U-155" edge="1">
                    <mxGeometry width="50" height="50" relative="1" as="geometry">
                        <mxPoint x="1435" y="1760" as="sourcePoint"/>
                        <mxPoint x="920" y="1440" as="targetPoint"/>
                        <Array as="points">
                            <mxPoint x="1440" y="1780"/>
                        </Array>
                    </mxGeometry>
                </mxCell>
                <mxCell id="SOIeBWDmBt10avhGpR6U-158" value="INTERPRETER" style="text;html=1;strokeColor=none;fillColor=none;align=center;verticalAlign=middle;whiteSpace=wrap;rounded=0;" parent="1" vertex="1">
                    <mxGeometry x="1405" y="1355" width="60" height="30" as="geometry"/>
                </mxCell>
                <mxCell id="SOIeBWDmBt10avhGpR6U-159" value="1,n" style="text;html=1;strokeColor=none;fillColor=none;align=center;verticalAlign=middle;whiteSpace=wrap;rounded=0;" parent="1" vertex="1">
                    <mxGeometry x="1390" y="1280" width="60" height="30" as="geometry"/>
                </mxCell>
                <mxCell id="SOIeBWDmBt10avhGpR6U-160" value="0,n" style="text;html=1;strokeColor=none;fillColor=none;align=center;verticalAlign=middle;whiteSpace=wrap;rounded=0;" parent="1" vertex="1">
                    <mxGeometry x="900" y="1749" width="60" height="30" as="geometry"/>
                </mxCell>
            </root>
        </mxGraphModel>
    </diagram>
    <diagram name="MLD" id="XEGpWS7-ICGBTgjG0JCx">
        <mxGraphModel dx="1031" dy="639" grid="1" gridSize="10" guides="1" tooltips="1" connect="1" arrows="1" fold="1" page="1" pageScale="1" pageWidth="827" pageHeight="1169" math="0" shadow="0">
            <root>
                <mxCell id="eNKekl6-0VWOWv20ekdD-0"/>
                <mxCell id="eNKekl6-0VWOWv20ekdD-1" parent="eNKekl6-0VWOWv20ekdD-0"/>
                <mxCell id="XelNEqM88juOmGfK-nHK-0" value="&lt;span style=&quot;color: rgba(0 , 0 , 0 , 0) ; font-family: monospace ; font-size: 0px&quot;&gt;%3CmxGraphModel%3E%3Croot%3E%3CmxCell%20id%3D%220%22%2F%3E%3CmxCell%20id%3D%221%22%20parent%3D%220%22%2F%3E%3CmxCell%20id%3D%222%22%20value%3D%22PRIX_J_PRENALITER%22%20style%3D%22text%3Balign%3Dleft%3BverticalAlign%3Dtop%3BspacingLeft%3D4%3BspacingRight%3D4%3Boverflow%3Dhidden%3Brotatable%3D0%3Bpoints%3D%5B%5B0%2C0.5%5D%2C%5B1%2C0.5%5D%5D%3BportConstraint%3Deastwest%3B%22%20vertex%3D%221%22%20parent%3D%221%22%3E%3CmxGeometry%20x%3D%22230%22%20y%3D%22362%22%20width%3D%22160%22%20height%3D%2226%22%20as%3D%22geometry%22%2F%3E%3C%2FmxCell%3E%3C%2Froot%3E%3C%2FmxGraphModel%3E&lt;/span&gt;" style="ellipse;whiteSpace=wrap;html=1;" parent="eNKekl6-0VWOWv20ekdD-1" vertex="1">
                    <mxGeometry x="790" y="215" width="130" height="60" as="geometry"/>
                </mxCell>
                <mxCell id="bdy8Ne7c6f2UyASHZdTT-0" value="&lt;span style=&quot;color: rgba(0 , 0 , 0 , 0) ; font-family: monospace ; font-size: 0px&quot;&gt;%3CmxGraphModel%3E%3Croot%3E%3CmxCell%20id%3D%220%22%2F%3E%3CmxCell%20id%3D%221%22%20parent%3D%220%22%2F%3E%3CmxCell%20id%3D%222%22%20value%3D%22PRIX_J_PRENALITER%22%20style%3D%22text%3Balign%3Dleft%3BverticalAlign%3Dtop%3BspacingLeft%3D4%3BspacingRight%3D4%3Boverflow%3Dhidden%3Brotatable%3D0%3Bpoints%3D%5B%5B0%2C0.5%5D%2C%5B1%2C0.5%5D%5D%3BportConstraint%3Deastwest%3B%22%20vertex%3D%221%22%20parent%3D%221%22%3E%3CmxGeometry%20x%3D%22230%22%20y%3D%22362%22%20width%3D%22160%22%20height%3D%2226%22%20as%3D%22geometry%22%2F%3E%3C%2FmxCell%3E%3C%2Froot%3E%3C%2FmxGraphModel%3E&lt;/span&gt;" style="ellipse;whiteSpace=wrap;html=1;" parent="eNKekl6-0VWOWv20ekdD-1" vertex="1">
                    <mxGeometry x="420" y="581" width="130" height="60" as="geometry"/>
                </mxCell>
                <mxCell id="bdy8Ne7c6f2UyASHZdTT-1" value="UTILISATEUR" style="swimlane;fontStyle=2;align=center;verticalAlign=top;childLayout=stackLayout;horizontal=1;startSize=26;horizontalStack=0;resizeParent=1;resizeLast=0;collapsible=1;marginBottom=0;rounded=0;shadow=0;strokeWidth=1;" parent="eNKekl6-0VWOWv20ekdD-1" vertex="1">
                    <mxGeometry x="100" y="15" width="160" height="182" as="geometry">
                        <mxRectangle x="230" y="140" width="160" height="26" as="alternateBounds"/>
                    </mxGeometry>
                </mxCell>
                <mxCell id="bdy8Ne7c6f2UyASHZdTT-2" value="PK ID_USERÂ " style="text;align=left;verticalAlign=top;spacingLeft=4;spacingRight=4;overflow=hidden;rotatable=0;points=[[0,0.5],[1,0.5]];portConstraint=eastwest;rounded=0;shadow=0;html=0;strokeColor=#FF0000;" parent="bdy8Ne7c6f2UyASHZdTT-1" vertex="1">
                    <mxGeometry y="26" width="160" height="26" as="geometry"/>
                </mxCell>
                <mxCell id="bdy8Ne7c6f2UyASHZdTT-3" value="NOM" style="text;align=left;verticalAlign=top;spacingLeft=4;spacingRight=4;overflow=hidden;rotatable=0;points=[[0,0.5],[1,0.5]];portConstraint=eastwest;rounded=0;shadow=0;html=0;" parent="bdy8Ne7c6f2UyASHZdTT-1" vertex="1">
                    <mxGeometry y="52" width="160" height="26" as="geometry"/>
                </mxCell>
                <mxCell id="bdy8Ne7c6f2UyASHZdTT-5" value="PRENOM" style="text;align=left;verticalAlign=top;spacingLeft=4;spacingRight=4;overflow=hidden;rotatable=0;points=[[0,0.5],[1,0.5]];portConstraint=eastwest;rounded=0;shadow=0;html=0;" parent="bdy8Ne7c6f2UyASHZdTT-1" vertex="1">
                    <mxGeometry y="78" width="160" height="26" as="geometry"/>
                </mxCell>
                <mxCell id="bdy8Ne7c6f2UyASHZdTT-6" value="EMAIL" style="text;align=left;verticalAlign=top;spacingLeft=4;spacingRight=4;overflow=hidden;rotatable=0;points=[[0,0.5],[1,0.5]];portConstraint=eastwest;" parent="bdy8Ne7c6f2UyASHZdTT-1" vertex="1">
                    <mxGeometry y="104" width="160" height="26" as="geometry"/>
                </mxCell>
                <mxCell id="XelNEqM88juOmGfK-nHK-14" value="FK_ID_Commune" style="text;align=left;verticalAlign=top;spacingLeft=4;spacingRight=4;overflow=hidden;rotatable=0;points=[[0,0.5],[1,0.5]];portConstraint=eastwest;" parent="bdy8Ne7c6f2UyASHZdTT-1" vertex="1">
                    <mxGeometry y="130" width="160" height="26" as="geometry"/>
                </mxCell>
                <mxCell id="XelNEqM88juOmGfK-nHK-15" value="FK_ID_CatÃ©gorie social" style="text;align=left;verticalAlign=top;spacingLeft=4;spacingRight=4;overflow=hidden;rotatable=0;points=[[0,0.5],[1,0.5]];portConstraint=eastwest;" parent="bdy8Ne7c6f2UyASHZdTT-1" vertex="1">
                    <mxGeometry y="156" width="160" height="26" as="geometry"/>
                </mxCell>
                <mxCell id="bdy8Ne7c6f2UyASHZdTT-7" value="ABONNEMENT" style="swimlane;fontStyle=0;align=center;verticalAlign=top;childLayout=stackLayout;horizontal=1;startSize=26;horizontalStack=0;resizeParent=1;resizeLast=0;collapsible=1;marginBottom=0;rounded=0;shadow=0;strokeWidth=1;" parent="eNKekl6-0VWOWv20ekdD-1" vertex="1">
                    <mxGeometry x="550" y="15" width="160" height="156" as="geometry">
                        <mxRectangle x="550" y="140" width="160" height="26" as="alternateBounds"/>
                    </mxGeometry>
                </mxCell>
                <mxCell id="bdy8Ne7c6f2UyASHZdTT-8" value="PK ID_ABO" style="text;align=left;verticalAlign=top;spacingLeft=4;spacingRight=4;overflow=hidden;rotatable=0;points=[[0,0.5],[1,0.5]];portConstraint=eastwest;rounded=0;shadow=0;html=0;strokeColor=#FF0000;" parent="bdy8Ne7c6f2UyASHZdTT-7" vertex="1">
                    <mxGeometry y="26" width="160" height="26" as="geometry"/>
                </mxCell>
                <mxCell id="bdy8Ne7c6f2UyASHZdTT-9" value="DATE_ADHESION" style="text;align=left;verticalAlign=top;spacingLeft=4;spacingRight=4;overflow=hidden;rotatable=0;points=[[0,0.5],[1,0.5]];portConstraint=eastwest;rounded=0;shadow=0;html=0;" parent="bdy8Ne7c6f2UyASHZdTT-7" vertex="1">
                    <mxGeometry y="52" width="160" height="26" as="geometry"/>
                </mxCell>
                <mxCell id="bdy8Ne7c6f2UyASHZdTT-10" value="FIN_ADHESION" style="text;align=left;verticalAlign=top;spacingLeft=4;spacingRight=4;overflow=hidden;rotatable=0;points=[[0,0.5],[1,0.5]];portConstraint=eastwest;rounded=0;shadow=0;html=0;" parent="bdy8Ne7c6f2UyASHZdTT-7" vertex="1">
                    <mxGeometry y="78" width="160" height="26" as="geometry"/>
                </mxCell>
                <mxCell id="XelNEqM88juOmGfK-nHK-20" value="FK_ID_USER" style="text;align=left;verticalAlign=top;spacingLeft=4;spacingRight=4;overflow=hidden;rotatable=0;points=[[0,0.5],[1,0.5]];portConstraint=eastwest;" parent="bdy8Ne7c6f2UyASHZdTT-7" vertex="1">
                    <mxGeometry y="104" width="160" height="26" as="geometry"/>
                </mxCell>
                <mxCell id="XelNEqM88juOmGfK-nHK-21" value="FK_ID_Type_Abonement" style="text;align=left;verticalAlign=top;spacingLeft=4;spacingRight=4;overflow=hidden;rotatable=0;points=[[0,0.5],[1,0.5]];portConstraint=eastwest;" parent="bdy8Ne7c6f2UyASHZdTT-7" vertex="1">
                    <mxGeometry y="130" width="160" height="26" as="geometry"/>
                </mxCell>
                <mxCell id="bdy8Ne7c6f2UyASHZdTT-14" value="OBJET" style="swimlane;fontStyle=0;align=center;verticalAlign=top;childLayout=stackLayout;horizontal=1;startSize=26;horizontalStack=0;resizeParent=1;resizeLast=0;collapsible=1;marginBottom=0;rounded=0;shadow=0;strokeWidth=1;" parent="eNKekl6-0VWOWv20ekdD-1" vertex="1">
                    <mxGeometry x="711" y="520" width="170" height="140" as="geometry">
                        <mxRectangle x="340" y="380" width="170" height="26" as="alternateBounds"/>
                    </mxGeometry>
                </mxCell>
                <mxCell id="bdy8Ne7c6f2UyASHZdTT-15" value="PK ID_OBJET" style="text;align=left;verticalAlign=top;spacingLeft=4;spacingRight=4;overflow=hidden;rotatable=0;points=[[0,0.5],[1,0.5]];portConstraint=eastwest;strokeColor=#FF0000;" parent="bdy8Ne7c6f2UyASHZdTT-14" vertex="1">
                    <mxGeometry y="26" width="170" height="26" as="geometry"/>
                </mxCell>
                <mxCell id="bdy8Ne7c6f2UyASHZdTT-16" value="NOMBRE_ARTICLE" style="text;align=left;verticalAlign=top;spacingLeft=4;spacingRight=4;overflow=hidden;rotatable=0;points=[[0,0.5],[1,0.5]];portConstraint=eastwest;" parent="bdy8Ne7c6f2UyASHZdTT-14" vertex="1">
                    <mxGeometry y="52" width="170" height="26" as="geometry"/>
                </mxCell>
                <mxCell id="bdy8Ne7c6f2UyASHZdTT-17" value="PRIX_OBJET" style="text;align=left;verticalAlign=top;spacingLeft=4;spacingRight=4;overflow=hidden;rotatable=0;points=[[0,0.5],[1,0.5]];portConstraint=eastwest;" parent="bdy8Ne7c6f2UyASHZdTT-14" vertex="1">
                    <mxGeometry y="78" width="170" height="26" as="geometry"/>
                </mxCell>
                <mxCell id="XelNEqM88juOmGfK-nHK-25" value="FK_ID_Emprunt" style="text;align=left;verticalAlign=top;spacingLeft=4;spacingRight=4;overflow=hidden;rotatable=0;points=[[0,0.5],[1,0.5]];portConstraint=eastwest;" parent="bdy8Ne7c6f2UyASHZdTT-14" vertex="1">
                    <mxGeometry y="104" width="170" height="26" as="geometry"/>
                </mxCell>
                <mxCell id="bdy8Ne7c6f2UyASHZdTT-18" value="FILM" style="swimlane;fontStyle=0;align=center;verticalAlign=top;childLayout=stackLayout;horizontal=1;startSize=26;horizontalStack=0;resizeParent=1;resizeLast=0;collapsible=1;marginBottom=0;rounded=0;shadow=0;strokeWidth=1;" parent="eNKekl6-0VWOWv20ekdD-1" vertex="1">
                    <mxGeometry x="490" y="1110" width="160" height="80" as="geometry">
                        <mxRectangle x="340" y="380" width="170" height="26" as="alternateBounds"/>
                    </mxGeometry>
                </mxCell>
                <mxCell id="bdy8Ne7c6f2UyASHZdTT-19" value="PK ID_FILM" style="text;align=left;verticalAlign=top;spacingLeft=4;spacingRight=4;overflow=hidden;rotatable=0;points=[[0,0.5],[1,0.5]];portConstraint=eastwest;strokeColor=#FF0000;" parent="bdy8Ne7c6f2UyASHZdTT-18" vertex="1">
                    <mxGeometry y="26" width="160" height="26" as="geometry"/>
                </mxCell>
                <mxCell id="bdy8Ne7c6f2UyASHZdTT-20" value="TITRE" style="text;align=left;verticalAlign=top;spacingLeft=4;spacingRight=4;overflow=hidden;rotatable=0;points=[[0,0.5],[1,0.5]];portConstraint=eastwest;" parent="bdy8Ne7c6f2UyASHZdTT-18" vertex="1">
                    <mxGeometry y="52" width="160" height="26" as="geometry"/>
                </mxCell>
                <mxCell id="bdy8Ne7c6f2UyASHZdTT-21" value="MUSIC" style="swimlane;fontStyle=0;align=center;verticalAlign=top;childLayout=stackLayout;horizontal=1;startSize=26;horizontalStack=0;resizeParent=1;resizeLast=0;collapsible=1;marginBottom=0;rounded=0;shadow=0;strokeWidth=1;" parent="eNKekl6-0VWOWv20ekdD-1" vertex="1">
                    <mxGeometry x="1040" y="1160" width="160" height="80" as="geometry">
                        <mxRectangle x="340" y="380" width="170" height="26" as="alternateBounds"/>
                    </mxGeometry>
                </mxCell>
                <mxCell id="bdy8Ne7c6f2UyASHZdTT-22" value="PK D_MUSIQUE" style="text;align=left;verticalAlign=top;spacingLeft=4;spacingRight=4;overflow=hidden;rotatable=0;points=[[0,0.5],[1,0.5]];portConstraint=eastwest;strokeColor=#FF0000;" parent="bdy8Ne7c6f2UyASHZdTT-21" vertex="1">
                    <mxGeometry y="26" width="160" height="26" as="geometry"/>
                </mxCell>
                <mxCell id="bdy8Ne7c6f2UyASHZdTT-23" value="TITRE" style="text;align=left;verticalAlign=top;spacingLeft=4;spacingRight=4;overflow=hidden;rotatable=0;points=[[0,0.5],[1,0.5]];portConstraint=eastwest;" parent="bdy8Ne7c6f2UyASHZdTT-21" vertex="1">
                    <mxGeometry y="52" width="160" height="26" as="geometry"/>
                </mxCell>
                <mxCell id="bdy8Ne7c6f2UyASHZdTT-24" value="Commune" style="swimlane;fontStyle=0;align=center;verticalAlign=top;childLayout=stackLayout;horizontal=1;startSize=26;horizontalStack=0;resizeParent=1;resizeLast=0;collapsible=1;marginBottom=0;rounded=0;shadow=0;strokeWidth=1;" parent="eNKekl6-0VWOWv20ekdD-1" vertex="1">
                    <mxGeometry x="20" y="360" width="160" height="90" as="geometry">
                        <mxRectangle x="70" y="410" width="170" height="26" as="alternateBounds"/>
                    </mxGeometry>
                </mxCell>
                <mxCell id="bdy8Ne7c6f2UyASHZdTT-25" value="PK ID_Commune" style="text;align=left;verticalAlign=top;spacingLeft=4;spacingRight=4;overflow=hidden;rotatable=0;points=[[0,0.5],[1,0.5]];portConstraint=eastwest;strokeColor=#FF0000;" parent="bdy8Ne7c6f2UyASHZdTT-24" vertex="1">
                    <mxGeometry y="26" width="160" height="26" as="geometry"/>
                </mxCell>
                <mxCell id="bdy8Ne7c6f2UyASHZdTT-26" value="Ville" style="text;align=left;verticalAlign=top;spacingLeft=4;spacingRight=4;overflow=hidden;rotatable=0;points=[[0,0.5],[1,0.5]];portConstraint=eastwest;" parent="bdy8Ne7c6f2UyASHZdTT-24" vertex="1">
                    <mxGeometry y="52" width="160" height="26" as="geometry"/>
                </mxCell>
                <mxCell id="bdy8Ne7c6f2UyASHZdTT-27" value="&lt;span style=&quot;color: rgba(0 , 0 , 0 , 0) ; font-family: monospace ; font-size: 0px&quot;&gt;%3CmxGraphModel%3E%3Croot%3E%3CmxCell%20id%3D%220%22%2F%3E%3CmxCell%20id%3D%221%22%20parent%3D%220%22%2F%3E%3CmxCell%20id%3D%222%22%20value%3D%22PRIX_J_PRENALITER%22%20style%3D%22text%3Balign%3Dleft%3BverticalAlign%3Dtop%3BspacingLeft%3D4%3BspacingRight%3D4%3Boverflow%3Dhidden%3Brotatable%3D0%3Bpoints%3D%5B%5B0%2C0.5%5D%2C%5B1%2C0.5%5D%5D%3BportConstraint%3Deastwest%3B%22%20vertex%3D%221%22%20parent%3D%221%22%3E%3CmxGeometry%20x%3D%22230%22%20y%3D%22362%22%20width%3D%22160%22%20height%3D%2226%22%20as%3D%22geometry%22%2F%3E%3C%2FmxCell%3E%3C%2Froot%3E%3C%2FmxGraphModel%3E&lt;/span&gt;" style="ellipse;whiteSpace=wrap;html=1;" parent="eNKekl6-0VWOWv20ekdD-1" vertex="1">
                    <mxGeometry x="466" y="985" width="130" height="60" as="geometry"/>
                </mxCell>
                <mxCell id="bdy8Ne7c6f2UyASHZdTT-28" value="VISIONER" style="text;html=1;strokeColor=none;fillColor=none;align=center;verticalAlign=middle;whiteSpace=wrap;rounded=0;" parent="eNKekl6-0VWOWv20ekdD-1" vertex="1">
                    <mxGeometry x="475" y="1000" width="80" height="30" as="geometry"/>
                </mxCell>
                <mxCell id="bdy8Ne7c6f2UyASHZdTT-30" value="EMPRUNTER" style="text;html=1;strokeColor=none;fillColor=none;align=center;verticalAlign=middle;whiteSpace=wrap;rounded=0;" parent="eNKekl6-0VWOWv20ekdD-1" vertex="1">
                    <mxGeometry x="455" y="596" width="60" height="30" as="geometry"/>
                </mxCell>
                <mxCell id="bdy8Ne7c6f2UyASHZdTT-41" value="TYPE_ABONEMENTÂ " style="swimlane;fontStyle=0;align=center;verticalAlign=top;childLayout=stackLayout;horizontal=1;startSize=26;horizontalStack=0;resizeParent=1;resizeLast=0;collapsible=1;marginBottom=0;rounded=0;shadow=0;strokeWidth=1;" parent="eNKekl6-0VWOWv20ekdD-1" vertex="1">
                    <mxGeometry x="1000" y="20" width="160" height="110" as="geometry">
                        <mxRectangle x="70" y="410" width="170" height="26" as="alternateBounds"/>
                    </mxGeometry>
                </mxCell>
                <mxCell id="bdy8Ne7c6f2UyASHZdTT-42" value="PK ID TYPE abonnement" style="text;align=left;verticalAlign=top;spacingLeft=4;spacingRight=4;overflow=hidden;rotatable=0;points=[[0,0.5],[1,0.5]];portConstraint=eastwest;strokeColor=#FF0000;" parent="bdy8Ne7c6f2UyASHZdTT-41" vertex="1">
                    <mxGeometry y="26" width="160" height="26" as="geometry"/>
                </mxCell>
                <mxCell id="bdy8Ne7c6f2UyASHZdTT-43" value="PRIX_PAR_MOIS" style="text;align=left;verticalAlign=top;spacingLeft=4;spacingRight=4;overflow=hidden;rotatable=0;points=[[0,0.5],[1,0.5]];portConstraint=eastwest;" parent="bdy8Ne7c6f2UyASHZdTT-41" vertex="1">
                    <mxGeometry y="52" width="160" height="26" as="geometry"/>
                </mxCell>
                <mxCell id="bdy8Ne7c6f2UyASHZdTT-44" value="NOMBRE_EMPRUNT" style="text;align=left;verticalAlign=top;spacingLeft=4;spacingRight=4;overflow=hidden;rotatable=0;points=[[0,0.5],[1,0.5]];portConstraint=eastwest;" parent="bdy8Ne7c6f2UyASHZdTT-41" vertex="1">
                    <mxGeometry y="78" width="160" height="26" as="geometry"/>
                </mxCell>
                <mxCell id="bdy8Ne7c6f2UyASHZdTT-46" value="PENALITE" style="swimlane;fontStyle=0;align=center;verticalAlign=top;childLayout=stackLayout;horizontal=1;startSize=26;horizontalStack=0;resizeParent=1;resizeLast=0;collapsible=1;marginBottom=0;rounded=0;shadow=0;strokeWidth=1;" parent="eNKekl6-0VWOWv20ekdD-1" vertex="1">
                    <mxGeometry x="1420" y="613.5" width="160" height="130" as="geometry">
                        <mxRectangle x="340" y="380" width="170" height="26" as="alternateBounds"/>
                    </mxGeometry>
                </mxCell>
                <mxCell id="bdy8Ne7c6f2UyASHZdTT-47" value="PK ID_PENALITE" style="text;align=left;verticalAlign=top;spacingLeft=4;spacingRight=4;overflow=hidden;rotatable=0;points=[[0,0.5],[1,0.5]];portConstraint=eastwest;strokeColor=#FF0000;" parent="bdy8Ne7c6f2UyASHZdTT-46" vertex="1">
                    <mxGeometry y="26" width="160" height="26" as="geometry"/>
                </mxCell>
                <mxCell id="bdy8Ne7c6f2UyASHZdTT-48" value="TYPE_OBJET" style="text;align=left;verticalAlign=top;spacingLeft=4;spacingRight=4;overflow=hidden;rotatable=0;points=[[0,0.5],[1,0.5]];portConstraint=eastwest;strokeColor=none;" parent="bdy8Ne7c6f2UyASHZdTT-46" vertex="1">
                    <mxGeometry y="52" width="160" height="26" as="geometry"/>
                </mxCell>
                <mxCell id="bdy8Ne7c6f2UyASHZdTT-49" value="PRIX_J_PENALITER" style="text;align=left;verticalAlign=top;spacingLeft=4;spacingRight=4;overflow=hidden;rotatable=0;points=[[0,0.5],[1,0.5]];portConstraint=eastwest;" parent="bdy8Ne7c6f2UyASHZdTT-46" vertex="1">
                    <mxGeometry y="78" width="160" height="26" as="geometry"/>
                </mxCell>
                <mxCell id="XelNEqM88juOmGfK-nHK-26" value="FK_ID_Objet&#10;" style="text;align=left;verticalAlign=top;spacingLeft=4;spacingRight=4;overflow=hidden;rotatable=0;points=[[0,0.5],[1,0.5]];portConstraint=eastwest;" parent="bdy8Ne7c6f2UyASHZdTT-46" vertex="1">
                    <mxGeometry y="104" width="160" height="26" as="geometry"/>
                </mxCell>
                <mxCell id="bdy8Ne7c6f2UyASHZdTT-53" value="CatÃ©gorie socialÂ " style="swimlane;fontStyle=0;align=center;verticalAlign=top;childLayout=stackLayout;horizontal=1;startSize=26;horizontalStack=0;resizeParent=1;resizeLast=0;collapsible=1;marginBottom=0;rounded=0;shadow=0;strokeWidth=1;" parent="eNKekl6-0VWOWv20ekdD-1" vertex="1">
                    <mxGeometry x="246" y="367.5" width="160" height="90" as="geometry">
                        <mxRectangle x="70" y="410" width="170" height="26" as="alternateBounds"/>
                    </mxGeometry>
                </mxCell>
                <mxCell id="bdy8Ne7c6f2UyASHZdTT-54" value="PK ID_Categorie social" style="text;align=left;verticalAlign=top;spacingLeft=4;spacingRight=4;overflow=hidden;rotatable=0;points=[[0,0.5],[1,0.5]];portConstraint=eastwest;strokeColor=#FF0000;" parent="bdy8Ne7c6f2UyASHZdTT-53" vertex="1">
                    <mxGeometry y="26" width="160" height="26" as="geometry"/>
                </mxCell>
                <mxCell id="bdy8Ne7c6f2UyASHZdTT-55" value="Categorie social" style="text;align=left;verticalAlign=top;spacingLeft=4;spacingRight=4;overflow=hidden;rotatable=0;points=[[0,0.5],[1,0.5]];portConstraint=eastwest;strokeColor=none;" parent="bdy8Ne7c6f2UyASHZdTT-53" vertex="1">
                    <mxGeometry y="52" width="160" height="26" as="geometry"/>
                </mxCell>
                <mxCell id="bdy8Ne7c6f2UyASHZdTT-63" value="&lt;div style=&quot;box-sizing: border-box ; font-family: &amp;#34;segoe ui&amp;#34; , , &amp;#34;apple color emoji&amp;#34; , &amp;#34;segoe ui emoji&amp;#34; , sans-serif&quot;&gt;&lt;font style=&quot;font-size: 14px&quot;&gt;&lt;span itemscope=&quot;&quot; class=&quot;at-mentions-focus lpc-hoverTarget&quot; tabindex=&quot;0&quot;&gt;GROUPE 5 - 3SRC1&lt;/span&gt;&lt;/font&gt;&lt;/div&gt;&lt;div style=&quot;box-sizing: border-box ; font-family: &amp;#34;segoe ui&amp;#34; , , &amp;#34;apple color emoji&amp;#34; , &amp;#34;segoe ui emoji&amp;#34; , sans-serif&quot;&gt;&lt;font size=&quot;3&quot;&gt;&lt;span itemscope=&quot;&quot; class=&quot;at-mentions-focus lpc-hoverTarget&quot; tabindex=&quot;0&quot;&gt;Maxime HABERMANN&lt;/span&gt;&lt;/font&gt;&lt;/div&gt;&lt;div style=&quot;box-sizing: border-box ; font-family: &amp;#34;segoe ui&amp;#34; , , &amp;#34;apple color emoji&amp;#34; , &amp;#34;segoe ui emoji&amp;#34; , sans-serif&quot;&gt;&lt;font size=&quot;3&quot;&gt;&lt;span itemscope=&quot;&quot; class=&quot;mention-me at-mentions-focus lpc-hoverTarget&quot; tabindex=&quot;0&quot;&gt;Mukilventhan GEORGE&lt;/span&gt;&lt;/font&gt;&lt;/div&gt;&lt;div style=&quot;box-sizing: border-box ; font-family: &amp;#34;segoe ui&amp;#34; , , &amp;#34;apple color emoji&amp;#34; , &amp;#34;segoe ui emoji&amp;#34; , sans-serif&quot;&gt;&lt;font size=&quot;3&quot;&gt;&lt;span itemscope=&quot;&quot; class=&quot;at-mentions-focus lpc-hoverTarget&quot; tabindex=&quot;0&quot;&gt;Mohamed WAZANE&lt;/span&gt;&lt;/font&gt;&lt;/div&gt;&lt;div style=&quot;box-sizing: border-box ; font-family: &amp;#34;segoe ui&amp;#34; , , &amp;#34;apple color emoji&amp;#34; , &amp;#34;segoe ui emoji&amp;#34; , sans-serif&quot;&gt;&lt;font size=&quot;3&quot;&gt;ThÃ©o PAYEN&lt;/font&gt;&lt;/div&gt;" style="rounded=0;whiteSpace=wrap;html=1;shadow=0;fontColor=#000000;fillColor=default;gradientColor=none;" parent="eNKekl6-0VWOWv20ekdD-1" vertex="1">
                    <mxGeometry x="1285" y="145" width="200" height="140" as="geometry"/>
                </mxCell>
                <mxCell id="bdy8Ne7c6f2UyASHZdTT-67" value="GENRE" style="swimlane;fontStyle=0;align=center;verticalAlign=top;childLayout=stackLayout;horizontal=1;startSize=26;horizontalStack=0;resizeParent=1;resizeLast=0;collapsible=1;marginBottom=0;rounded=0;shadow=0;strokeWidth=1;" parent="eNKekl6-0VWOWv20ekdD-1" vertex="1">
                    <mxGeometry x="150" y="1300" width="160" height="104" as="geometry">
                        <mxRectangle x="340" y="380" width="170" height="26" as="alternateBounds"/>
                    </mxGeometry>
                </mxCell>
                <mxCell id="bdy8Ne7c6f2UyASHZdTT-68" value="PK_ID_GENRE" style="text;align=left;verticalAlign=top;spacingLeft=4;spacingRight=4;overflow=hidden;rotatable=0;points=[[0,0.5],[1,0.5]];portConstraint=eastwest;strokeColor=#FF0000;" parent="bdy8Ne7c6f2UyASHZdTT-67" vertex="1">
                    <mxGeometry y="26" width="160" height="26" as="geometry"/>
                </mxCell>
                <mxCell id="bdy8Ne7c6f2UyASHZdTT-69" value="GENRE" style="text;align=left;verticalAlign=top;spacingLeft=4;spacingRight=4;overflow=hidden;rotatable=0;points=[[0,0.5],[1,0.5]];portConstraint=eastwest;" parent="bdy8Ne7c6f2UyASHZdTT-67" vertex="1">
                    <mxGeometry y="52" width="160" height="26" as="geometry"/>
                </mxCell>
                <mxCell id="XelNEqM88juOmGfK-nHK-27" value="FK_ID_filM" style="text;align=left;verticalAlign=top;spacingLeft=4;spacingRight=4;overflow=hidden;rotatable=0;points=[[0,0.5],[1,0.5]];portConstraint=eastwest;" parent="bdy8Ne7c6f2UyASHZdTT-67" vertex="1">
                    <mxGeometry y="78" width="160" height="26" as="geometry"/>
                </mxCell>
                <mxCell id="bdy8Ne7c6f2UyASHZdTT-70" value="&lt;span style=&quot;color: rgba(0 , 0 , 0 , 0) ; font-family: monospace ; font-size: 0px&quot;&gt;%3CmxGraphModel%3E%3Croot%3E%3CmxCell%20id%3D%220%22%2F%3E%3CmxCell%20id%3D%221%22%20parent%3D%220%22%2F%3E%3CmxCell%20id%3D%222%22%20value%3D%22PRIX_J_PRENALITER%22%20style%3D%22text%3Balign%3Dleft%3BverticalAlign%3Dtop%3BspacingLeft%3D4%3BspacingRight%3D4%3Boverflow%3Dhidden%3Brotatable%3D0%3Bpoints%3D%5B%5B0%2C0.5%5D%2C%5B1%2C0.5%5D%5D%3BportConstraint%3Deastwest%3B%22%20vertex%3D%221%22%20parent%3D%221%22%3E%3CmxGeometry%20x%3D%22230%22%20y%3D%22362%22%20width%3D%22160%22%20height%3D%2226%22%20as%3D%22geometry%22%2F%3E%3C%2FmxCell%3E%3C%2Froot%3E%3C%2FmxGraphModel%3E&lt;/span&gt;" style="ellipse;whiteSpace=wrap;html=1;" parent="eNKekl6-0VWOWv20ekdD-1" vertex="1">
                    <mxGeometry x="1100" y="1010" width="130" height="60" as="geometry"/>
                </mxCell>
                <mxCell id="bdy8Ne7c6f2UyASHZdTT-71" value="ECOUTER" style="text;html=1;strokeColor=none;fillColor=none;align=center;verticalAlign=middle;whiteSpace=wrap;rounded=0;" parent="eNKekl6-0VWOWv20ekdD-1" vertex="1">
                    <mxGeometry x="1150" y="1030" width="60" height="30" as="geometry"/>
                </mxCell>
                <mxCell id="bdy8Ne7c6f2UyASHZdTT-81" value="&lt;span style=&quot;color: rgba(0 , 0 , 0 , 0) ; font-family: monospace ; font-size: 0px&quot;&gt;%3CmxGraphModel%3E%3Croot%3E%3CmxCell%20id%3D%220%22%2F%3E%3CmxCell%20id%3D%221%22%20parent%3D%220%22%2F%3E%3CmxCell%20id%3D%222%22%20value%3D%22PRIX_J_PRENALITER%22%20style%3D%22text%3Balign%3Dleft%3BverticalAlign%3Dtop%3BspacingLeft%3D4%3BspacingRight%3D4%3Boverflow%3Dhidden%3Brotatable%3D0%3Bpoints%3D%5B%5B0%2C0.5%5D%2C%5B1%2C0.5%5D%5D%3BportConstraint%3Deastwest%3B%22%20vertex%3D%221%22%20parent%3D%221%22%3E%3CmxGeometry%20x%3D%22230%22%20y%3D%22362%22%20width%3D%22160%22%20height%3D%2226%22%20as%3D%22geometry%22%2F%3E%3C%2FmxCell%3E%3C%2Froot%3E%3C%2FmxGraphModel%3E&lt;/span&gt;" style="ellipse;whiteSpace=wrap;html=1;" parent="eNKekl6-0VWOWv20ekdD-1" vertex="1">
                    <mxGeometry x="565" y="1220" width="130" height="60" as="geometry"/>
                </mxCell>
                <mxCell id="bdy8Ne7c6f2UyASHZdTT-82" value="JOUER" style="text;html=1;strokeColor=none;fillColor=none;align=center;verticalAlign=middle;whiteSpace=wrap;rounded=0;" parent="eNKekl6-0VWOWv20ekdD-1" vertex="1">
                    <mxGeometry x="600" y="1235" width="60" height="30" as="geometry"/>
                </mxCell>
                <mxCell id="bdy8Ne7c6f2UyASHZdTT-100" value="CASSETTE" style="swimlane;fontStyle=0;align=center;verticalAlign=top;childLayout=stackLayout;horizontal=1;startSize=26;horizontalStack=0;resizeParent=1;resizeLast=0;collapsible=1;marginBottom=0;rounded=0;shadow=0;strokeWidth=1;" parent="eNKekl6-0VWOWv20ekdD-1" vertex="1">
                    <mxGeometry x="491" y="830" width="160" height="97.5" as="geometry">
                        <mxRectangle x="340" y="380" width="170" height="26" as="alternateBounds"/>
                    </mxGeometry>
                </mxCell>
                <mxCell id="bdy8Ne7c6f2UyASHZdTT-101" value="ID_CASSETTE" style="text;align=left;verticalAlign=top;spacingLeft=4;spacingRight=4;overflow=hidden;rotatable=0;points=[[0,0.5],[1,0.5]];portConstraint=eastwest;strokeColor=none;" parent="bdy8Ne7c6f2UyASHZdTT-100" vertex="1">
                    <mxGeometry y="26" width="160" height="26" as="geometry"/>
                </mxCell>
                <mxCell id="bdy8Ne7c6f2UyASHZdTT-102" value="TITRE CASSETTE" style="text;align=left;verticalAlign=top;spacingLeft=4;spacingRight=4;overflow=hidden;rotatable=0;points=[[0,0.5],[1,0.5]];portConstraint=eastwest;" parent="bdy8Ne7c6f2UyASHZdTT-100" vertex="1">
                    <mxGeometry y="52" width="160" height="26" as="geometry"/>
                </mxCell>
                <mxCell id="bdy8Ne7c6f2UyASHZdTT-103" value="DISQUES" style="swimlane;fontStyle=0;align=center;verticalAlign=top;childLayout=stackLayout;horizontal=1;startSize=26;horizontalStack=0;resizeParent=1;resizeLast=0;collapsible=1;marginBottom=0;rounded=0;shadow=0;strokeWidth=1;" parent="eNKekl6-0VWOWv20ekdD-1" vertex="1">
                    <mxGeometry x="1040" y="840" width="160" height="97.5" as="geometry">
                        <mxRectangle x="340" y="380" width="170" height="26" as="alternateBounds"/>
                    </mxGeometry>
                </mxCell>
                <mxCell id="bdy8Ne7c6f2UyASHZdTT-104" value="ID_DISQUE" style="text;align=left;verticalAlign=top;spacingLeft=4;spacingRight=4;overflow=hidden;rotatable=0;points=[[0,0.5],[1,0.5]];portConstraint=eastwest;strokeColor=none;" parent="bdy8Ne7c6f2UyASHZdTT-103" vertex="1">
                    <mxGeometry y="26" width="160" height="26" as="geometry"/>
                </mxCell>
                <mxCell id="bdy8Ne7c6f2UyASHZdTT-105" value="TITRES_DISQUE" style="text;align=left;verticalAlign=top;spacingLeft=4;spacingRight=4;overflow=hidden;rotatable=0;points=[[0,0.5],[1,0.5]];portConstraint=eastwest;" parent="bdy8Ne7c6f2UyASHZdTT-103" vertex="1">
                    <mxGeometry y="52" width="160" height="26" as="geometry"/>
                </mxCell>
                <mxCell id="bdy8Ne7c6f2UyASHZdTT-123" value="EMPRUNT" style="swimlane;fontStyle=0;align=center;verticalAlign=top;childLayout=stackLayout;horizontal=1;startSize=26;horizontalStack=0;resizeParent=1;resizeLast=0;collapsible=1;marginBottom=0;rounded=0;shadow=0;strokeWidth=1;" parent="eNKekl6-0VWOWv20ekdD-1" vertex="1">
                    <mxGeometry x="451" y="234.5" width="160" height="125" as="geometry">
                        <mxRectangle x="340" y="380" width="170" height="26" as="alternateBounds"/>
                    </mxGeometry>
                </mxCell>
                <mxCell id="bdy8Ne7c6f2UyASHZdTT-124" value="PK ID_EMPRUNT" style="text;align=left;verticalAlign=top;spacingLeft=4;spacingRight=4;overflow=hidden;rotatable=0;points=[[0,0.5],[1,0.5]];portConstraint=eastwest;strokeColor=#FF0000;" parent="bdy8Ne7c6f2UyASHZdTT-123" vertex="1">
                    <mxGeometry y="26" width="160" height="26" as="geometry"/>
                </mxCell>
                <mxCell id="bdy8Ne7c6f2UyASHZdTT-125" value="DATE_EMPRUNT" style="text;align=left;verticalAlign=top;spacingLeft=4;spacingRight=4;overflow=hidden;rotatable=0;points=[[0,0.5],[1,0.5]];portConstraint=eastwest;" parent="bdy8Ne7c6f2UyASHZdTT-123" vertex="1">
                    <mxGeometry y="52" width="160" height="26" as="geometry"/>
                </mxCell>
                <mxCell id="XelNEqM88juOmGfK-nHK-22" value="FK_ID_ABO" style="text;align=left;verticalAlign=top;spacingLeft=4;spacingRight=4;overflow=hidden;rotatable=0;points=[[0,0.5],[1,0.5]];portConstraint=eastwest;" parent="bdy8Ne7c6f2UyASHZdTT-123" vertex="1">
                    <mxGeometry y="78" width="160" height="26" as="geometry"/>
                </mxCell>
                <mxCell id="bdy8Ne7c6f2UyASHZdTT-128" value="ARTISTE" style="swimlane;fontStyle=0;align=center;verticalAlign=top;childLayout=stackLayout;horizontal=1;startSize=26;horizontalStack=0;resizeParent=1;resizeLast=0;collapsible=1;marginBottom=0;rounded=0;shadow=0;strokeWidth=1;" parent="eNKekl6-0VWOWv20ekdD-1" vertex="1">
                    <mxGeometry x="727" y="1669" width="160" height="110" as="geometry">
                        <mxRectangle x="340" y="380" width="170" height="26" as="alternateBounds"/>
                    </mxGeometry>
                </mxCell>
                <mxCell id="bdy8Ne7c6f2UyASHZdTT-129" value="PK_ID_ARTISTE" style="text;align=left;verticalAlign=top;spacingLeft=4;spacingRight=4;overflow=hidden;rotatable=0;points=[[0,0.5],[1,0.5]];portConstraint=eastwest;strokeColor=#FF0000;" parent="bdy8Ne7c6f2UyASHZdTT-128" vertex="1">
                    <mxGeometry y="26" width="160" height="26" as="geometry"/>
                </mxCell>
                <mxCell id="bdy8Ne7c6f2UyASHZdTT-130" value="NOM" style="text;align=left;verticalAlign=top;spacingLeft=4;spacingRight=4;overflow=hidden;rotatable=0;points=[[0,0.5],[1,0.5]];portConstraint=eastwest;" parent="bdy8Ne7c6f2UyASHZdTT-128" vertex="1">
                    <mxGeometry y="52" width="160" height="26" as="geometry"/>
                </mxCell>
                <mxCell id="bdy8Ne7c6f2UyASHZdTT-131" value="PRENOM" style="text;align=left;verticalAlign=top;spacingLeft=4;spacingRight=4;overflow=hidden;rotatable=0;points=[[0,0.5],[1,0.5]];portConstraint=eastwest;" parent="bdy8Ne7c6f2UyASHZdTT-128" vertex="1">
                    <mxGeometry y="78" width="160" height="26" as="geometry"/>
                </mxCell>
                <mxCell id="bdy8Ne7c6f2UyASHZdTT-137" value="RETOUR" style="swimlane;fontStyle=0;align=center;verticalAlign=top;childLayout=stackLayout;horizontal=1;startSize=26;horizontalStack=0;resizeParent=1;resizeLast=0;collapsible=1;marginBottom=0;rounded=0;shadow=0;strokeWidth=1;" parent="eNKekl6-0VWOWv20ekdD-1" vertex="1">
                    <mxGeometry x="1055" y="182.5" width="160" height="125" as="geometry">
                        <mxRectangle x="340" y="380" width="170" height="26" as="alternateBounds"/>
                    </mxGeometry>
                </mxCell>
                <mxCell id="bdy8Ne7c6f2UyASHZdTT-138" value="PK ID_RETOUR" style="text;align=left;verticalAlign=top;spacingLeft=4;spacingRight=4;overflow=hidden;rotatable=0;points=[[0,0.5],[1,0.5]];portConstraint=eastwest;strokeColor=#FF0000;" parent="bdy8Ne7c6f2UyASHZdTT-137" vertex="1">
                    <mxGeometry y="26" width="160" height="26" as="geometry"/>
                </mxCell>
                <mxCell id="bdy8Ne7c6f2UyASHZdTT-139" value="DATE_RENDU" style="text;align=left;verticalAlign=top;spacingLeft=4;spacingRight=4;overflow=hidden;rotatable=0;points=[[0,0.5],[1,0.5]];portConstraint=eastwest;" parent="bdy8Ne7c6f2UyASHZdTT-137" vertex="1">
                    <mxGeometry y="52" width="160" height="26" as="geometry"/>
                </mxCell>
                <mxCell id="XelNEqM88juOmGfK-nHK-24" value="FK_ID_Emprunt" style="text;align=left;verticalAlign=top;spacingLeft=4;spacingRight=4;overflow=hidden;rotatable=0;points=[[0,0.5],[1,0.5]];portConstraint=eastwest;" parent="bdy8Ne7c6f2UyASHZdTT-137" vertex="1">
                    <mxGeometry y="78" width="160" height="26" as="geometry"/>
                </mxCell>
                <mxCell id="bdy8Ne7c6f2UyASHZdTT-142" value="RENDRE" style="text;html=1;strokeColor=none;fillColor=none;align=center;verticalAlign=middle;whiteSpace=wrap;rounded=0;" parent="eNKekl6-0VWOWv20ekdD-1" vertex="1">
                    <mxGeometry x="982" y="367.5" width="58" height="30" as="geometry"/>
                </mxCell>
                <mxCell id="bdy8Ne7c6f2UyASHZdTT-166" value="" style="endArrow=classic;html=1;rounded=0;exitX=0;exitY=1;exitDx=0;exitDy=0;entryX=0.5;entryY=0;entryDx=0;entryDy=0;" parent="eNKekl6-0VWOWv20ekdD-1" source="bdy8Ne7c6f2UyASHZdTT-1" target="bdy8Ne7c6f2UyASHZdTT-24" edge="1">
                    <mxGeometry width="50" height="50" relative="1" as="geometry">
                        <mxPoint x="220" y="300" as="sourcePoint"/>
                        <mxPoint x="270" y="250" as="targetPoint"/>
                    </mxGeometry>
                </mxCell>
                <mxCell id="bdy8Ne7c6f2UyASHZdTT-168" value="" style="endArrow=classic;html=1;rounded=0;exitX=1;exitY=1;exitDx=0;exitDy=0;entryX=0.5;entryY=0;entryDx=0;entryDy=0;" parent="eNKekl6-0VWOWv20ekdD-1" source="bdy8Ne7c6f2UyASHZdTT-1" target="bdy8Ne7c6f2UyASHZdTT-53" edge="1">
                    <mxGeometry width="50" height="50" relative="1" as="geometry">
                        <mxPoint x="220" y="300" as="sourcePoint"/>
                        <mxPoint x="270" y="250" as="targetPoint"/>
                    </mxGeometry>
                </mxCell>
                <mxCell id="bdy8Ne7c6f2UyASHZdTT-170" value="" style="endArrow=classic;html=1;rounded=0;" parent="eNKekl6-0VWOWv20ekdD-1" edge="1">
                    <mxGeometry width="50" height="50" relative="1" as="geometry">
                        <mxPoint x="710" y="90" as="sourcePoint"/>
                        <mxPoint x="1000" y="90" as="targetPoint"/>
                        <Array as="points">
                            <mxPoint x="850" y="90"/>
                        </Array>
                    </mxGeometry>
                </mxCell>
                <mxCell id="bdy8Ne7c6f2UyASHZdTT-176" value="" style="endArrow=classic;html=1;rounded=0;exitX=0;exitY=0.5;exitDx=0;exitDy=0;entryX=1;entryY=0.5;entryDx=0;entryDy=0;startArrow=none;" parent="eNKekl6-0VWOWv20ekdD-1" source="XelNEqM88juOmGfK-nHK-0" target="bdy8Ne7c6f2UyASHZdTT-124" edge="1">
                    <mxGeometry width="50" height="50" relative="1" as="geometry">
                        <mxPoint x="620" y="550" as="sourcePoint"/>
                        <mxPoint x="200" y="590" as="targetPoint"/>
                    </mxGeometry>
                </mxCell>
                <mxCell id="bdy8Ne7c6f2UyASHZdTT-178" value="" style="endArrow=classic;startArrow=none;html=1;rounded=0;exitX=1;exitY=0.5;exitDx=0;exitDy=0;" parent="eNKekl6-0VWOWv20ekdD-1" source="bdy8Ne7c6f2UyASHZdTT-0" edge="1">
                    <mxGeometry width="50" height="50" relative="1" as="geometry">
                        <mxPoint x="620" y="550" as="sourcePoint"/>
                        <mxPoint x="710" y="620" as="targetPoint"/>
                    </mxGeometry>
                </mxCell>
                <mxCell id="bdy8Ne7c6f2UyASHZdTT-179" value="" style="endArrow=classic;html=1;rounded=0;exitX=1;exitY=0.5;exitDx=0;exitDy=0;entryX=-0.006;entryY=0.096;entryDx=0;entryDy=0;entryPerimeter=0;" parent="eNKekl6-0VWOWv20ekdD-1" source="bdy8Ne7c6f2UyASHZdTT-17" target="bdy8Ne7c6f2UyASHZdTT-48" edge="1">
                    <mxGeometry width="50" height="50" relative="1" as="geometry">
                        <mxPoint x="1190" y="590" as="sourcePoint"/>
                        <mxPoint x="1510" y="560" as="targetPoint"/>
                        <Array as="points"/>
                    </mxGeometry>
                </mxCell>
                <mxCell id="bdy8Ne7c6f2UyASHZdTT-180" value="" style="endArrow=classic;startArrow=classic;html=1;rounded=0;exitX=0.25;exitY=0;exitDx=0;exitDy=0;entryX=0.25;entryY=1;entryDx=0;entryDy=0;" parent="eNKekl6-0VWOWv20ekdD-1" source="bdy8Ne7c6f2UyASHZdTT-18" target="bdy8Ne7c6f2UyASHZdTT-100" edge="1">
                    <mxGeometry width="50" height="50" relative="1" as="geometry">
                        <mxPoint x="690" y="1190" as="sourcePoint"/>
                        <mxPoint x="550" y="930" as="targetPoint"/>
                    </mxGeometry>
                </mxCell>
                <mxCell id="bdy8Ne7c6f2UyASHZdTT-181" value="" style="endArrow=classic;startArrow=classic;html=1;rounded=0;exitX=0.75;exitY=0;exitDx=0;exitDy=0;entryX=1;entryY=0;entryDx=0;entryDy=0;" parent="eNKekl6-0VWOWv20ekdD-1" source="bdy8Ne7c6f2UyASHZdTT-21" edge="1">
                    <mxGeometry width="50" height="50" relative="1" as="geometry">
                        <mxPoint x="1090" y="1120" as="sourcePoint"/>
                        <mxPoint x="1175" y="939" as="targetPoint"/>
                    </mxGeometry>
                </mxCell>
                <mxCell id="bdy8Ne7c6f2UyASHZdTT-182" value="" style="endArrow=classic;startArrow=classic;html=1;rounded=0;entryX=0;entryY=0.5;entryDx=0;entryDy=0;" parent="eNKekl6-0VWOWv20ekdD-1" target="bdy8Ne7c6f2UyASHZdTT-20" edge="1">
                    <mxGeometry width="50" height="50" relative="1" as="geometry">
                        <mxPoint x="230" y="1300" as="sourcePoint"/>
                        <mxPoint x="651" y="1190" as="targetPoint"/>
                        <Array as="points">
                            <mxPoint x="320" y="1250"/>
                        </Array>
                    </mxGeometry>
                </mxCell>
                <mxCell id="XelNEqM88juOmGfK-nHK-1" value="RETOUNER" style="text;html=1;strokeColor=none;fillColor=none;align=center;verticalAlign=middle;whiteSpace=wrap;rounded=0;" parent="eNKekl6-0VWOWv20ekdD-1" vertex="1">
                    <mxGeometry x="823" y="230" width="58" height="30" as="geometry"/>
                </mxCell>
                <mxCell id="XelNEqM88juOmGfK-nHK-2" value="" style="endArrow=classic;html=1;rounded=0;entryX=1;entryY=0.5;entryDx=0;entryDy=0;exitX=0;exitY=0.5;exitDx=0;exitDy=0;" parent="eNKekl6-0VWOWv20ekdD-1" source="bdy8Ne7c6f2UyASHZdTT-8" edge="1">
                    <mxGeometry width="50" height="50" relative="1" as="geometry">
                        <mxPoint x="670" y="370" as="sourcePoint"/>
                        <mxPoint x="260" y="106" as="targetPoint"/>
                    </mxGeometry>
                </mxCell>
                <mxCell id="XelNEqM88juOmGfK-nHK-3" value="" style="endArrow=classic;html=1;rounded=0;exitX=0;exitY=1;exitDx=0;exitDy=0;entryX=0.5;entryY=0;entryDx=0;entryDy=0;startArrow=none;" parent="eNKekl6-0VWOWv20ekdD-1" source="bdy8Ne7c6f2UyASHZdTT-141" target="bdy8Ne7c6f2UyASHZdTT-14" edge="1">
                    <mxGeometry width="50" height="50" relative="1" as="geometry">
                        <mxPoint x="1149.98" y="307.496" as="sourcePoint"/>
                        <mxPoint x="290.02" y="634.37" as="targetPoint"/>
                    </mxGeometry>
                </mxCell>
                <mxCell id="XelNEqM88juOmGfK-nHK-6" value="" style="endArrow=classic;startArrow=classic;html=1;rounded=0;entryX=0.675;entryY=1.077;entryDx=0;entryDy=0;entryPerimeter=0;exitX=0.25;exitY=0;exitDx=0;exitDy=0;" parent="eNKekl6-0VWOWv20ekdD-1" source="bdy8Ne7c6f2UyASHZdTT-128" target="bdy8Ne7c6f2UyASHZdTT-20" edge="1">
                    <mxGeometry width="50" height="50" relative="1" as="geometry">
                        <mxPoint x="520" y="1280" as="sourcePoint"/>
                        <mxPoint x="570" y="1230" as="targetPoint"/>
                    </mxGeometry>
                </mxCell>
                <mxCell id="XelNEqM88juOmGfK-nHK-7" value="" style="endArrow=classic;startArrow=classic;html=1;rounded=0;entryX=0.675;entryY=1.077;entryDx=0;entryDy=0;entryPerimeter=0;exitX=0.25;exitY=0;exitDx=0;exitDy=0;" parent="eNKekl6-0VWOWv20ekdD-1" edge="1">
                    <mxGeometry width="50" height="50" relative="1" as="geometry">
                        <mxPoint x="799" y="1669" as="sourcePoint"/>
                        <mxPoint x="630" y="1190.002" as="targetPoint"/>
                    </mxGeometry>
                </mxCell>
                <mxCell id="XelNEqM88juOmGfK-nHK-8" value="" style="endArrow=classic;startArrow=classic;html=1;rounded=0;entryX=0.238;entryY=1.154;entryDx=0;entryDy=0;entryPerimeter=0;exitX=0.563;exitY=0.009;exitDx=0;exitDy=0;exitPerimeter=0;" parent="eNKekl6-0VWOWv20ekdD-1" source="bdy8Ne7c6f2UyASHZdTT-128" target="bdy8Ne7c6f2UyASHZdTT-23" edge="1">
                    <mxGeometry width="50" height="50" relative="1" as="geometry">
                        <mxPoint x="809" y="1679" as="sourcePoint"/>
                        <mxPoint x="640" y="1200.002" as="targetPoint"/>
                    </mxGeometry>
                </mxCell>
                <mxCell id="XelNEqM88juOmGfK-nHK-10" value="" style="endArrow=classic;startArrow=classic;html=1;rounded=0;entryX=0.238;entryY=1.154;entryDx=0;entryDy=0;entryPerimeter=0;exitX=0.563;exitY=0.009;exitDx=0;exitDy=0;exitPerimeter=0;" parent="eNKekl6-0VWOWv20ekdD-1" edge="1">
                    <mxGeometry width="50" height="50" relative="1" as="geometry">
                        <mxPoint x="839.9999999999999" y="1668.9999999999998" as="sourcePoint"/>
                        <mxPoint x="1101" y="1241.014" as="targetPoint"/>
                    </mxGeometry>
                </mxCell>
                <mxCell id="XelNEqM88juOmGfK-nHK-11" value="" style="endArrow=classic;startArrow=classic;html=1;rounded=0;entryX=0.238;entryY=1.154;entryDx=0;entryDy=0;entryPerimeter=0;exitX=0.563;exitY=0.009;exitDx=0;exitDy=0;exitPerimeter=0;fontStyle=1" parent="eNKekl6-0VWOWv20ekdD-1" edge="1">
                    <mxGeometry width="50" height="50" relative="1" as="geometry">
                        <mxPoint x="879.9999999999999" y="1668.9999999999998" as="sourcePoint"/>
                        <mxPoint x="1141" y="1241.014" as="targetPoint"/>
                    </mxGeometry>
                </mxCell>
                <mxCell id="bdy8Ne7c6f2UyASHZdTT-141" value="&lt;span style=&quot;color: rgba(0 , 0 , 0 , 0) ; font-family: monospace ; font-size: 0px&quot;&gt;%3CmxGraphModel%3E%3Croot%3E%3CmxCell%20id%3D%220%22%2F%3E%3CmxCell%20id%3D%221%22%20parent%3D%220%22%2F%3E%3CmxCell%20id%3D%222%22%20value%3D%22PRIX_J_PRENALITER%22%20style%3D%22text%3Balign%3Dleft%3BverticalAlign%3Dtop%3BspacingLeft%3D4%3BspacingRight%3D4%3Boverflow%3Dhidden%3Brotatable%3D0%3Bpoints%3D%5B%5B0%2C0.5%5D%2C%5B1%2C0.5%5D%5D%3BportConstraint%3Deastwest%3B%22%20vertex%3D%221%22%20parent%3D%221%22%3E%3CmxGeometry%20x%3D%22230%22%20y%3D%22362%22%20width%3D%22160%22%20height%3D%2226%22%20as%3D%22geometry%22%2F%3E%3C%2FmxCell%3E%3C%2Froot%3E%3C%2FmxGraphModel%3E&lt;/span&gt;" style="ellipse;whiteSpace=wrap;html=1;" parent="eNKekl6-0VWOWv20ekdD-1" vertex="1">
                    <mxGeometry x="960" y="337.5" width="130" height="60" as="geometry"/>
                </mxCell>
                <mxCell id="XelNEqM88juOmGfK-nHK-12" value="" style="endArrow=none;html=1;rounded=0;exitX=0.031;exitY=1.101;exitDx=0;exitDy=0;exitPerimeter=0;entryX=0.5;entryY=0;entryDx=0;entryDy=0;" parent="eNKekl6-0VWOWv20ekdD-1" target="bdy8Ne7c6f2UyASHZdTT-141" edge="1">
                    <mxGeometry width="50" height="50" relative="1" as="geometry">
                        <mxPoint x="1149.98" y="307.4960000000001" as="sourcePoint"/>
                        <mxPoint x="796" y="520" as="targetPoint"/>
                    </mxGeometry>
                </mxCell>
                <mxCell id="XelNEqM88juOmGfK-nHK-13" value="RENDRE" style="text;html=1;strokeColor=none;fillColor=none;align=center;verticalAlign=middle;whiteSpace=wrap;rounded=0;" parent="eNKekl6-0VWOWv20ekdD-1" vertex="1">
                    <mxGeometry x="996" y="352.5" width="58" height="30" as="geometry"/>
                </mxCell>
                <mxCell id="XelNEqM88juOmGfK-nHK-16" value="" style="endArrow=none;startArrow=classic;html=1;rounded=0;exitX=0.5;exitY=1;exitDx=0;exitDy=0;" parent="eNKekl6-0VWOWv20ekdD-1" source="bdy8Ne7c6f2UyASHZdTT-123" target="bdy8Ne7c6f2UyASHZdTT-0" edge="1">
                    <mxGeometry width="50" height="50" relative="1" as="geometry">
                        <mxPoint x="240" y="628" as="sourcePoint"/>
                        <mxPoint x="710" y="620" as="targetPoint"/>
                    </mxGeometry>
                </mxCell>
                <mxCell id="XelNEqM88juOmGfK-nHK-17" value="" style="endArrow=none;html=1;rounded=0;exitX=0;exitY=0.5;exitDx=0;exitDy=0;entryX=1;entryY=0.5;entryDx=0;entryDy=0;" parent="eNKekl6-0VWOWv20ekdD-1" source="bdy8Ne7c6f2UyASHZdTT-139" target="XelNEqM88juOmGfK-nHK-0" edge="1">
                    <mxGeometry width="50" height="50" relative="1" as="geometry">
                        <mxPoint x="1059.96" y="263.126" as="sourcePoint"/>
                        <mxPoint x="531" y="234.5" as="targetPoint"/>
                    </mxGeometry>
                </mxCell>
                <mxCell id="XelNEqM88juOmGfK-nHK-23" value="" style="endArrow=classic;html=1;rounded=0;entryX=0.356;entryY=1.077;entryDx=0;entryDy=0;entryPerimeter=0;exitX=0.5;exitY=0;exitDx=0;exitDy=0;" parent="eNKekl6-0VWOWv20ekdD-1" source="bdy8Ne7c6f2UyASHZdTT-123" target="XelNEqM88juOmGfK-nHK-21" edge="1">
                    <mxGeometry width="50" height="50" relative="1" as="geometry">
                        <mxPoint x="600" y="390" as="sourcePoint"/>
                        <mxPoint x="650" y="340" as="targetPoint"/>
                    </mxGeometry>
                </mxCell>
                <mxCell id="mIzr-ImfizBztqzJ0hFv-0" value="" style="endArrow=classic;html=1;rounded=0;entryX=0.5;entryY=0;entryDx=0;entryDy=0;exitX=0.5;exitY=1;exitDx=0;exitDy=0;" parent="eNKekl6-0VWOWv20ekdD-1" source="bdy8Ne7c6f2UyASHZdTT-14" target="bdy8Ne7c6f2UyASHZdTT-100" edge="1">
                    <mxGeometry width="50" height="50" relative="1" as="geometry">
                        <mxPoint x="680" y="710" as="sourcePoint"/>
                        <mxPoint x="730" y="660" as="targetPoint"/>
                        <Array as="points">
                            <mxPoint x="750" y="720"/>
                        </Array>
                    </mxGeometry>
                </mxCell>
                <mxCell id="mIzr-ImfizBztqzJ0hFv-1" value="" style="endArrow=classic;html=1;rounded=0;entryX=0.5;entryY=0;entryDx=0;entryDy=0;" parent="eNKekl6-0VWOWv20ekdD-1" target="bdy8Ne7c6f2UyASHZdTT-103" edge="1">
                    <mxGeometry width="50" height="50" relative="1" as="geometry">
                        <mxPoint x="750" y="720" as="sourcePoint"/>
                        <mxPoint x="890" y="750" as="targetPoint"/>
                    </mxGeometry>
                </mxCell>
            </root>
        </mxGraphModel>
    </diagram>
    <diagram name="MLD en cours v2" id="TuVi2Lfk0JmECx2ISc3c">
        <mxGraphModel dx="1614" dy="782" grid="1" gridSize="10" guides="1" tooltips="1" connect="1" arrows="1" fold="1" page="1" pageScale="1" pageWidth="827" pageHeight="1169" math="0" shadow="0">
            <root>
                <mxCell id="o57jsqLY2e908bK7gBOk-0"/>
                <mxCell id="o57jsqLY2e908bK7gBOk-1" parent="o57jsqLY2e908bK7gBOk-0"/>
                <mxCell id="o57jsqLY2e908bK7gBOk-2" value="&lt;span style=&quot;color: rgba(0 , 0 , 0 , 0) ; font-family: monospace ; font-size: 0px&quot;&gt;%3CmxGraphModel%3E%3Croot%3E%3CmxCell%20id%3D%220%22%2F%3E%3CmxCell%20id%3D%221%22%20parent%3D%220%22%2F%3E%3CmxCell%20id%3D%222%22%20value%3D%22PRIX_J_PRENALITER%22%20style%3D%22text%3Balign%3Dleft%3BverticalAlign%3Dtop%3BspacingLeft%3D4%3BspacingRight%3D4%3Boverflow%3Dhidden%3Brotatable%3D0%3Bpoints%3D%5B%5B0%2C0.5%5D%2C%5B1%2C0.5%5D%5D%3BportConstraint%3Deastwest%3B%22%20vertex%3D%221%22%20parent%3D%221%22%3E%3CmxGeometry%20x%3D%22230%22%20y%3D%22362%22%20width%3D%22160%22%20height%3D%2226%22%20as%3D%22geometry%22%2F%3E%3C%2FmxCell%3E%3C%2Froot%3E%3C%2FmxGraphModel%3E&lt;/span&gt;" style="ellipse;whiteSpace=wrap;html=1;" parent="o57jsqLY2e908bK7gBOk-1" vertex="1">
                    <mxGeometry x="790" y="215" width="130" height="60" as="geometry"/>
                </mxCell>
                <mxCell id="o57jsqLY2e908bK7gBOk-3" value="&lt;span style=&quot;color: rgba(0 , 0 , 0 , 0) ; font-family: monospace ; font-size: 0px&quot;&gt;%3CmxGraphModel%3E%3Croot%3E%3CmxCell%20id%3D%220%22%2F%3E%3CmxCell%20id%3D%221%22%20parent%3D%220%22%2F%3E%3CmxCell%20id%3D%222%22%20value%3D%22PRIX_J_PRENALITER%22%20style%3D%22text%3Balign%3Dleft%3BverticalAlign%3Dtop%3BspacingLeft%3D4%3BspacingRight%3D4%3Boverflow%3Dhidden%3Brotatable%3D0%3Bpoints%3D%5B%5B0%2C0.5%5D%2C%5B1%2C0.5%5D%5D%3BportConstraint%3Deastwest%3B%22%20vertex%3D%221%22%20parent%3D%221%22%3E%3CmxGeometry%20x%3D%22230%22%20y%3D%22362%22%20width%3D%22160%22%20height%3D%2226%22%20as%3D%22geometry%22%2F%3E%3C%2FmxCell%3E%3C%2Froot%3E%3C%2FmxGraphModel%3E&lt;/span&gt;" style="ellipse;whiteSpace=wrap;html=1;" parent="o57jsqLY2e908bK7gBOk-1" vertex="1">
                    <mxGeometry x="420" y="581" width="130" height="60" as="geometry"/>
                </mxCell>
                <mxCell id="o57jsqLY2e908bK7gBOk-4" value="UTILISATEUR" style="swimlane;fontStyle=2;align=center;verticalAlign=top;childLayout=stackLayout;horizontal=1;startSize=26;horizontalStack=0;resizeParent=1;resizeLast=0;collapsible=1;marginBottom=0;rounded=0;shadow=0;strokeWidth=1;" parent="o57jsqLY2e908bK7gBOk-1" vertex="1">
                    <mxGeometry x="100" y="15" width="160" height="182" as="geometry">
                        <mxRectangle x="230" y="140" width="160" height="26" as="alternateBounds"/>
                    </mxGeometry>
                </mxCell>
                <mxCell id="o57jsqLY2e908bK7gBOk-5" value="PK ID_USERÂ " style="text;align=left;verticalAlign=top;spacingLeft=4;spacingRight=4;overflow=hidden;rotatable=0;points=[[0,0.5],[1,0.5]];portConstraint=eastwest;rounded=0;shadow=0;html=0;strokeColor=#FF0000;" parent="o57jsqLY2e908bK7gBOk-4" vertex="1">
                    <mxGeometry y="26" width="160" height="26" as="geometry"/>
                </mxCell>
                <mxCell id="o57jsqLY2e908bK7gBOk-6" value="NOM" style="text;align=left;verticalAlign=top;spacingLeft=4;spacingRight=4;overflow=hidden;rotatable=0;points=[[0,0.5],[1,0.5]];portConstraint=eastwest;rounded=0;shadow=0;html=0;" parent="o57jsqLY2e908bK7gBOk-4" vertex="1">
                    <mxGeometry y="52" width="160" height="26" as="geometry"/>
                </mxCell>
                <mxCell id="o57jsqLY2e908bK7gBOk-7" value="PRENOM" style="text;align=left;verticalAlign=top;spacingLeft=4;spacingRight=4;overflow=hidden;rotatable=0;points=[[0,0.5],[1,0.5]];portConstraint=eastwest;rounded=0;shadow=0;html=0;" parent="o57jsqLY2e908bK7gBOk-4" vertex="1">
                    <mxGeometry y="78" width="160" height="26" as="geometry"/>
                </mxCell>
                <mxCell id="o57jsqLY2e908bK7gBOk-8" value="EMAIL" style="text;align=left;verticalAlign=top;spacingLeft=4;spacingRight=4;overflow=hidden;rotatable=0;points=[[0,0.5],[1,0.5]];portConstraint=eastwest;" parent="o57jsqLY2e908bK7gBOk-4" vertex="1">
                    <mxGeometry y="104" width="160" height="26" as="geometry"/>
                </mxCell>
                <mxCell id="o57jsqLY2e908bK7gBOk-9" value="FK_ID_Commune" style="text;align=left;verticalAlign=top;spacingLeft=4;spacingRight=4;overflow=hidden;rotatable=0;points=[[0,0.5],[1,0.5]];portConstraint=eastwest;" parent="o57jsqLY2e908bK7gBOk-4" vertex="1">
                    <mxGeometry y="130" width="160" height="26" as="geometry"/>
                </mxCell>
                <mxCell id="o57jsqLY2e908bK7gBOk-10" value="FK_ID_CatÃ©gorie social" style="text;align=left;verticalAlign=top;spacingLeft=4;spacingRight=4;overflow=hidden;rotatable=0;points=[[0,0.5],[1,0.5]];portConstraint=eastwest;" parent="o57jsqLY2e908bK7gBOk-4" vertex="1">
                    <mxGeometry y="156" width="160" height="26" as="geometry"/>
                </mxCell>
                <mxCell id="o57jsqLY2e908bK7gBOk-11" value="ABONNEMENT" style="swimlane;fontStyle=0;align=center;verticalAlign=top;childLayout=stackLayout;horizontal=1;startSize=26;horizontalStack=0;resizeParent=1;resizeLast=0;collapsible=1;marginBottom=0;rounded=0;shadow=0;strokeWidth=1;" parent="o57jsqLY2e908bK7gBOk-1" vertex="1">
                    <mxGeometry x="550" y="15" width="160" height="156" as="geometry">
                        <mxRectangle x="550" y="140" width="160" height="26" as="alternateBounds"/>
                    </mxGeometry>
                </mxCell>
                <mxCell id="o57jsqLY2e908bK7gBOk-12" value="PK ID_ABO" style="text;align=left;verticalAlign=top;spacingLeft=4;spacingRight=4;overflow=hidden;rotatable=0;points=[[0,0.5],[1,0.5]];portConstraint=eastwest;rounded=0;shadow=0;html=0;strokeColor=#FF0000;" parent="o57jsqLY2e908bK7gBOk-11" vertex="1">
                    <mxGeometry y="26" width="160" height="26" as="geometry"/>
                </mxCell>
                <mxCell id="o57jsqLY2e908bK7gBOk-13" value="DATE_ADHESION" style="text;align=left;verticalAlign=top;spacingLeft=4;spacingRight=4;overflow=hidden;rotatable=0;points=[[0,0.5],[1,0.5]];portConstraint=eastwest;rounded=0;shadow=0;html=0;" parent="o57jsqLY2e908bK7gBOk-11" vertex="1">
                    <mxGeometry y="52" width="160" height="26" as="geometry"/>
                </mxCell>
                <mxCell id="o57jsqLY2e908bK7gBOk-14" value="FIN_ADHESION" style="text;align=left;verticalAlign=top;spacingLeft=4;spacingRight=4;overflow=hidden;rotatable=0;points=[[0,0.5],[1,0.5]];portConstraint=eastwest;rounded=0;shadow=0;html=0;" parent="o57jsqLY2e908bK7gBOk-11" vertex="1">
                    <mxGeometry y="78" width="160" height="26" as="geometry"/>
                </mxCell>
                <mxCell id="o57jsqLY2e908bK7gBOk-15" value="FK_ID_USER" style="text;align=left;verticalAlign=top;spacingLeft=4;spacingRight=4;overflow=hidden;rotatable=0;points=[[0,0.5],[1,0.5]];portConstraint=eastwest;" parent="o57jsqLY2e908bK7gBOk-11" vertex="1">
                    <mxGeometry y="104" width="160" height="26" as="geometry"/>
                </mxCell>
                <mxCell id="o57jsqLY2e908bK7gBOk-16" value="FK_ID_Type_Abonement" style="text;align=left;verticalAlign=top;spacingLeft=4;spacingRight=4;overflow=hidden;rotatable=0;points=[[0,0.5],[1,0.5]];portConstraint=eastwest;" parent="o57jsqLY2e908bK7gBOk-11" vertex="1">
                    <mxGeometry y="130" width="160" height="26" as="geometry"/>
                </mxCell>
                <mxCell id="o57jsqLY2e908bK7gBOk-17" value="OBJET" style="swimlane;fontStyle=0;align=center;verticalAlign=top;childLayout=stackLayout;horizontal=1;startSize=26;horizontalStack=0;resizeParent=1;resizeLast=0;collapsible=1;marginBottom=0;rounded=0;shadow=0;strokeWidth=1;" parent="o57jsqLY2e908bK7gBOk-1" vertex="1">
                    <mxGeometry x="711" y="520" width="170" height="140" as="geometry">
                        <mxRectangle x="340" y="380" width="170" height="26" as="alternateBounds"/>
                    </mxGeometry>
                </mxCell>
                <mxCell id="o57jsqLY2e908bK7gBOk-18" value="PK ID_OBJET" style="text;align=left;verticalAlign=top;spacingLeft=4;spacingRight=4;overflow=hidden;rotatable=0;points=[[0,0.5],[1,0.5]];portConstraint=eastwest;strokeColor=#FF0000;" parent="o57jsqLY2e908bK7gBOk-17" vertex="1">
                    <mxGeometry y="26" width="170" height="26" as="geometry"/>
                </mxCell>
                <mxCell id="o57jsqLY2e908bK7gBOk-19" value="NOMBRE_ARTICLE" style="text;align=left;verticalAlign=top;spacingLeft=4;spacingRight=4;overflow=hidden;rotatable=0;points=[[0,0.5],[1,0.5]];portConstraint=eastwest;" parent="o57jsqLY2e908bK7gBOk-17" vertex="1">
                    <mxGeometry y="52" width="170" height="26" as="geometry"/>
                </mxCell>
                <mxCell id="o57jsqLY2e908bK7gBOk-20" value="PRIX_OBJET" style="text;align=left;verticalAlign=top;spacingLeft=4;spacingRight=4;overflow=hidden;rotatable=0;points=[[0,0.5],[1,0.5]];portConstraint=eastwest;" parent="o57jsqLY2e908bK7gBOk-17" vertex="1">
                    <mxGeometry y="78" width="170" height="26" as="geometry"/>
                </mxCell>
                <mxCell id="o57jsqLY2e908bK7gBOk-21" value="FK_ID_Emprunt" style="text;align=left;verticalAlign=top;spacingLeft=4;spacingRight=4;overflow=hidden;rotatable=0;points=[[0,0.5],[1,0.5]];portConstraint=eastwest;" parent="o57jsqLY2e908bK7gBOk-17" vertex="1">
                    <mxGeometry y="104" width="170" height="26" as="geometry"/>
                </mxCell>
                <mxCell id="o57jsqLY2e908bK7gBOk-22" value="FILM" style="swimlane;fontStyle=0;align=center;verticalAlign=top;childLayout=stackLayout;horizontal=1;startSize=26;horizontalStack=0;resizeParent=1;resizeLast=0;collapsible=1;marginBottom=0;rounded=0;shadow=0;strokeWidth=1;" parent="o57jsqLY2e908bK7gBOk-1" vertex="1">
                    <mxGeometry x="490" y="1110" width="160" height="80" as="geometry">
                        <mxRectangle x="340" y="380" width="170" height="26" as="alternateBounds"/>
                    </mxGeometry>
                </mxCell>
                <mxCell id="o57jsqLY2e908bK7gBOk-23" value="PK ID_FILM" style="text;align=left;verticalAlign=top;spacingLeft=4;spacingRight=4;overflow=hidden;rotatable=0;points=[[0,0.5],[1,0.5]];portConstraint=eastwest;strokeColor=#FF0000;" parent="o57jsqLY2e908bK7gBOk-22" vertex="1">
                    <mxGeometry y="26" width="160" height="26" as="geometry"/>
                </mxCell>
                <mxCell id="o57jsqLY2e908bK7gBOk-24" value="TITRE" style="text;align=left;verticalAlign=top;spacingLeft=4;spacingRight=4;overflow=hidden;rotatable=0;points=[[0,0.5],[1,0.5]];portConstraint=eastwest;" parent="o57jsqLY2e908bK7gBOk-22" vertex="1">
                    <mxGeometry y="52" width="160" height="26" as="geometry"/>
                </mxCell>
                <mxCell id="o57jsqLY2e908bK7gBOk-25" value="MUSIC" style="swimlane;fontStyle=0;align=center;verticalAlign=top;childLayout=stackLayout;horizontal=1;startSize=26;horizontalStack=0;resizeParent=1;resizeLast=0;collapsible=1;marginBottom=0;rounded=0;shadow=0;strokeWidth=1;" parent="o57jsqLY2e908bK7gBOk-1" vertex="1">
                    <mxGeometry x="1040" y="1160" width="160" height="80" as="geometry">
                        <mxRectangle x="340" y="380" width="170" height="26" as="alternateBounds"/>
                    </mxGeometry>
                </mxCell>
                <mxCell id="o57jsqLY2e908bK7gBOk-26" value="PK D_MUSIQUE" style="text;align=left;verticalAlign=top;spacingLeft=4;spacingRight=4;overflow=hidden;rotatable=0;points=[[0,0.5],[1,0.5]];portConstraint=eastwest;strokeColor=#FF0000;" parent="o57jsqLY2e908bK7gBOk-25" vertex="1">
                    <mxGeometry y="26" width="160" height="26" as="geometry"/>
                </mxCell>
                <mxCell id="o57jsqLY2e908bK7gBOk-27" value="TITRE" style="text;align=left;verticalAlign=top;spacingLeft=4;spacingRight=4;overflow=hidden;rotatable=0;points=[[0,0.5],[1,0.5]];portConstraint=eastwest;" parent="o57jsqLY2e908bK7gBOk-25" vertex="1">
                    <mxGeometry y="52" width="160" height="26" as="geometry"/>
                </mxCell>
                <mxCell id="o57jsqLY2e908bK7gBOk-28" value="Commune" style="swimlane;fontStyle=0;align=center;verticalAlign=top;childLayout=stackLayout;horizontal=1;startSize=26;horizontalStack=0;resizeParent=1;resizeLast=0;collapsible=1;marginBottom=0;rounded=0;shadow=0;strokeWidth=1;" parent="o57jsqLY2e908bK7gBOk-1" vertex="1">
                    <mxGeometry x="20" y="360" width="160" height="90" as="geometry">
                        <mxRectangle x="70" y="410" width="170" height="26" as="alternateBounds"/>
                    </mxGeometry>
                </mxCell>
                <mxCell id="o57jsqLY2e908bK7gBOk-29" value="PK ID_Commune" style="text;align=left;verticalAlign=top;spacingLeft=4;spacingRight=4;overflow=hidden;rotatable=0;points=[[0,0.5],[1,0.5]];portConstraint=eastwest;strokeColor=#FF0000;" parent="o57jsqLY2e908bK7gBOk-28" vertex="1">
                    <mxGeometry y="26" width="160" height="26" as="geometry"/>
                </mxCell>
                <mxCell id="o57jsqLY2e908bK7gBOk-30" value="Ville" style="text;align=left;verticalAlign=top;spacingLeft=4;spacingRight=4;overflow=hidden;rotatable=0;points=[[0,0.5],[1,0.5]];portConstraint=eastwest;" parent="o57jsqLY2e908bK7gBOk-28" vertex="1">
                    <mxGeometry y="52" width="160" height="26" as="geometry"/>
                </mxCell>
                <mxCell id="o57jsqLY2e908bK7gBOk-31" value="&lt;span style=&quot;color: rgba(0 , 0 , 0 , 0) ; font-family: monospace ; font-size: 0px&quot;&gt;%3CmxGraphModel%3E%3Croot%3E%3CmxCell%20id%3D%220%22%2F%3E%3CmxCell%20id%3D%221%22%20parent%3D%220%22%2F%3E%3CmxCell%20id%3D%222%22%20value%3D%22PRIX_J_PRENALITER%22%20style%3D%22text%3Balign%3Dleft%3BverticalAlign%3Dtop%3BspacingLeft%3D4%3BspacingRight%3D4%3Boverflow%3Dhidden%3Brotatable%3D0%3Bpoints%3D%5B%5B0%2C0.5%5D%2C%5B1%2C0.5%5D%5D%3BportConstraint%3Deastwest%3B%22%20vertex%3D%221%22%20parent%3D%221%22%3E%3CmxGeometry%20x%3D%22230%22%20y%3D%22362%22%20width%3D%22160%22%20height%3D%2226%22%20as%3D%22geometry%22%2F%3E%3C%2FmxCell%3E%3C%2Froot%3E%3C%2FmxGraphModel%3E&lt;/span&gt;" style="ellipse;whiteSpace=wrap;html=1;" parent="o57jsqLY2e908bK7gBOk-1" vertex="1">
                    <mxGeometry x="466" y="985" width="130" height="60" as="geometry"/>
                </mxCell>
                <mxCell id="o57jsqLY2e908bK7gBOk-32" value="VISIONER" style="text;html=1;strokeColor=none;fillColor=none;align=center;verticalAlign=middle;whiteSpace=wrap;rounded=0;" parent="o57jsqLY2e908bK7gBOk-1" vertex="1">
                    <mxGeometry x="475" y="1000" width="80" height="30" as="geometry"/>
                </mxCell>
                <mxCell id="o57jsqLY2e908bK7gBOk-33" value="EMPRUNTER" style="text;html=1;strokeColor=none;fillColor=none;align=center;verticalAlign=middle;whiteSpace=wrap;rounded=0;" parent="o57jsqLY2e908bK7gBOk-1" vertex="1">
                    <mxGeometry x="455" y="596" width="60" height="30" as="geometry"/>
                </mxCell>
                <mxCell id="o57jsqLY2e908bK7gBOk-34" value="TYPE_ABONEMENTÂ " style="swimlane;fontStyle=0;align=center;verticalAlign=top;childLayout=stackLayout;horizontal=1;startSize=26;horizontalStack=0;resizeParent=1;resizeLast=0;collapsible=1;marginBottom=0;rounded=0;shadow=0;strokeWidth=1;" parent="o57jsqLY2e908bK7gBOk-1" vertex="1">
                    <mxGeometry x="1000" y="20" width="160" height="110" as="geometry">
                        <mxRectangle x="70" y="410" width="170" height="26" as="alternateBounds"/>
                    </mxGeometry>
                </mxCell>
                <mxCell id="o57jsqLY2e908bK7gBOk-35" value="PK ID TYPE abonnement" style="text;align=left;verticalAlign=top;spacingLeft=4;spacingRight=4;overflow=hidden;rotatable=0;points=[[0,0.5],[1,0.5]];portConstraint=eastwest;strokeColor=#FF0000;" parent="o57jsqLY2e908bK7gBOk-34" vertex="1">
                    <mxGeometry y="26" width="160" height="26" as="geometry"/>
                </mxCell>
                <mxCell id="o57jsqLY2e908bK7gBOk-36" value="PRIX_PAR_MOIS" style="text;align=left;verticalAlign=top;spacingLeft=4;spacingRight=4;overflow=hidden;rotatable=0;points=[[0,0.5],[1,0.5]];portConstraint=eastwest;" parent="o57jsqLY2e908bK7gBOk-34" vertex="1">
                    <mxGeometry y="52" width="160" height="26" as="geometry"/>
                </mxCell>
                <mxCell id="o57jsqLY2e908bK7gBOk-37" value="NOMBRE_EMPRUNT" style="text;align=left;verticalAlign=top;spacingLeft=4;spacingRight=4;overflow=hidden;rotatable=0;points=[[0,0.5],[1,0.5]];portConstraint=eastwest;" parent="o57jsqLY2e908bK7gBOk-34" vertex="1">
                    <mxGeometry y="78" width="160" height="26" as="geometry"/>
                </mxCell>
                <mxCell id="o57jsqLY2e908bK7gBOk-38" value="PENALITE" style="swimlane;fontStyle=0;align=center;verticalAlign=top;childLayout=stackLayout;horizontal=1;startSize=26;horizontalStack=0;resizeParent=1;resizeLast=0;collapsible=1;marginBottom=0;rounded=0;shadow=0;strokeWidth=1;" parent="o57jsqLY2e908bK7gBOk-1" vertex="1">
                    <mxGeometry x="1420" y="613.5" width="160" height="130" as="geometry">
                        <mxRectangle x="340" y="380" width="170" height="26" as="alternateBounds"/>
                    </mxGeometry>
                </mxCell>
                <mxCell id="o57jsqLY2e908bK7gBOk-39" value="PK ID_PENALITE" style="text;align=left;verticalAlign=top;spacingLeft=4;spacingRight=4;overflow=hidden;rotatable=0;points=[[0,0.5],[1,0.5]];portConstraint=eastwest;strokeColor=#FF0000;" parent="o57jsqLY2e908bK7gBOk-38" vertex="1">
                    <mxGeometry y="26" width="160" height="26" as="geometry"/>
                </mxCell>
                <mxCell id="o57jsqLY2e908bK7gBOk-40" value="TYPE_OBJET" style="text;align=left;verticalAlign=top;spacingLeft=4;spacingRight=4;overflow=hidden;rotatable=0;points=[[0,0.5],[1,0.5]];portConstraint=eastwest;strokeColor=none;" parent="o57jsqLY2e908bK7gBOk-38" vertex="1">
                    <mxGeometry y="52" width="160" height="26" as="geometry"/>
                </mxCell>
                <mxCell id="o57jsqLY2e908bK7gBOk-41" value="PRIX_J_PENALITER" style="text;align=left;verticalAlign=top;spacingLeft=4;spacingRight=4;overflow=hidden;rotatable=0;points=[[0,0.5],[1,0.5]];portConstraint=eastwest;" parent="o57jsqLY2e908bK7gBOk-38" vertex="1">
                    <mxGeometry y="78" width="160" height="26" as="geometry"/>
                </mxCell>
                <mxCell id="o57jsqLY2e908bK7gBOk-42" value="FK_ID_Objet&#10;" style="text;align=left;verticalAlign=top;spacingLeft=4;spacingRight=4;overflow=hidden;rotatable=0;points=[[0,0.5],[1,0.5]];portConstraint=eastwest;" parent="o57jsqLY2e908bK7gBOk-38" vertex="1">
                    <mxGeometry y="104" width="160" height="26" as="geometry"/>
                </mxCell>
                <mxCell id="o57jsqLY2e908bK7gBOk-43" value="CatÃ©gorie socialÂ " style="swimlane;fontStyle=0;align=center;verticalAlign=top;childLayout=stackLayout;horizontal=1;startSize=26;horizontalStack=0;resizeParent=1;resizeLast=0;collapsible=1;marginBottom=0;rounded=0;shadow=0;strokeWidth=1;" parent="o57jsqLY2e908bK7gBOk-1" vertex="1">
                    <mxGeometry x="246" y="367.5" width="160" height="90" as="geometry">
                        <mxRectangle x="70" y="410" width="170" height="26" as="alternateBounds"/>
                    </mxGeometry>
                </mxCell>
                <mxCell id="o57jsqLY2e908bK7gBOk-44" value="PK ID_Categorie social" style="text;align=left;verticalAlign=top;spacingLeft=4;spacingRight=4;overflow=hidden;rotatable=0;points=[[0,0.5],[1,0.5]];portConstraint=eastwest;strokeColor=#FF0000;" parent="o57jsqLY2e908bK7gBOk-43" vertex="1">
                    <mxGeometry y="26" width="160" height="26" as="geometry"/>
                </mxCell>
                <mxCell id="o57jsqLY2e908bK7gBOk-45" value="Categorie social" style="text;align=left;verticalAlign=top;spacingLeft=4;spacingRight=4;overflow=hidden;rotatable=0;points=[[0,0.5],[1,0.5]];portConstraint=eastwest;strokeColor=none;" parent="o57jsqLY2e908bK7gBOk-43" vertex="1">
                    <mxGeometry y="52" width="160" height="26" as="geometry"/>
                </mxCell>
                <mxCell id="o57jsqLY2e908bK7gBOk-46" value="&lt;div style=&quot;box-sizing: border-box ; font-family: &amp;#34;segoe ui&amp;#34; , , &amp;#34;apple color emoji&amp;#34; , &amp;#34;segoe ui emoji&amp;#34; , sans-serif&quot;&gt;&lt;font style=&quot;font-size: 14px&quot;&gt;&lt;span itemscope=&quot;&quot; class=&quot;at-mentions-focus lpc-hoverTarget&quot; tabindex=&quot;0&quot;&gt;GROUPE 5 - 3SRC1&lt;/span&gt;&lt;/font&gt;&lt;/div&gt;&lt;div style=&quot;box-sizing: border-box ; font-family: &amp;#34;segoe ui&amp;#34; , , &amp;#34;apple color emoji&amp;#34; , &amp;#34;segoe ui emoji&amp;#34; , sans-serif&quot;&gt;&lt;font size=&quot;3&quot;&gt;&lt;span itemscope=&quot;&quot; class=&quot;at-mentions-focus lpc-hoverTarget&quot; tabindex=&quot;0&quot;&gt;Maxime HABERMANN&lt;/span&gt;&lt;/font&gt;&lt;/div&gt;&lt;div style=&quot;box-sizing: border-box ; font-family: &amp;#34;segoe ui&amp;#34; , , &amp;#34;apple color emoji&amp;#34; , &amp;#34;segoe ui emoji&amp;#34; , sans-serif&quot;&gt;&lt;font size=&quot;3&quot;&gt;&lt;span itemscope=&quot;&quot; class=&quot;mention-me at-mentions-focus lpc-hoverTarget&quot; tabindex=&quot;0&quot;&gt;Mukilventhan GEORGE&lt;/span&gt;&lt;/font&gt;&lt;/div&gt;&lt;div style=&quot;box-sizing: border-box ; font-family: &amp;#34;segoe ui&amp;#34; , , &amp;#34;apple color emoji&amp;#34; , &amp;#34;segoe ui emoji&amp;#34; , sans-serif&quot;&gt;&lt;font size=&quot;3&quot;&gt;&lt;span itemscope=&quot;&quot; class=&quot;at-mentions-focus lpc-hoverTarget&quot; tabindex=&quot;0&quot;&gt;Mohamed WAZANE&lt;/span&gt;&lt;/font&gt;&lt;/div&gt;&lt;div style=&quot;box-sizing: border-box ; font-family: &amp;#34;segoe ui&amp;#34; , , &amp;#34;apple color emoji&amp;#34; , &amp;#34;segoe ui emoji&amp;#34; , sans-serif&quot;&gt;&lt;font size=&quot;3&quot;&gt;ThÃ©o PAYEN&lt;/font&gt;&lt;/div&gt;" style="rounded=0;whiteSpace=wrap;html=1;shadow=0;fontColor=#000000;fillColor=default;gradientColor=none;" parent="o57jsqLY2e908bK7gBOk-1" vertex="1">
                    <mxGeometry x="1285" y="145" width="200" height="140" as="geometry"/>
                </mxCell>
                <mxCell id="o57jsqLY2e908bK7gBOk-47" value="GENRE" style="swimlane;fontStyle=0;align=center;verticalAlign=top;childLayout=stackLayout;horizontal=1;startSize=26;horizontalStack=0;resizeParent=1;resizeLast=0;collapsible=1;marginBottom=0;rounded=0;shadow=0;strokeWidth=1;" parent="o57jsqLY2e908bK7gBOk-1" vertex="1">
                    <mxGeometry x="150" y="1300" width="160" height="104" as="geometry">
                        <mxRectangle x="340" y="380" width="170" height="26" as="alternateBounds"/>
                    </mxGeometry>
                </mxCell>
                <mxCell id="o57jsqLY2e908bK7gBOk-48" value="PK_ID_GENRE" style="text;align=left;verticalAlign=top;spacingLeft=4;spacingRight=4;overflow=hidden;rotatable=0;points=[[0,0.5],[1,0.5]];portConstraint=eastwest;strokeColor=#FF0000;" parent="o57jsqLY2e908bK7gBOk-47" vertex="1">
                    <mxGeometry y="26" width="160" height="26" as="geometry"/>
                </mxCell>
                <mxCell id="o57jsqLY2e908bK7gBOk-49" value="GENRE" style="text;align=left;verticalAlign=top;spacingLeft=4;spacingRight=4;overflow=hidden;rotatable=0;points=[[0,0.5],[1,0.5]];portConstraint=eastwest;" parent="o57jsqLY2e908bK7gBOk-47" vertex="1">
                    <mxGeometry y="52" width="160" height="26" as="geometry"/>
                </mxCell>
                <mxCell id="o57jsqLY2e908bK7gBOk-50" value="FK_ID_filM" style="text;align=left;verticalAlign=top;spacingLeft=4;spacingRight=4;overflow=hidden;rotatable=0;points=[[0,0.5],[1,0.5]];portConstraint=eastwest;" parent="o57jsqLY2e908bK7gBOk-47" vertex="1">
                    <mxGeometry y="78" width="160" height="26" as="geometry"/>
                </mxCell>
                <mxCell id="o57jsqLY2e908bK7gBOk-51" value="&lt;span style=&quot;color: rgba(0 , 0 , 0 , 0) ; font-family: monospace ; font-size: 0px&quot;&gt;%3CmxGraphModel%3E%3Croot%3E%3CmxCell%20id%3D%220%22%2F%3E%3CmxCell%20id%3D%221%22%20parent%3D%220%22%2F%3E%3CmxCell%20id%3D%222%22%20value%3D%22PRIX_J_PRENALITER%22%20style%3D%22text%3Balign%3Dleft%3BverticalAlign%3Dtop%3BspacingLeft%3D4%3BspacingRight%3D4%3Boverflow%3Dhidden%3Brotatable%3D0%3Bpoints%3D%5B%5B0%2C0.5%5D%2C%5B1%2C0.5%5D%5D%3BportConstraint%3Deastwest%3B%22%20vertex%3D%221%22%20parent%3D%221%22%3E%3CmxGeometry%20x%3D%22230%22%20y%3D%22362%22%20width%3D%22160%22%20height%3D%2226%22%20as%3D%22geometry%22%2F%3E%3C%2FmxCell%3E%3C%2Froot%3E%3C%2FmxGraphModel%3E&lt;/span&gt;" style="ellipse;whiteSpace=wrap;html=1;" parent="o57jsqLY2e908bK7gBOk-1" vertex="1">
                    <mxGeometry x="1100" y="1010" width="130" height="60" as="geometry"/>
                </mxCell>
                <mxCell id="o57jsqLY2e908bK7gBOk-52" value="ECOUTER" style="text;html=1;strokeColor=none;fillColor=none;align=center;verticalAlign=middle;whiteSpace=wrap;rounded=0;" parent="o57jsqLY2e908bK7gBOk-1" vertex="1">
                    <mxGeometry x="1150" y="1030" width="60" height="30" as="geometry"/>
                </mxCell>
                <mxCell id="o57jsqLY2e908bK7gBOk-53" value="&lt;span style=&quot;color: rgba(0 , 0 , 0 , 0) ; font-family: monospace ; font-size: 0px&quot;&gt;%3CmxGraphModel%3E%3Croot%3E%3CmxCell%20id%3D%220%22%2F%3E%3CmxCell%20id%3D%221%22%20parent%3D%220%22%2F%3E%3CmxCell%20id%3D%222%22%20value%3D%22PRIX_J_PRENALITER%22%20style%3D%22text%3Balign%3Dleft%3BverticalAlign%3Dtop%3BspacingLeft%3D4%3BspacingRight%3D4%3Boverflow%3Dhidden%3Brotatable%3D0%3Bpoints%3D%5B%5B0%2C0.5%5D%2C%5B1%2C0.5%5D%5D%3BportConstraint%3Deastwest%3B%22%20vertex%3D%221%22%20parent%3D%221%22%3E%3CmxGeometry%20x%3D%22230%22%20y%3D%22362%22%20width%3D%22160%22%20height%3D%2226%22%20as%3D%22geometry%22%2F%3E%3C%2FmxCell%3E%3C%2Froot%3E%3C%2FmxGraphModel%3E&lt;/span&gt;" style="ellipse;whiteSpace=wrap;html=1;" parent="o57jsqLY2e908bK7gBOk-1" vertex="1">
                    <mxGeometry x="565" y="1220" width="130" height="60" as="geometry"/>
                </mxCell>
                <mxCell id="o57jsqLY2e908bK7gBOk-54" value="JOUER" style="text;html=1;strokeColor=none;fillColor=none;align=center;verticalAlign=middle;whiteSpace=wrap;rounded=0;" parent="o57jsqLY2e908bK7gBOk-1" vertex="1">
                    <mxGeometry x="600" y="1235" width="60" height="30" as="geometry"/>
                </mxCell>
                <mxCell id="o57jsqLY2e908bK7gBOk-55" value="CASSETTE" style="swimlane;fontStyle=0;align=center;verticalAlign=top;childLayout=stackLayout;horizontal=1;startSize=26;horizontalStack=0;resizeParent=1;resizeLast=0;collapsible=1;marginBottom=0;rounded=0;shadow=0;strokeWidth=1;" parent="o57jsqLY2e908bK7gBOk-1" vertex="1">
                    <mxGeometry x="491" y="830" width="160" height="97.5" as="geometry">
                        <mxRectangle x="340" y="380" width="170" height="26" as="alternateBounds"/>
                    </mxGeometry>
                </mxCell>
                <mxCell id="o57jsqLY2e908bK7gBOk-56" value="ID_CASSETTE" style="text;align=left;verticalAlign=top;spacingLeft=4;spacingRight=4;overflow=hidden;rotatable=0;points=[[0,0.5],[1,0.5]];portConstraint=eastwest;strokeColor=none;" parent="o57jsqLY2e908bK7gBOk-55" vertex="1">
                    <mxGeometry y="26" width="160" height="26" as="geometry"/>
                </mxCell>
                <mxCell id="o57jsqLY2e908bK7gBOk-57" value="TITRE CASSETTE" style="text;align=left;verticalAlign=top;spacingLeft=4;spacingRight=4;overflow=hidden;rotatable=0;points=[[0,0.5],[1,0.5]];portConstraint=eastwest;" parent="o57jsqLY2e908bK7gBOk-55" vertex="1">
                    <mxGeometry y="52" width="160" height="26" as="geometry"/>
                </mxCell>
                <mxCell id="o57jsqLY2e908bK7gBOk-58" value="DISQUES" style="swimlane;fontStyle=0;align=center;verticalAlign=top;childLayout=stackLayout;horizontal=1;startSize=26;horizontalStack=0;resizeParent=1;resizeLast=0;collapsible=1;marginBottom=0;rounded=0;shadow=0;strokeWidth=1;" parent="o57jsqLY2e908bK7gBOk-1" vertex="1">
                    <mxGeometry x="1040" y="840" width="160" height="97.5" as="geometry">
                        <mxRectangle x="340" y="380" width="170" height="26" as="alternateBounds"/>
                    </mxGeometry>
                </mxCell>
                <mxCell id="o57jsqLY2e908bK7gBOk-59" value="ID_DISQUE" style="text;align=left;verticalAlign=top;spacingLeft=4;spacingRight=4;overflow=hidden;rotatable=0;points=[[0,0.5],[1,0.5]];portConstraint=eastwest;strokeColor=none;" parent="o57jsqLY2e908bK7gBOk-58" vertex="1">
                    <mxGeometry y="26" width="160" height="26" as="geometry"/>
                </mxCell>
                <mxCell id="o57jsqLY2e908bK7gBOk-60" value="TITRES_DISQUE" style="text;align=left;verticalAlign=top;spacingLeft=4;spacingRight=4;overflow=hidden;rotatable=0;points=[[0,0.5],[1,0.5]];portConstraint=eastwest;" parent="o57jsqLY2e908bK7gBOk-58" vertex="1">
                    <mxGeometry y="52" width="160" height="26" as="geometry"/>
                </mxCell>
                <mxCell id="o57jsqLY2e908bK7gBOk-61" value="" style="endArrow=none;html=1;rounded=0;entryX=0.5;entryY=0;entryDx=0;entryDy=0;exitX=0.008;exitY=0.013;exitDx=0;exitDy=0;exitPerimeter=0;" parent="o57jsqLY2e908bK7gBOk-1" source="o57jsqLY2e908bK7gBOk-72" target="o57jsqLY2e908bK7gBOk-55" edge="1">
                    <mxGeometry width="50" height="50" relative="1" as="geometry">
                        <mxPoint x="750" y="880" as="sourcePoint"/>
                        <mxPoint x="-40" y="925" as="targetPoint"/>
                        <Array as="points"/>
                    </mxGeometry>
                </mxCell>
                <mxCell id="o57jsqLY2e908bK7gBOk-62" value="" style="endArrow=none;html=1;rounded=0;exitX=0.5;exitY=0;exitDx=0;exitDy=0;entryX=0.033;entryY=0.936;entryDx=0;entryDy=0;entryPerimeter=0;" parent="o57jsqLY2e908bK7gBOk-1" source="o57jsqLY2e908bK7gBOk-58" target="o57jsqLY2e908bK7gBOk-72" edge="1">
                    <mxGeometry width="50" height="50" relative="1" as="geometry">
                        <mxPoint x="715" y="910" as="sourcePoint"/>
                        <mxPoint x="840" y="790" as="targetPoint"/>
                        <Array as="points"/>
                    </mxGeometry>
                </mxCell>
                <mxCell id="o57jsqLY2e908bK7gBOk-63" value="" style="endArrow=classic;html=1;exitX=1;exitY=0.5;exitDx=0;exitDy=0;entryX=0.5;entryY=1;entryDx=0;entryDy=0;startArrow=none;" parent="o57jsqLY2e908bK7gBOk-1" source="o57jsqLY2e908bK7gBOk-72" target="o57jsqLY2e908bK7gBOk-17" edge="1">
                    <mxGeometry width="50" height="50" relative="1" as="geometry">
                        <mxPoint x="796" y="798.5" as="sourcePoint"/>
                        <mxPoint x="1090" y="910" as="targetPoint"/>
                    </mxGeometry>
                </mxCell>
                <mxCell id="o57jsqLY2e908bK7gBOk-64" value="EMPRUNT" style="swimlane;fontStyle=0;align=center;verticalAlign=top;childLayout=stackLayout;horizontal=1;startSize=26;horizontalStack=0;resizeParent=1;resizeLast=0;collapsible=1;marginBottom=0;rounded=0;shadow=0;strokeWidth=1;" parent="o57jsqLY2e908bK7gBOk-1" vertex="1">
                    <mxGeometry x="451" y="234.5" width="160" height="125" as="geometry">
                        <mxRectangle x="340" y="380" width="170" height="26" as="alternateBounds"/>
                    </mxGeometry>
                </mxCell>
                <mxCell id="o57jsqLY2e908bK7gBOk-65" value="PK ID_EMPRUNT" style="text;align=left;verticalAlign=top;spacingLeft=4;spacingRight=4;overflow=hidden;rotatable=0;points=[[0,0.5],[1,0.5]];portConstraint=eastwest;strokeColor=#FF0000;" parent="o57jsqLY2e908bK7gBOk-64" vertex="1">
                    <mxGeometry y="26" width="160" height="26" as="geometry"/>
                </mxCell>
                <mxCell id="o57jsqLY2e908bK7gBOk-66" value="DATE_EMPRUNT" style="text;align=left;verticalAlign=top;spacingLeft=4;spacingRight=4;overflow=hidden;rotatable=0;points=[[0,0.5],[1,0.5]];portConstraint=eastwest;" parent="o57jsqLY2e908bK7gBOk-64" vertex="1">
                    <mxGeometry y="52" width="160" height="26" as="geometry"/>
                </mxCell>
                <mxCell id="o57jsqLY2e908bK7gBOk-67" value="FK_ID_ABO" style="text;align=left;verticalAlign=top;spacingLeft=4;spacingRight=4;overflow=hidden;rotatable=0;points=[[0,0.5],[1,0.5]];portConstraint=eastwest;" parent="o57jsqLY2e908bK7gBOk-64" vertex="1">
                    <mxGeometry y="78" width="160" height="26" as="geometry"/>
                </mxCell>
                <mxCell id="o57jsqLY2e908bK7gBOk-68" value="ARTISTE" style="swimlane;fontStyle=0;align=center;verticalAlign=top;childLayout=stackLayout;horizontal=1;startSize=26;horizontalStack=0;resizeParent=1;resizeLast=0;collapsible=1;marginBottom=0;rounded=0;shadow=0;strokeWidth=1;" parent="o57jsqLY2e908bK7gBOk-1" vertex="1">
                    <mxGeometry x="727" y="1669" width="160" height="110" as="geometry">
                        <mxRectangle x="340" y="380" width="170" height="26" as="alternateBounds"/>
                    </mxGeometry>
                </mxCell>
                <mxCell id="o57jsqLY2e908bK7gBOk-69" value="PK_ID_ARTISTE" style="text;align=left;verticalAlign=top;spacingLeft=4;spacingRight=4;overflow=hidden;rotatable=0;points=[[0,0.5],[1,0.5]];portConstraint=eastwest;strokeColor=#FF0000;" parent="o57jsqLY2e908bK7gBOk-68" vertex="1">
                    <mxGeometry y="26" width="160" height="26" as="geometry"/>
                </mxCell>
                <mxCell id="o57jsqLY2e908bK7gBOk-70" value="NOM" style="text;align=left;verticalAlign=top;spacingLeft=4;spacingRight=4;overflow=hidden;rotatable=0;points=[[0,0.5],[1,0.5]];portConstraint=eastwest;" parent="o57jsqLY2e908bK7gBOk-68" vertex="1">
                    <mxGeometry y="52" width="160" height="26" as="geometry"/>
                </mxCell>
                <mxCell id="o57jsqLY2e908bK7gBOk-71" value="PRENOM" style="text;align=left;verticalAlign=top;spacingLeft=4;spacingRight=4;overflow=hidden;rotatable=0;points=[[0,0.5],[1,0.5]];portConstraint=eastwest;" parent="o57jsqLY2e908bK7gBOk-68" vertex="1">
                    <mxGeometry y="78" width="160" height="26" as="geometry"/>
                </mxCell>
                <mxCell id="o57jsqLY2e908bK7gBOk-72" value="" style="triangle;whiteSpace=wrap;html=1;rotation=-90;" parent="o57jsqLY2e908bK7gBOk-1" vertex="1">
                    <mxGeometry x="767" y="710" width="60" height="80" as="geometry"/>
                </mxCell>
                <mxCell id="o57jsqLY2e908bK7gBOk-73" value="RETOUR" style="swimlane;fontStyle=0;align=center;verticalAlign=top;childLayout=stackLayout;horizontal=1;startSize=26;horizontalStack=0;resizeParent=1;resizeLast=0;collapsible=1;marginBottom=0;rounded=0;shadow=0;strokeWidth=1;" parent="o57jsqLY2e908bK7gBOk-1" vertex="1">
                    <mxGeometry x="1055" y="182.5" width="160" height="125" as="geometry">
                        <mxRectangle x="340" y="380" width="170" height="26" as="alternateBounds"/>
                    </mxGeometry>
                </mxCell>
                <mxCell id="o57jsqLY2e908bK7gBOk-74" value="PK ID_RETOUR" style="text;align=left;verticalAlign=top;spacingLeft=4;spacingRight=4;overflow=hidden;rotatable=0;points=[[0,0.5],[1,0.5]];portConstraint=eastwest;strokeColor=#FF0000;" parent="o57jsqLY2e908bK7gBOk-73" vertex="1">
                    <mxGeometry y="26" width="160" height="26" as="geometry"/>
                </mxCell>
                <mxCell id="o57jsqLY2e908bK7gBOk-75" value="DATE_RENDU" style="text;align=left;verticalAlign=top;spacingLeft=4;spacingRight=4;overflow=hidden;rotatable=0;points=[[0,0.5],[1,0.5]];portConstraint=eastwest;" parent="o57jsqLY2e908bK7gBOk-73" vertex="1">
                    <mxGeometry y="52" width="160" height="26" as="geometry"/>
                </mxCell>
                <mxCell id="o57jsqLY2e908bK7gBOk-76" value="FK_ID_Emprunt" style="text;align=left;verticalAlign=top;spacingLeft=4;spacingRight=4;overflow=hidden;rotatable=0;points=[[0,0.5],[1,0.5]];portConstraint=eastwest;" parent="o57jsqLY2e908bK7gBOk-73" vertex="1">
                    <mxGeometry y="78" width="160" height="26" as="geometry"/>
                </mxCell>
                <mxCell id="o57jsqLY2e908bK7gBOk-77" value="RENDRE" style="text;html=1;strokeColor=none;fillColor=none;align=center;verticalAlign=middle;whiteSpace=wrap;rounded=0;" parent="o57jsqLY2e908bK7gBOk-1" vertex="1">
                    <mxGeometry x="982" y="367.5" width="58" height="30" as="geometry"/>
                </mxCell>
                <mxCell id="o57jsqLY2e908bK7gBOk-78" value="" style="endArrow=classic;html=1;rounded=0;exitX=0;exitY=1;exitDx=0;exitDy=0;entryX=0.5;entryY=0;entryDx=0;entryDy=0;" parent="o57jsqLY2e908bK7gBOk-1" source="o57jsqLY2e908bK7gBOk-4" target="o57jsqLY2e908bK7gBOk-28" edge="1">
                    <mxGeometry width="50" height="50" relative="1" as="geometry">
                        <mxPoint x="220" y="300" as="sourcePoint"/>
                        <mxPoint x="270" y="250" as="targetPoint"/>
                    </mxGeometry>
                </mxCell>
                <mxCell id="o57jsqLY2e908bK7gBOk-79" value="" style="endArrow=classic;html=1;rounded=0;exitX=1;exitY=1;exitDx=0;exitDy=0;entryX=0.5;entryY=0;entryDx=0;entryDy=0;" parent="o57jsqLY2e908bK7gBOk-1" source="o57jsqLY2e908bK7gBOk-4" target="o57jsqLY2e908bK7gBOk-43" edge="1">
                    <mxGeometry width="50" height="50" relative="1" as="geometry">
                        <mxPoint x="220" y="300" as="sourcePoint"/>
                        <mxPoint x="270" y="250" as="targetPoint"/>
                    </mxGeometry>
                </mxCell>
                <mxCell id="o57jsqLY2e908bK7gBOk-80" value="" style="endArrow=classic;html=1;rounded=0;" parent="o57jsqLY2e908bK7gBOk-1" edge="1">
                    <mxGeometry width="50" height="50" relative="1" as="geometry">
                        <mxPoint x="710" y="90" as="sourcePoint"/>
                        <mxPoint x="1000" y="90" as="targetPoint"/>
                        <Array as="points">
                            <mxPoint x="850" y="90"/>
                        </Array>
                    </mxGeometry>
                </mxCell>
                <mxCell id="o57jsqLY2e908bK7gBOk-81" value="" style="endArrow=classic;html=1;rounded=0;exitX=0;exitY=0.5;exitDx=0;exitDy=0;entryX=1;entryY=0.5;entryDx=0;entryDy=0;startArrow=none;" parent="o57jsqLY2e908bK7gBOk-1" source="o57jsqLY2e908bK7gBOk-2" target="o57jsqLY2e908bK7gBOk-65" edge="1">
                    <mxGeometry width="50" height="50" relative="1" as="geometry">
                        <mxPoint x="620" y="550" as="sourcePoint"/>
                        <mxPoint x="200" y="590" as="targetPoint"/>
                    </mxGeometry>
                </mxCell>
                <mxCell id="o57jsqLY2e908bK7gBOk-82" value="" style="endArrow=classic;startArrow=none;html=1;rounded=0;exitX=1;exitY=0.5;exitDx=0;exitDy=0;" parent="o57jsqLY2e908bK7gBOk-1" source="o57jsqLY2e908bK7gBOk-3" edge="1">
                    <mxGeometry width="50" height="50" relative="1" as="geometry">
                        <mxPoint x="620" y="550" as="sourcePoint"/>
                        <mxPoint x="710" y="620" as="targetPoint"/>
                    </mxGeometry>
                </mxCell>
                <mxCell id="o57jsqLY2e908bK7gBOk-83" value="" style="endArrow=classic;html=1;rounded=0;exitX=1;exitY=0.5;exitDx=0;exitDy=0;entryX=-0.006;entryY=0.096;entryDx=0;entryDy=0;entryPerimeter=0;" parent="o57jsqLY2e908bK7gBOk-1" source="o57jsqLY2e908bK7gBOk-20" target="o57jsqLY2e908bK7gBOk-40" edge="1">
                    <mxGeometry width="50" height="50" relative="1" as="geometry">
                        <mxPoint x="1190" y="590" as="sourcePoint"/>
                        <mxPoint x="1510" y="560" as="targetPoint"/>
                        <Array as="points"/>
                    </mxGeometry>
                </mxCell>
                <mxCell id="o57jsqLY2e908bK7gBOk-84" value="" style="endArrow=classic;startArrow=classic;html=1;rounded=0;exitX=0.25;exitY=0;exitDx=0;exitDy=0;entryX=0.25;entryY=1;entryDx=0;entryDy=0;" parent="o57jsqLY2e908bK7gBOk-1" source="o57jsqLY2e908bK7gBOk-22" target="o57jsqLY2e908bK7gBOk-55" edge="1">
                    <mxGeometry width="50" height="50" relative="1" as="geometry">
                        <mxPoint x="690" y="1190" as="sourcePoint"/>
                        <mxPoint x="550" y="930" as="targetPoint"/>
                    </mxGeometry>
                </mxCell>
                <mxCell id="o57jsqLY2e908bK7gBOk-85" value="" style="endArrow=classic;startArrow=classic;html=1;rounded=0;exitX=0.75;exitY=0;exitDx=0;exitDy=0;entryX=1;entryY=0;entryDx=0;entryDy=0;" parent="o57jsqLY2e908bK7gBOk-1" source="o57jsqLY2e908bK7gBOk-25" edge="1">
                    <mxGeometry width="50" height="50" relative="1" as="geometry">
                        <mxPoint x="1090" y="1120" as="sourcePoint"/>
                        <mxPoint x="1175" y="939" as="targetPoint"/>
                    </mxGeometry>
                </mxCell>
                <mxCell id="o57jsqLY2e908bK7gBOk-86" value="" style="endArrow=classic;startArrow=classic;html=1;rounded=0;entryX=0;entryY=0.5;entryDx=0;entryDy=0;" parent="o57jsqLY2e908bK7gBOk-1" target="o57jsqLY2e908bK7gBOk-24" edge="1">
                    <mxGeometry width="50" height="50" relative="1" as="geometry">
                        <mxPoint x="230" y="1300" as="sourcePoint"/>
                        <mxPoint x="651" y="1190" as="targetPoint"/>
                        <Array as="points">
                            <mxPoint x="320" y="1250"/>
                        </Array>
                    </mxGeometry>
                </mxCell>
                <mxCell id="o57jsqLY2e908bK7gBOk-87" value="RETOUNER" style="text;html=1;strokeColor=none;fillColor=none;align=center;verticalAlign=middle;whiteSpace=wrap;rounded=0;" parent="o57jsqLY2e908bK7gBOk-1" vertex="1">
                    <mxGeometry x="823" y="230" width="58" height="30" as="geometry"/>
                </mxCell>
                <mxCell id="o57jsqLY2e908bK7gBOk-88" value="" style="endArrow=classic;html=1;rounded=0;entryX=1;entryY=0.5;entryDx=0;entryDy=0;exitX=0;exitY=0.5;exitDx=0;exitDy=0;" parent="o57jsqLY2e908bK7gBOk-1" source="o57jsqLY2e908bK7gBOk-12" edge="1">
                    <mxGeometry width="50" height="50" relative="1" as="geometry">
                        <mxPoint x="670" y="370" as="sourcePoint"/>
                        <mxPoint x="260" y="106" as="targetPoint"/>
                    </mxGeometry>
                </mxCell>
                <mxCell id="o57jsqLY2e908bK7gBOk-89" value="" style="endArrow=classic;html=1;rounded=0;exitX=0;exitY=1;exitDx=0;exitDy=0;entryX=0.5;entryY=0;entryDx=0;entryDy=0;startArrow=none;" parent="o57jsqLY2e908bK7gBOk-1" source="o57jsqLY2e908bK7gBOk-95" target="o57jsqLY2e908bK7gBOk-17" edge="1">
                    <mxGeometry width="50" height="50" relative="1" as="geometry">
                        <mxPoint x="1149.98" y="307.496" as="sourcePoint"/>
                        <mxPoint x="290.02" y="634.37" as="targetPoint"/>
                    </mxGeometry>
                </mxCell>
                <mxCell id="o57jsqLY2e908bK7gBOk-90" value="" style="endArrow=classic;startArrow=classic;html=1;rounded=0;entryX=0.675;entryY=1.077;entryDx=0;entryDy=0;entryPerimeter=0;exitX=0.25;exitY=0;exitDx=0;exitDy=0;" parent="o57jsqLY2e908bK7gBOk-1" source="o57jsqLY2e908bK7gBOk-68" target="o57jsqLY2e908bK7gBOk-24" edge="1">
                    <mxGeometry width="50" height="50" relative="1" as="geometry">
                        <mxPoint x="520" y="1280" as="sourcePoint"/>
                        <mxPoint x="570" y="1230" as="targetPoint"/>
                    </mxGeometry>
                </mxCell>
                <mxCell id="o57jsqLY2e908bK7gBOk-91" value="" style="endArrow=classic;startArrow=classic;html=1;rounded=0;entryX=0.675;entryY=1.077;entryDx=0;entryDy=0;entryPerimeter=0;exitX=0.25;exitY=0;exitDx=0;exitDy=0;" parent="o57jsqLY2e908bK7gBOk-1" edge="1">
                    <mxGeometry width="50" height="50" relative="1" as="geometry">
                        <mxPoint x="799" y="1669" as="sourcePoint"/>
                        <mxPoint x="630" y="1190.002" as="targetPoint"/>
                    </mxGeometry>
                </mxCell>
                <mxCell id="o57jsqLY2e908bK7gBOk-92" value="" style="endArrow=classic;startArrow=classic;html=1;rounded=0;entryX=0.238;entryY=1.154;entryDx=0;entryDy=0;entryPerimeter=0;exitX=0.563;exitY=0.009;exitDx=0;exitDy=0;exitPerimeter=0;" parent="o57jsqLY2e908bK7gBOk-1" source="o57jsqLY2e908bK7gBOk-68" target="o57jsqLY2e908bK7gBOk-27" edge="1">
                    <mxGeometry width="50" height="50" relative="1" as="geometry">
                        <mxPoint x="809" y="1679" as="sourcePoint"/>
                        <mxPoint x="640" y="1200.002" as="targetPoint"/>
                    </mxGeometry>
                </mxCell>
                <mxCell id="o57jsqLY2e908bK7gBOk-93" value="" style="endArrow=classic;startArrow=classic;html=1;rounded=0;entryX=0.238;entryY=1.154;entryDx=0;entryDy=0;entryPerimeter=0;exitX=0.563;exitY=0.009;exitDx=0;exitDy=0;exitPerimeter=0;" parent="o57jsqLY2e908bK7gBOk-1" edge="1">
                    <mxGeometry width="50" height="50" relative="1" as="geometry">
                        <mxPoint x="839.9999999999999" y="1668.9999999999998" as="sourcePoint"/>
                        <mxPoint x="1101" y="1241.014" as="targetPoint"/>
                    </mxGeometry>
                </mxCell>
                <mxCell id="o57jsqLY2e908bK7gBOk-94" value="" style="endArrow=classic;startArrow=classic;html=1;rounded=0;entryX=0.238;entryY=1.154;entryDx=0;entryDy=0;entryPerimeter=0;exitX=0.563;exitY=0.009;exitDx=0;exitDy=0;exitPerimeter=0;fontStyle=1" parent="o57jsqLY2e908bK7gBOk-1" edge="1">
                    <mxGeometry width="50" height="50" relative="1" as="geometry">
                        <mxPoint x="879.9999999999999" y="1668.9999999999998" as="sourcePoint"/>
                        <mxPoint x="1141" y="1241.014" as="targetPoint"/>
                    </mxGeometry>
                </mxCell>
                <mxCell id="o57jsqLY2e908bK7gBOk-95" value="&lt;span style=&quot;color: rgba(0 , 0 , 0 , 0) ; font-family: monospace ; font-size: 0px&quot;&gt;%3CmxGraphModel%3E%3Croot%3E%3CmxCell%20id%3D%220%22%2F%3E%3CmxCell%20id%3D%221%22%20parent%3D%220%22%2F%3E%3CmxCell%20id%3D%222%22%20value%3D%22PRIX_J_PRENALITER%22%20style%3D%22text%3Balign%3Dleft%3BverticalAlign%3Dtop%3BspacingLeft%3D4%3BspacingRight%3D4%3Boverflow%3Dhidden%3Brotatable%3D0%3Bpoints%3D%5B%5B0%2C0.5%5D%2C%5B1%2C0.5%5D%5D%3BportConstraint%3Deastwest%3B%22%20vertex%3D%221%22%20parent%3D%221%22%3E%3CmxGeometry%20x%3D%22230%22%20y%3D%22362%22%20width%3D%22160%22%20height%3D%2226%22%20as%3D%22geometry%22%2F%3E%3C%2FmxCell%3E%3C%2Froot%3E%3C%2FmxGraphModel%3E&lt;/span&gt;" style="ellipse;whiteSpace=wrap;html=1;" parent="o57jsqLY2e908bK7gBOk-1" vertex="1">
                    <mxGeometry x="960" y="337.5" width="130" height="60" as="geometry"/>
                </mxCell>
                <mxCell id="o57jsqLY2e908bK7gBOk-96" value="" style="endArrow=none;html=1;rounded=0;exitX=0.031;exitY=1.101;exitDx=0;exitDy=0;exitPerimeter=0;entryX=0.5;entryY=0;entryDx=0;entryDy=0;" parent="o57jsqLY2e908bK7gBOk-1" target="o57jsqLY2e908bK7gBOk-95" edge="1">
                    <mxGeometry width="50" height="50" relative="1" as="geometry">
                        <mxPoint x="1149.98" y="307.4960000000001" as="sourcePoint"/>
                        <mxPoint x="796" y="520" as="targetPoint"/>
                    </mxGeometry>
                </mxCell>
                <mxCell id="o57jsqLY2e908bK7gBOk-97" value="RENDRE" style="text;html=1;strokeColor=none;fillColor=none;align=center;verticalAlign=middle;whiteSpace=wrap;rounded=0;" parent="o57jsqLY2e908bK7gBOk-1" vertex="1">
                    <mxGeometry x="996" y="352.5" width="58" height="30" as="geometry"/>
                </mxCell>
                <mxCell id="o57jsqLY2e908bK7gBOk-98" value="" style="endArrow=none;startArrow=classic;html=1;rounded=0;exitX=0.5;exitY=1;exitDx=0;exitDy=0;" parent="o57jsqLY2e908bK7gBOk-1" source="o57jsqLY2e908bK7gBOk-64" target="o57jsqLY2e908bK7gBOk-3" edge="1">
                    <mxGeometry width="50" height="50" relative="1" as="geometry">
                        <mxPoint x="240" y="628" as="sourcePoint"/>
                        <mxPoint x="710" y="620" as="targetPoint"/>
                    </mxGeometry>
                </mxCell>
                <mxCell id="o57jsqLY2e908bK7gBOk-99" value="" style="endArrow=none;html=1;rounded=0;exitX=0;exitY=0.5;exitDx=0;exitDy=0;entryX=1;entryY=0.5;entryDx=0;entryDy=0;" parent="o57jsqLY2e908bK7gBOk-1" source="o57jsqLY2e908bK7gBOk-75" target="o57jsqLY2e908bK7gBOk-2" edge="1">
                    <mxGeometry width="50" height="50" relative="1" as="geometry">
                        <mxPoint x="1059.96" y="263.126" as="sourcePoint"/>
                        <mxPoint x="531" y="234.5" as="targetPoint"/>
                    </mxGeometry>
                </mxCell>
                <mxCell id="o57jsqLY2e908bK7gBOk-100" value="" style="endArrow=classic;html=1;rounded=0;entryX=0.356;entryY=1.077;entryDx=0;entryDy=0;entryPerimeter=0;exitX=0.5;exitY=0;exitDx=0;exitDy=0;" parent="o57jsqLY2e908bK7gBOk-1" source="o57jsqLY2e908bK7gBOk-64" target="o57jsqLY2e908bK7gBOk-16" edge="1">
                    <mxGeometry width="50" height="50" relative="1" as="geometry">
                        <mxPoint x="600" y="390" as="sourcePoint"/>
                        <mxPoint x="650" y="340" as="targetPoint"/>
                    </mxGeometry>
                </mxCell>
            </root>
        </mxGraphModel>
    </diagram>
</mxfile>